<mxfile host="app.diagrams.net" agent="Mozilla/5.0 (Windows NT 10.0; Win64; x64) AppleWebKit/537.36 (KHTML, like Gecko) Chrome/134.0.0.0 Safari/537.36" version="26.1.0">
  <diagram name="Página-1" id="GOb8YWKbzJM4v-EOrp64">
    <mxGraphModel dx="1723" dy="655" grid="1" gridSize="10" guides="1" tooltips="1" connect="1" arrows="1" fold="1" page="1" pageScale="1" pageWidth="827" pageHeight="1169" math="0" shadow="0">
      <root>
        <mxCell id="0" />
        <mxCell id="1" parent="0" />
        <mxCell id="IYTjecegJelCjJGWe3SY-9" value="" style="edgeStyle=orthogonalEdgeStyle;rounded=0;orthogonalLoop=1;jettySize=auto;html=1;" edge="1" parent="1" source="IYTjecegJelCjJGWe3SY-1" target="IYTjecegJelCjJGWe3SY-2">
          <mxGeometry relative="1" as="geometry" />
        </mxCell>
        <mxCell id="IYTjecegJelCjJGWe3SY-1" value="Coleta de Dados Brutos (EEG e EMG)" style="rounded=0;whiteSpace=wrap;html=1;" vertex="1" parent="1">
          <mxGeometry x="120" y="210" width="220" height="80" as="geometry" />
        </mxCell>
        <mxCell id="IYTjecegJelCjJGWe3SY-10" value="" style="edgeStyle=orthogonalEdgeStyle;rounded=0;orthogonalLoop=1;jettySize=auto;html=1;" edge="1" parent="1" source="IYTjecegJelCjJGWe3SY-2" target="IYTjecegJelCjJGWe3SY-3">
          <mxGeometry relative="1" as="geometry" />
        </mxCell>
        <mxCell id="IYTjecegJelCjJGWe3SY-2" value="Organização e Verificação de Arquivos" style="rounded=0;whiteSpace=wrap;html=1;" vertex="1" parent="1">
          <mxGeometry x="390" y="210" width="220" height="80" as="geometry" />
        </mxCell>
        <mxCell id="IYTjecegJelCjJGWe3SY-11" value="" style="edgeStyle=orthogonalEdgeStyle;rounded=0;orthogonalLoop=1;jettySize=auto;html=1;" edge="1" parent="1" source="IYTjecegJelCjJGWe3SY-3" target="IYTjecegJelCjJGWe3SY-4">
          <mxGeometry relative="1" as="geometry" />
        </mxCell>
        <mxCell id="IYTjecegJelCjJGWe3SY-3" value="&lt;span style=&quot;background-color: transparent; color: light-dark(rgb(0, 0, 0), rgb(255, 255, 255));&quot;&gt;Pré-processamento de EEG&lt;/span&gt;&lt;br&gt;&lt;ul&gt;&lt;li&gt;Filtragem e Reamostragem&lt;/li&gt;&lt;li&gt;ICA (Remoção de Artefatos)&lt;/li&gt;&lt;/ul&gt;" style="rounded=0;whiteSpace=wrap;html=1;align=left;" vertex="1" parent="1">
          <mxGeometry x="660" y="210" width="220" height="80" as="geometry" />
        </mxCell>
        <mxCell id="IYTjecegJelCjJGWe3SY-12" value="" style="edgeStyle=orthogonalEdgeStyle;rounded=0;orthogonalLoop=1;jettySize=auto;html=1;" edge="1" parent="1" source="IYTjecegJelCjJGWe3SY-4" target="IYTjecegJelCjJGWe3SY-5">
          <mxGeometry relative="1" as="geometry" />
        </mxCell>
        <mxCell id="IYTjecegJelCjJGWe3SY-4" value="&lt;span style=&quot;background-color: transparent; color: light-dark(rgb(0, 0, 0), rgb(255, 255, 255));&quot;&gt;Pré-processamento de ECG&lt;/span&gt;&lt;br&gt;&lt;ul&gt;&lt;li&gt;&lt;span style=&quot;background-color: transparent; color: light-dark(rgb(0, 0, 0), rgb(255, 255, 255));&quot;&gt;Limpeza de Sinal&lt;br&gt;&lt;/span&gt;&lt;/li&gt;&lt;li&gt;&lt;span style=&quot;background-color: transparent; color: light-dark(rgb(0, 0, 0), rgb(255, 255, 255));&quot;&gt;Detecção de Picos&lt;/span&gt;&lt;/li&gt;&lt;li&gt;&lt;span style=&quot;background-color: transparent; color: light-dark(rgb(0, 0, 0), rgb(255, 255, 255));&quot;&gt;Gerar Sinal de Ciclo Cardíaco&lt;/span&gt;&lt;/li&gt;&lt;/ul&gt;" style="rounded=0;whiteSpace=wrap;html=1;align=left;" vertex="1" parent="1">
          <mxGeometry x="930" y="210" width="220" height="80" as="geometry" />
        </mxCell>
        <mxCell id="IYTjecegJelCjJGWe3SY-13" value="" style="edgeStyle=orthogonalEdgeStyle;rounded=0;orthogonalLoop=1;jettySize=auto;html=1;" edge="1" parent="1" source="IYTjecegJelCjJGWe3SY-5" target="IYTjecegJelCjJGWe3SY-6">
          <mxGeometry relative="1" as="geometry" />
        </mxCell>
        <mxCell id="IYTjecegJelCjJGWe3SY-5" value="Sincronização Temporal (EEG e ECG)" style="rounded=0;whiteSpace=wrap;html=1;align=center;" vertex="1" parent="1">
          <mxGeometry x="930" y="320" width="220" height="80" as="geometry" />
        </mxCell>
        <mxCell id="IYTjecegJelCjJGWe3SY-14" value="" style="edgeStyle=orthogonalEdgeStyle;rounded=0;orthogonalLoop=1;jettySize=auto;html=1;" edge="1" parent="1" source="IYTjecegJelCjJGWe3SY-6" target="IYTjecegJelCjJGWe3SY-7">
          <mxGeometry relative="1" as="geometry" />
        </mxCell>
        <mxCell id="IYTjecegJelCjJGWe3SY-6" value="Cálculo de Métricas de Sincronicidade:&lt;div&gt;&lt;ul&gt;&lt;li&gt;Same Frequency (PLV, PLI)&lt;/li&gt;&lt;li&gt;Cross-Frequency (CF-PLM)&lt;/li&gt;&lt;/ul&gt;&lt;/div&gt;" style="rounded=0;whiteSpace=wrap;html=1;align=left;" vertex="1" parent="1">
          <mxGeometry x="660" y="320" width="220" height="80" as="geometry" />
        </mxCell>
        <mxCell id="IYTjecegJelCjJGWe3SY-15" value="" style="edgeStyle=orthogonalEdgeStyle;rounded=0;orthogonalLoop=1;jettySize=auto;html=1;" edge="1" parent="1" source="IYTjecegJelCjJGWe3SY-7" target="IYTjecegJelCjJGWe3SY-8">
          <mxGeometry relative="1" as="geometry" />
        </mxCell>
        <mxCell id="IYTjecegJelCjJGWe3SY-7" value="&lt;ul&gt;&lt;li&gt;Análise de Distribuição&lt;/li&gt;&lt;li&gt;Teste de Normalidade&lt;/li&gt;&lt;li&gt;Teste Não-Paramétrico&lt;/li&gt;&lt;li&gt;Correções Múltiplas&lt;/li&gt;&lt;li&gt;Tamanho de Efeito&lt;/li&gt;&lt;/ul&gt;" style="rounded=0;whiteSpace=wrap;html=1;align=left;" vertex="1" parent="1">
          <mxGeometry x="390" y="320" width="220" height="80" as="geometry" />
        </mxCell>
        <mxCell id="IYTjecegJelCjJGWe3SY-8" value="&lt;span style=&quot;background-color: transparent; color: light-dark(rgb(0, 0, 0), rgb(255, 255, 255));&quot;&gt;Análise de Conectividade e Centralidade em Redes&amp;nbsp;&lt;/span&gt;" style="rounded=0;whiteSpace=wrap;html=1;align=center;" vertex="1" parent="1">
          <mxGeometry x="120" y="320" width="220" height="80" as="geometry" />
        </mxCell>
        <mxCell id="IYTjecegJelCjJGWe3SY-19" value="" style="shape=image;verticalLabelPosition=bottom;labelBackgroundColor=default;verticalAlign=top;aspect=fixed;imageAspect=0;image=data:image/png,iVBORw0KGgoAAAANSUhEUgAAAJYAAACWCAYAAAA8AXHiAAAAAXNSR0IArs4c6QAAAARnQU1BAACxjwv8YQUAAAAJcEhZcwAADsMAAA7DAcdvqGQAAABmZVhJZklJKgAIAAAAAQBphwQAAQAAABoAAAAAAAAAAwAAkAcABAAAADAyMzABoAMAAQAAAAEAAAAFoAQAAQAAAEQAAAAAAAAAAgABAAIABAAAAFI5OAACAAcABAAAADAxMDAAAAAAIvvHMbnUA7gAABcESURBVHhe7Z0JuE1VG8dVesqTr1AkSq7PVBQNJJKiFHoiY0kDX1GJaBCSEkpKiVJJoVlFAyU0IkOzzEOZEynNpcH6nt+6vds6a+9zz7muc87a5+7/8/wf7t5r77PPXv+zhvd917uKqAgRUoAi9oEIEfYGImFFSAkiYUVICSJhRUgJImFFSAkiYUVICSJhRUgJImFFSAkiYUVICSJhRUgJImFFSAkiYUVICSJhRUgJImFFSAkiYUVICSJhBeDvv/9Wf/31l/rtt9/Ur7/+GpecpxzlI8Si0Avr999/Vxs3blQfffSRmjJlinrkkUfU4MGD1c0336wuvfRS1b59e3XhhReqDh066H+F/N2pUyd10003qdtuu01fx/UffPCBWrlypfruu++06AorCqWwvv32WzV//nwthi6dO6tq1aurIkWK7DXut99+6swzz1R9+vRRTz31lPr444/V999/bz9GVqPQCOuPP/5QX3zxhRo9erRq1KiRTwzxuO+++3r/L1asmKpRo0bM+X322cd3TRCbNm2qRo0apRYtWqRbyWxH1guLcdDcuXNVz549fZWdSCAiquOOO0698MILatWqVWrTpk1q2bJlasSIEXGvNcUYxG7duqlZs2apn3/+2X7crEHWCovxDV3Qtdde66vYXr16qalTp6rp06ere++9VxUtWlQfpwuTMiIWWqjPPvvMvr3atWuXFpt9b1NUQ4feqV566SU1fvx4df755/vKdunSRX344YdZOfjPSmFt3rxZ3Xnnnb6KhIjB7ooQzhlnnKHP263PtGnTdJl//vlHzZkzRz300ENq6dKl+hit4VVXXeWVlWsPPfRQ3UoiPgHjukGDBgV+xt133602btrklc0GZJWwqMj3339fnX766b7KhuPGjfPKbtmyRX355Zfqzz//1H/TupmVDWvWrKlFCuj+5Pi5556rfvzxR3385Zdf9l337rvv6nOI8auvvlJff/21/vuXX35RAwYMCHy2unXr6u4xW1qvrBHWDz/8oB588EGvouxxTtWq1dSGDRt12cWLF6sTTzxRH3/ssce0IOk6e/fuHXPNOeec4wlo4cKF3vGTTjpJmxPA7NmzY6658squeqIAXn31NX3s5JNP1p8JGKcdeOCBMdeYAqNFzIaxV1YIi1ale/fugRUlvOCCC3SLAe677z7vOCJBlIAZo3kNg3Zpbahs7FUcx14lmDx5csw1I0bcp4/T3bZt29Y7TtcMeAaexX4+85lvvPFGtW3bNu8zwojQC4sWoFWrVr6KstmyZUuvJZgxY4Z3nNkdXRa4//77fdcx+BZgbUfEUh7xXH/99THlhw0bpltAOGrUbqEytgMIq02bNr7PsYlxdt26dd5nhw2hFtby5ctVw4YNdUXYXZ/NChWOVmvXrtXX0e0xnnnyySc9wyWiw5puX3fwwQfrQbs5EAd0d08//bSvfLt27TwB011iu8IQ+9NPP+lj5lgtHqX1atasmbbihxGhFdb69etV48aNdQUkEpVw+PDhaufOnfatNJj92eXN+3Ltjh07dNmv1q6NMWPYXa/ZVZqCRIwDBw70fU4Q5bMR14YNG7x7hAWhFBYtwZVXXumrjNq1a6ucnBxf5ZhkfIWRU7B12zY1adIkz4Zli0T+Ll26tDfeMmeQZnnz/xMnPqm2bt3qfQ6zwyATiPmMhx9eVn8HuwzfNWwuodAJi3HNHXfcEfPicRpji8KEQEv2/PPPq8qVK8dUnFnpXC/jpCeeeCKwkm0yyBehfP75577zQfeYMGGCLs/YDGe2HJdnkbIlSpVSL7zwohYf34Hu0pxgQGxdYXJqh05YzzzzTMwLZ5wT9MKZ3jdo0CCmIqVVuuWWWzxhMf6xK9ykVP6RRx6pvvnmG32NKawgMcoxERa2sss7d45bnogIG3ShL774Yky5119/3S7mLEIlLCISzBeN3UlsRsygMBe8/fbbnmjM2Z9UaOvWrdWCBQu8ey5ZskR17drVV9nmNQzqsaSLMZUWaPr0N3UrxnlTkHLNWWedpWbPnqPL8zx0twcWKxZTBj7wwAPesyCwu+66S839V2h83q233uqVLVOmjFq9erVX3mWERlh0QwxkzYqksgCulc7/tghQWgBMA2Y0AmYJYq9sYAJg9iblzM9o0aJFzJjMbB1pucqVK+e7hoG9tG4mEDRjNfNz5s2bp88xYzWPr12ba2qYM2duzPF+/fp5PyaXEQph5dqEcivebB1ee+01fZ6pfJPGTbzj4lLZvv071aDBab7jVAzXPv74496AnBlf23btYioRzpgx03sO3EUE9tESCmxBYtbAVST3nDxlir5OXDW2QfXTTz/Vx/E/msdXrlylj3+xeLHvmeR7uIxQCIvxkv1yIVEDAl52xYoVddchdiRagaOOOkqXPeGEE9SWLbmtyJtvvund44orrvAs8raBtFKlSnoyANasWeMdr1Chgtci2S6dPn1u1iKi+7vnnnu842+99ZYuT4tZpUpV7/i77+SKhFZ34K25pojHxo3zhEjXLmXlR0XXLK4mV+G8sBhnMNg2X6yQ8ZL47AARBGbkgjnQx5AqZU3DJg7leC4dulHpBk3DJvYzmf5jPDWvEdcNz9Gy5W6PgAzkt2/frurVq+cdv/322z0R8YMwHeMIPijsB86cubsldRHOC4uoT/ulmmSwa4oLMA6iBStRokRMWSz1AD8cXRoD7E8++UQfw3B63XXX+e4vsVjcEzMGce6ISYD13iz/v/9d4Y2BpLW5oHVrteHfsd2q1avVQcWLx1zD7M8O5aF7t7tZKD8uWlomEa7CaWHRnYhR0W6tTDZp0kQtX7FCX0OLQCsg58wZGBUllnAqX9wsAIHZ94Xcy7TWm//ns4L8lMxeBXSlpkOZaAopZ34nRI0NCzBTNR3Y8b57UACiK3BaWLgyGOfYLzSIMgg2Z1dBFcLA24x5QrxUZPPmzeNeQzdmihAwSxVTgFwj/9LtLlmSGwwooHtjnGXf2/w8xnGAbs4uF0TChFyF08IK8t8FEUexOGsZo5QvX95XxqxAWg2xdb366qvecdt4aV6DOYMWCqxYsUKddlrubNMWotyjdOnDPYMmQr7XiJE3P8f8P5Z3MHPWrMBnsEmUhKuxW84Ki1844yD7ZQaRWZpUCr/6smXL+spAqaT+/ft7rZbZNQVRrqlWrZrXVdEF2eeDiFsGMD67rmfu+M0sL6Li+ceMGeNNCAgF6t17dzhOvM844IADdFkX4aywmI1RmfbLDGKpUqW8F4ywsFDbZUwSSCeGTmxZcrx+/fp6Btq3bz8d9ckxqVSs7EEuHWH16seodm3bq9Mb7l5a9uCDo3V5PsuO2xLGW6zBNRKBmheZILgIZ4VlT+MTkcoGCLJs2SP0sXi/9O7Xdvem9CKshx4ao4XD4J5ukvsMGLDbnZKXsMaPn6DLY4tihip2MiYLQLdYvXr5ngNKAKDcd/LkKV4ItTl5iUdaXBfhrLAYMNsvMS9OmpRbQVTiyJEjfedNMlWX2R1dECYLacGY9ou5ACPk1Vdfra+JJyxMBQKEJbNOzB0yuObeLDmznwNiHwOM2+RY8+YtvEgKfJT2NSZx8QQ54TMNJ4XF+Efiy5MlXZe4UhAHg3LCke1ykJUyUhmsLRQjKA7eiy66SC/pkuA6/I5cg+XeFlbjxk28cRF+wOYtWqghQ4ZqVw6tzZo1uc/DZwUtmC1RopRavTp3Jmg6zP9z8H88nya+RPs6k+SREM+BS3BSWPzyL7nkEt9LjEcZBCMK02GMRR0zxCuvvKJzKNC6IBTTQWyaHkyXjrRECIyQmVq1avnisUgcsuufXbpla3xmbjQrfOONN7x7AgyZpl3KpPgieVbi7089tX7M9UQ/2NeYJDRIZqsuwUlh8ZLJdWC/xLwo4iLmnMHwnnQP7733nr7HYYcd5nVR4iMkstMWFu4WPocfQteu3bxnWWHFqWN2sJ9XeHHHjp4waOVMHyCtoF3eJhMcF0OXnRQW3YusTM4PTZsQYw8qlKgBXjwtGcZTRMH4h5AbiDFS1vwBukMxXQCJRqCrFWGJuaFiTo7npKbrYkEs6ZAECxYujHFE25MJeV66SZ5BbGsYY3n2KlWq+L6XTQzIskjEJTgprG1bt6q6der4XmIytCsPVq9eXa9qJvrBPickSsEGrZWsqq5Tp45PWLBf//6eE9sE470SJUvm+VxQRFOnTl3P52la3vMSFXQ1+M9JYdE1nHLKKb6XmGqKk1rcLzip5Vw8YUEWO8jEgVYHU8l5552nz8UTlE2ERXQGoCW1z8fjQQcd5OQSMSeFFc8hnGqy+gbgNGbAzrHdLcpuYQXFvBOiA+jGJCwmUWtjkhmmLC979tlnfefjkecUUbsE54TFWIWcCby0ZH/te4sSQoOwSNJhnosnLCEhNWDHjh9U48a7W7pEFPERdi1mg6CFsPHIaiQXV0w7JSxmWEOGDIl54emkuFYQ0PHHHx9zDjtWXsJikA8YJzU03Dp50fyO77zzjr6erlTeQTKMzA1JIJGVOdWUvFfMSm27U6IWS4RBi1X/1Pq+83nRtFsxXjriiFyXVDIk6sIOEnQBzgiLgatYytPdBQpJVWQ+z9IlS7WIsGkx8xI3UF7Cwh1Ei5OTU0nbw8wyRF0wJjq+Zk3VoH591aNnj5g1hYyxrrnmGl022XcwdOhQz0zhEpwQFv41yW2V7AtNBTt27OjZpWxgUpCWwZ4Vwocfftgru3Pnn3r1D2IktJryy5Yt1+YLBtqbN2/SXaY4wsGmTRu9CIj8DANkCZxrcEJYQRWVbpqDaAbP2LXID8rSrbFjx2p3ke0rNFmu3JHqo49yZ5X5AS0jSUQI2eE++f1hmQZZl5BxYTETkpXI+X2pe5t5tRTETcUbY8l1zNAmTJyoU26vXbdOW/BXr1mjQ58RAELFqYzjGzHhGyQfvNwnv9+frIRBC2NdQMaFlZcfzSXi0smrxbJFmVPpv+roihV1Bhm7bEEpAjSjNFxDRoXFOEQSp+X315puJhJWJuhq9CjImLAYsEtIiOuigonMDekmizlczlOaMWEFpb92ma4JS1ZWu4qMCAt/2mWXXaZfUBhaK+iSsGrVru3ln3cVGRHWlICk+67TJWGxAMR1pF1YhOlKduKwtFbQFWHhG5T1jS4j7cKiG5Tl7GFissKyfyz23wXlc889Z79SJ5F2YbF4QZJ22LYfl5mMsOT7sEkTu0+wkJa/CyouuZ572pl1XEXahQXiJVJzmckIC7K4gRkvfkWs7CWN8OSCEot9WJARYQFS/Uj4rs3999/fdyzTTFZYpjOa1jnZ/BPxKK0VDnLXs/iZyJiwAM06MVjsV8M6Pv6Nl8Eu00xWWGZuLGCm+y4IJdVkWJBRYQUhP2G56SShymLpjicsYq3spVh2rvY9IbuzRjtTFBB26kVXaAorXphPp06X+NI3zslncpMgSjx9mBAJK0kiLOkK4wkrKPMLuRlKlsydHe4pSRgSNkTCSpJ5rSsUyvhK9isERJ4WxG5HNximQbvAOWFNnDjR93JdYCJhsRxeMsQgJvk/8VJ9+/b1lU+WZN0J4z7Rzgkr2bxYBTU65peJhEXqI4mJZ/GFLK4AmCDs8smSWWUY4ZywZFd4WoCqVasGUl56OsWVSFjmAHvqtGkxu2ZgRrHLJ0sz41+Y4Jyw+NWTHYbVMkEka0yy2ZT3JhMJS9IesRSL7svcE1HSI+0J+aGFEc4JKxkwbjF3+0oH8xIW0RqyPJ5VyZRlfaCsQ2RxhX2/ZBmmPQpNOCcsWiwqEGKZxy5kkvOsWJZY+XQxL2GZbhyJjG15fksvBzu5FZLdCMGm7HAWNjgnLFw8rCBm8QLJ19jy9sIOHXSrQL5NfGZSSa6MsUw3jmRhZmmWxE1hNZeN0fPLqCvcSyDbnv1yg5hOUcF4wjKzKdOiYn2XczLuoksMSm6bDFl/GEY4J6x058aSfaIT8eijj/YERMJcOd6rV29vqby59Rw0TQ6SQsBkMp9N+skwwjlh2d1MOshqZHazJ7MyxJaGEIYPH65zwJPEf+DAgd5urORgIPFHnz59tGlBYO+eapocxIwilBa3Tdu2uvuUzxZiKL5r2DA9AxYrfpjgnLAKMoPaU2JnsiE7VAiZiYr5QM5xTFYi02ohNPO+bJ8i5+fHyYD8+aJFMZ9rQj47jHBOWOQ4sF9+qomdqaBg5ifpJYUEMoqfjywzZa28V926dQvFxuF7AueElZ/8m3uLXbp00eJifIe5AHF/MG+ezl3FjG/+/AU6oQfHOQ+JyWJjqPXr12mzSNAYinGZxGdRplGj2Ex/5jIuss6Qn4vxGxuN092SbFd8jmGDU8JKZlOivc2iRYv6jiVL4tmrVKmcZ4ZnSTNEy0R2ZfMcGwQIzEzJhxxyiJfVj802Iyd0AcELzE/+TdcYZAJhTx/Aj4aJgBxnu2FZccPOFmwcZV8LL774Yl/wYBjglLB4+eZODtnA0aNz9ywEZti1GQ6DJ8G+TlixYo6TWZETwSlhAXvKHnZ2797d8xmSHVCOmxZ1csTb15k0u8ywwDlhMSC2X2yYSboh2XGCjMhyXHaERXSJViaF0frunLCw+xBywgsN00rpeCxevLgnIrIi16/fQI+nJCiQMKBjjz3Wd53JQYMGhW4A75ywAPFYe7L7l6uUlNuygJW4fgHrBe3yNs2BfljgpLAANpx4K6XDRtOyz6acpOgGZh6LoBmlSTwSYYKzwgKs48MJuzdar4LYqwrKYcOGea4ZQmjE2o5T296zJx7FbBEWOC0sAVGZOKfZHX7q1KmaBMCxyhhLPdN4k+JIxrINsQXZFZVOmhGmJsxZYiLiEA+T3zAUwiooHh071ldR6aTp2hHgyL7P2IM6EUlhRG6xsKBQCIvpul1R6aadLIQWrEP79r5y8cgMWWaXYUChEBYOZLui0k3Zdk5AC1a+fHlfubwYpoUVhUJYbJZk78SVbo4ZMybmmYgutcskojkJcB2FQlhYvmUTpEyxX79+MduTPProo74yidiqVavQjLMKhbCY3stGUJkiG2vKzJBo0z1dXCGbdbqOQiEsO2QlE2QTTNkUnPFVTk6Or0wyDMuS+0IhLMBiCbuS0s0bbrhBJ6jt0aOH71yyJK7e1R2/TBQaYWV6+zp7qZf9d7KsV6+e05szCQqNsNiM0q6ksNLcu9pVFBph2ev6wswwLGItFMIimkAqJVEUQRh4+eWX6zh5l5H1wmIhAuHBVEg2iAqWKVNG7zftMrJeWNkWQy8k0sNlZLWwsBtVqFBBV0S2tFZC7HIuu3eyVlhEZw4dOlRXQraJCpLim+zMriJrhZXudEiZILuouYqsFBYrYMQXl42tlZD1iK4iK4W1JyEpYSS55V3NVpN1wmKxAmG8vPhsbq0gExNXl99nnbDMrC2FgTNnzrRfgRPIKmGx0LVWrVq+l5/NHDx4sJNmh6wRFqteRo4cqV92tneBJsnmLEl3XULWCCuvVEDZTlnC7xKyQlgEviW7VD0bOWrUKPuVZBxZIaxMpPB2ic2aNXNuz+jQCwtjaO/evfULLoytlZC1ky4h9MIqLMbQRLTXLWYaoRYWzX+bNm30iy3MrRVs2rSplznQBYRaWFFrFUuXZoehFhYhx9WqVVOVK1dWNWrU8JEUjNWrV1fHHHOM7xzkHKScfc4l1qxZ0/suQSSbzdlnn603HXAFoRYWRlH2BMTiTi5Pm+zqwDnI/5M95yLN57XJlsbkEHMJoRZWBHcRCStCShAJK0JKEAkrQkoQCStCShAJK0JKEAkrQkoQCStCShAJK0JKEAkrQkoQCStCShAJK0JKEAkrQkoQCStCShAJK0JKEAkrQkoQCStCShAJK0JKEAkrQkoQCStCSvB/96M3GGphe9AAAAAASUVORK5CYII=;" vertex="1" parent="1">
          <mxGeometry x="155" y="53" width="150" height="150" as="geometry" />
        </mxCell>
        <mxCell id="IYTjecegJelCjJGWe3SY-20" value="" style="shape=image;verticalLabelPosition=bottom;labelBackgroundColor=default;verticalAlign=top;aspect=fixed;imageAspect=0;image=data:image/png,iVBORw0KGgoAAAANSUhEUgAAAJYAAACWCAYAAAA8AXHiAAAAAXNSR0IArs4c6QAAAARnQU1BAACxjwv8YQUAAAAJcEhZcwAADsMAAA7DAcdvqGQAAABmZVhJZklJKgAIAAAAAQBphwQAAQAAABoAAAAAAAAAAwAAkAcABAAAADAyMzABoAMAAQAAAAEAAAAFoAQAAQAAAEQAAAAAAAAAAgABAAIABAAAAFI5OAACAAcABAAAADAxMDAAAAAAIvvHMbnUA7gAACSfSURBVHhe7V0HlBRF190AIkkwIEmSkoMKsuRFJCpLFJYlgyQVBMk5KEkEFMnJAAYQTCQVEDCAGZWkSFYRFBBFBST6/nOr5nVXV/fMDro1s59/33PumZnqmg7Vtyu8evU6hnz4MIAYPcGHj7SALywfRuALy4cR+MLyYQS+sHwYgS8sH0bgC8uHEfjC8mEEvrB8GIEvLB9G4AvLhxH4wvJhBL6wfBiBLywfRuALy4cR+MLyYQS+sHwYgS8sH0bgC8uHEfjC8mEEvrB8GIEvLB9G4AvLhxH4wvJhBL6wfBiBLywfRhBVYZ0+fZqOHDlKe/fupW+//TbNuXv3bjpy5AhdvHhRP7QPw4iKsI4ePUrz58+nhg0bUkxMjHE++GBP2rx5C12+fFk/FR+GEHFhbdnyIRUpUsR18yPBJ598ks6e/Us/JR8GEFFhbd6yxbrJcXFxrhtvirGxsdb3MWMeob/+8sVlGhET1o8//kh58uYVNzeSolIZFxcvPsdPmEDnz5/XT9FHGiJiwpo6dWrg5kZHVMzYWHn8adOm0aVLl/TT9JFGiIiwvv/+e9cNTg+cO3eu36E3hIgI67XXXhM3Uu3rpBfOmTOHLly4oJ+yj3+JiAhrwoQJrhuanjhixAg6cOAAnfr9d/rjjz/o999/p99++41+/fXXqBPnwTx16hSdOvW7OD8mzln9LdJOnbL+c/rMGfr777/1W2IcxoWFfszDDz/supnphWqfr0rVqlS7Th26s1YtqlS5Ct16660R5W233UblK1SQLF+e7rjjDqpYsSIlJCRQQqVKVLVqNUpMrCnOr+add1JiTbAm3XlnLap1111WetVq1cX5V0yoRI0aNaLBgwfTypUr6cSJE/rtMQbjwoLV+8GePV03NLLEaJDpbo7TYxNtgmXKlqV33nlHv0VGYFxYssbq67rIyFIVFYhaKhSRB/nxnf+r5+F8KoNtx3ech7o/r21e+9P/x+eCdM6nX6+bas38+uuv67cpzWFcWBh1DRg40HWhkSXfGL7h6k3idL6R6k33or7vcMj/w6cqLHWbl5D1NPXc9GOkTrVm/uabb/RblaYwLixg1KhRrov0GVmyqPhzyJChRk0tERHWo48+6rpQlaNGjaYZM2YKo+UTTzzxr/j444/TuHHj6JFHHqHRo0fT8BEjaNjw4WLkN2LkSBo5ciSNGj1abhs+nAYNGiRq1EGDB9OQIUMEhw4dJv4zbNgwwaFDh9KQoUNp6LBh4j+g2B4gjoF98zFAzgfiN46Hc3rk0UcFMbWE8xDnM2qU2DZ23DgaN248jRs/nsaPHy9G01OmTHFd45VwwYKFYo5UL3MQXiWmEHVhlS1bVgyLo4loDMcjiZ9//plilGaQa62lS5fqWdMMURcWhtUsLBQAePzEcfrll1+ETebPP/8UtiWVSGP+EaCaphI+X2fOnKEzZ8/S2b/+EhPQ4Fn8PntWfD937hydO39ezB+ev3BBfCIN+Tmflf/cOfEf7A/7xf5V/ikoj6tTP7fU6Ngn0nhfZ86IY3A+tUy4LKTN65QoV7gpZcmazVX2aCFMIerCgu0GwoL1u02bNiItb/58dFOBAmIb7DgQH74LO0/58lQxIYEqV6lCVatVo2rVqlHVqlWFDUp8VqlClStXFr+r16hONRIT6a7ataluvXrUMCmJGjVuTI2bNBFs0rQptWjZklqlpFBK69bUtl07at+hA7Vr3178bn7vvdS4SePAfxpTs+bNKLlVK7q3RQvx/3saNqR69euLfTPr1K1LderUEfYw/o7jw84EG1P1GjUc54zrqFS5srRVJSSIa+PrQz6cP2xV+G+tWrXEPus3aCD2h33J/VQR35EvsWYi1axZk6697npauHChKH88pMWLl3CV/VNPPaXfqjRD1IWVO09e+vnYMZEP/R2klStXjpo0aULt2raj+3v0EAbWgQMHCUNfv379qFvXbpSSkkJJSUlUp3ZtapSURM2bN6fk5GRKTm5FLVq0oObNmlOzZs2odUpr6tSpE3Xp0oU6duxILVu2FPuuXbu2OE7BggWpUKFCVKJECSpWrDjlz5+fcuS8jq6++hrKlu1aypotJ2XPnpOyZr2Grs6UxXX+wXjVVZkob568VKxYMdHcw9gJoeOmg/fcc484l/bt21Pn+zpT165dBXt07049e/akXr16ic9u3eS1wtCJ/+FBq1SpkviO62/atCk1btyY7qpVSzx0uJ5rr71OnMMzzzwjyvXkyZNUunQZ1zn+p4UF/vjjEZHv+PHjgqjB0NygFoMdTO0D4TuMrufOnRdNE5oGR5MWIDd5+I79XLhwUXzyNvwPx0GhgzyFgu94wmGl9uKxY8fo6JEjdPjwD2Jy/dChQ3Tw4EGL3333HR0+fFhcB/bD+0azpDbnaEZxLmh2cV64JiaumYnfyINz5iaOuwh83eo2HA/niePjOEAwYaFzbwrpQlg//PCD/hdRqCwEFgcXto8rw/HjJyhvwBdOJUadppAuhIUnHDaVJ558UjSHvXv3ppYtk+n+Bx6kZcuW09atW2nF6ytoxPCR1Lt3H2GDwfAc+0XhTJo0iSZPniyIp3DGjBk0Z+5cMdR+7rnn6Omnnxa/0TTgN7ho0WJavPh5Wrx4MS1atMhKB5H26quv0urVq2nt2rW0Zs0aev2NFfTCiy868ukU+9H2lRqlOWCaZSLBJ0wm8F+bFDCd4DphfpgyZSo9Oe0pmj59Bs2ePYfmzp1H02fMoPETJtKjY8fS2HHj6fHJU8V1rVnzJm3YuJE++GAzzZs7zypr6Y8mrfAweZhCuhAWvEsB9Cnw+46EKjR/wQL6/nu7Jlv71lq6vVxF1399utmzZ2/RFKK7gGYSD+706dPFoEDNN/q/LqwfDh8W+WBERE3CfQNgz969NHjIECtvXMYsFJshM8XEXkUxMRkDVKdreAokg0KesrmSqRDkxf/U/YD61IpKez7OJtJwjjjfYNT3rf5Wzxnf9WvLSDGxmSgmPjPFxF0tjleg8C301PTp9OWXX4r+GAN9vTfeeIPKlL1d7G/0mDHWtrRGuhAWOrzAzz/L0SGAAsFkqTMvCwnUb7hS0A7yjWNxqTfJfS7O7aqwdHFkoFghbi8xhWZsLASQKUD1AdHJx9bnC1l0fH6cN55iY/FpH6t69UTR1H7zzW6rbI8e/YkGDxn636+xsLiUgY76ihUrhM2Gt8uZeS7E1GonvvHqDdJFBeq/OS3UvuX+pKDs/yW3SqFZs2bT2rXr6MuvvqJ9+/aJ0SKcB3ft+prefe890fd6uG8/yp7zRsd/pch0QQUTFl+/WpOpNSb/Ri3GZWAf64knnhRNpCjn8+dFa2AKURMWu3Fg0So7oKFJ5H6WLHT15qtPrNcTbN94VQz6EwxmzOgscEkWlS4mfV/2/jCnt237dmGhDweXL/8trODr1q2nIUOHKcfm2i+YsNRr5etXBaU+DPwAcnlc5SgDOP999PHH+qmlOaImLDBzlqziqQbQgYfVHOnulTxxFBfnrCVCMT4ehW9/gj179aT169fTxIkTXfkl1RukCzaD4/jo8+3Zs8dxjTCHQDS7du2iL774Uqyh/Oijj2nbtm307bd7xJBfX+qP9KHDhivnnVmpbd3CDi40fbsqLDS3+IxzlMdbb7/tOJe0RlSExTURhtsAbkq//v0DhcsXrz6N8om79dbbRAd/zJgxNHr0GBo5apS4MZLDhAcCLNrqsZq3uJc2b9lM5y/IdYTHjh2n+Iw5A9v1J12nvHEZMuDmIH88rVu/3mFL++mnn2jVqlXUvXsPionVxWqzcOEi1L17d3r+hReshwmAwXfLli3CnRj54kQHXK+xUqNW06H2s5hJ0uoX2uJCbAtTiIqwmGxm+OSTT1zbnDWHrME++OADfdcuwObE+1iwcKGYlFWxY8dO7RhetJuZDBmkqO+++x5HX/Dw4R9p2rSnKFPm8Kd5VMJdZufOndb+0PfBwyK3x1JsbLjC0ptPTVhxmSSVppYX7sJmaMonK2rCQqAOfvJ5u228U2sMeWNB1A6ANTUSmNn/9dffxPQJbhTmzXBj1H4E7DjzFy6k3n36UIECBYIciwVlnyOLqkPHjsLrAkBzhtHqVZnRbNl5McE9c+Ys0YH/9LPPaNv2HfTVtm3ioVm9eg1NnjxFTBzr5QCzAHt3YN/z5y9Qtusi8qKHsHRxufpv8kEF9++3a8+0RNSEhcWiAARRpkw5pSD1my2frti4jJaw4IiHTmhleDAkJlKFO+6gwoULW/ve9fXX1rHxvVCRmx3HtkeZOm1hcZMMT4dfTp4U+/rjjz9d19J/wED67LPPhUtLaoAJ5ZNPPxVOheo+GjduQrsDtSGaRljU5XlCBFxjc1nowgpGD7FZRJOIzxh621BfK2rCevPNN8U2u2nCTVUL0SmsLFlz0E8/yVqDF2d06dpNuJ6o+/1YqalgHytTRk6+qh1X+3j6sUC7D5iQUIkOB5priEJdFFKocBHauHGTo78FK/d3331PX3zxBW3ctIne2bCBPv30Mzp48JCYMGag+UGnvn37Do5zQu0GYML8kUdkmcXHcw2TtsKSfa4YMX1lAlET1ubNm8W29957P5Cm32Dnzc51Y17LgAoXGiwpwzAfo7NMAXeWlatWWcdE/w2uJUjPkjWr6/jex3Q2hZ9//rnYF0ShLgiB39ahgFEXQDO5/JVXhP+W+xiS997bghYtXmwZgwF4WMyZM9eR77PPPhPb0DwmJTUSabLDjfPTxZMadUG5hfXCCy9Y55OWiJqwMN0A2J1t9alUO+1SWLnz5LeENWzYCGFNZqBfAwMk48DBg1S7Tl16qHdvevfd96hRI/S73DfbXWvZpo5Zs2db+5s5a5b1H/QNMTUCoE+0YsVKK4pOm7Zt6cWXXqL7unTxOJZN+KCzoRLAPnhb7jz5hHEVQM1n/+9KaiuQy1AXGG+XwvrPNYU81F2yZEkgjUWlFo59w6+/IbfVgcYsP9LeessuFB7dfLtnD91StJjog6Hfg5vfvHmwmkQVll1b3XZ7eWF3AlCzcnrnzvdZHW0MHLAogre9+uprVtytb3bv9jiW0+Bbo0Yibd++3Tp/1Hi8rWfPXnT+vIwnMXXqEyItLk4XTmpUH1T81oUFxtBXX31lnUNaIkLCGusqZG4SUBXLNC9hca0VQ1my57Q675ia4P3ArYVx4MBBKllK9qnq1W8gfMPhJNeqVYrr+JKqsDBAkDf+hRdeFPuD4xxcj5GGPhV7W2Ak2kcJG7Bp0ybrHCBk1ALuY9lU+3vcr0KnXb0ufmgwouV+prt8QlGtifVtoLxWUyt1IiQsZ411/fXXC09MAO6xMt1LWPZNz5DxaktYYwIdWyaaVQSxveceO6ZpzTtrCa9KLI5o07adI38o5s2X3zqOWousWr1apKEmgWGW0xMSKopaDMeCGQI+8/o+vajOLnC3AGYTPBBIq1K1uvgty2i6SJN9LV0gwZiasOSxUW4mEBVhVa9e3VpBYkei0YXl7GPlyHm91RTC3KDur8jNt4jmS03DIgTULBcuXqSOHTs5toUinOsAjAIRbANprVq3EatygFcCYlObtft7dKcmjZs49hMsHoRXeuXKVaz50g0bNlrpb6xYIdJgmLXz6wIJxtSFlSOHXaZpjagIC6Md+Hyj+u8fmMpxCksVlbwR+fIVsGq5wUOksHLlu4lirsIUiPsGohMMcVy8dJG6dA3dmVb50UcfiWMgyjKnrV8vA2lgpBmfAf0UO7/arLnnOJ3kvDUSa1LbQC0aG9gGwyiAmu/uQM0LL1r029C8du3WLbAf7EOvuThNpSosr/wxVLJkaWMRaKIiLHSC2Ye9R4/7A+mhhZU3301WhxqjQ/gU4fPI0aPC1oSb/v0PcoHD/n37xWSwdYwH+Bihmf+mAnQsMFqb+NhjIu2228qLxQgAXH6Rhr5Yjwd6UKXKTo/MUIyPl7UE3IjRxF28eImWvvyytf3G3Hnop0Dt8fzz3O+0XYpeeokHOVw2qkhUEQWjKkD8jqG6desJIZtAVISF5VyordCxbteO+z9ehaXZlbZu1XedKvDEYy2gup9g7N6jhxAi7Et168lOO0Z+AGpYWMiRxqGA3lTmJUMxQwZZQwwYOMhhKN2+fYcjH6Z+AATs4LSVK6Vtbtu27UpetQbSBeRF9YFlxlCzZs0d55OWiIqwBg8eItLxtNSpUzeQHlxY3C9BQDIsMpg1a5aDs2fPFiEf582bT88++xwtWbJUuODCRvZYoOYJh5hUBmAp5zS+2XCKw2+sW8RqaGD58uWufejk+cY+ffs6XK4Ria9Xr4cceREnQmw79TtVrSq9HXC9AGYdsmbLEcirikUXkU5VhCpjxNpFU6ueoiIsBLoA0AdCR16mqxftrrFS67+Eoj6do/9mLl/+ijgvzP1xGmoKYP0774jfeKMGALtZ//4DXPtQyaJ6oGdPISQGasS+/WTfkvOAWHGNGgT7vv/+B0Ra3759xX/wEGJFtcyriycUvYQlyxLBTkzFrYiKsHgFLqzPRawJYlyseuFOYf0TqmJEGMUJEydS27ZtXduYsOADmOfjNPTZgKeffkb8fi0QtAwPBZbG6/vg2pUFk5ySQseVDvJff50TPmXYpgu8VOnSYlIeGD1allmP+++ni5cuiW6DPbeoiycYdUEx5QAEMwCmEBVhYY0fABuKne4lLPs/6pOdGnHDWDiZs10jmkaehoHNCc2Z/h8QtRKw5s03rTT2GZs+Y6b4DQ9UNGlwzsPvsuXKCW8EuCnzf/hcMa2EQQYDgwmYM7DNS9g33JjHNbtwX7fuwmQiBzo9Anl1AYWiV40lzw9dB1OIirDYso2bZqezsNzNIPPJadPE5C9qEZWwTkOkMEfAK5XzDxw0yKpxGJcuXxaLXvV9g/AOBVTLOfYNPLdosZWGQLR58uQR35e/8qq1b1WQWbJfQ3v22FZtCGPGTCnO2CCepndUrEi/BqaMHpskBdjroYdE0wiTA+I4yLw8Y4BP/h6KuqhkjQWbnClERVhYZQwg1oGdzk8XC8td8Fx7BAOai8cfnyzyQmA83wZgCgnWcwQ70/fLXLVKWtfVd/7wnCYWQOj5wcXPP28dA3j/gw8oW7Yc9OmnnzrS8TDp/9WJyXIepfXvL70pBgwYKH6ro1JbUPzfcMSljghljYXBjSlERVh4oQAAW5OdrhaCu7YqUrQ4nTgh+x/PPbeIJj42iabPnClGhZOnTBXR9BC9BXm55gFgblBrMaaXBRxL8YGvv/7aSnv//fdFmmoCUAmvC1yHCjbkMtzrI72J6IAA3lDGE+cIOwDAkFm0aLFAXve5u4UUilJYaM5NISrC4k4yZvftdPWp0wsthoqWKEUnAh3bhx7q7drORDxzBm6GOnKLC0wyByOvDEYHukTJkiIN/ScAnXXEqFLzcz8pb96CtHXrF9ZxVWCCmvN7iVlNh/sMgOaet73++hsiDZPF+v+c1MWTGs15NgBREdaHH34o0uHtaaeHFlaJ0mXpl1+kBRxDcKTBzRfvP+Q8S5e+bB0TzSbbyBDETd+fF5Ma2VNNiMOFtBYtWlrN09x50mVYFYg6svvwQzkdxMDCVd4WTFQquT+4WjG88oILeHHo+W2G0xQ6RQXi/EwhKsLi/seGDRuCFI5ecDFUvFRZOhEQFgx7bBEHMLp5bNIkyycLNwiR9Dp06iQ8MlmI4ZB9zxFphtO2fiFro/0HDrjyg7zqBUTTifPAK4nhNSq3e18TyILj2vKymD+VtWy9evWtKRe9DCXDFZS7fwWq3qxpjagIa2egT4IFpN6FpBdgjAh0wfN4w4YNp6xZs1siQJ+EvQ9gNb+9fAW6IVcuOhkwMXDtE4p8g2GvAuA6k/Pa60Ua+j5sSJwWcPPRbVCquLp27UaVq0hf/HDNJLt3y2vZv3+/lcbNMGrqsmV5wYnKKxEWj7jleebKZTtOmkBUhMXOZbB0exeQu9nIqRQE+0OVr3CHY/Enmr8GDaQ/E+J38hRKOMJiVq+RSL/9Jl16EIOK07G6GcAAolYtuYxLr4n4XYhMfbtOFieHdAR48hvcu1c2VevWrQvsXy0XvcxC0S2sggULOdyj0xpRFRZWiHgXkltY2a+7wZr9R+x0TseCCTR98BjAUi1Ox3J9DuETrrD4xiFoGYDm7Mbc+UQaFlBgKgbYsdNe9KrXXOGS/4cV4OzSjLWQvB1mEwDbeLbASb3MQlEVlqxBMcI05TIDREVYvMIFw3uZpheEW1g35MlnBcHFcnp1W2JiIjVrJofnXEsg6jDPz4UrLCa8ONkREaMyTp89Z451TYgyeO11uUR6OB1zplqL9enzsOVDj9oWwWmRnvO6XJbNjvuh7mP8O2HhTWIm4+tHXFi5c+e17Dz2GxP0gtALMYYK3VzU8seCd4S+3Yu/XEEfi8k3/tlnnxX/xTSM6rEKXynub2E1DVbtqP93C8CbqK15tImaw3YfihGjQgA3HmG99f9KXomwWFz8XS6SxQjYFCIurAIFCllVsNMtWaX75hQvVcYyNxw8dIj27tsnPrHUa/+Bg+L319/sph07dwn7GHydEGvL6aV6ZcRiWgDHVVf6oAPPNwXWfpg8wnknY8lSpcQ8KRwSGZiKQkhuzgNjL49uZwamgLyb2ysRFvet8F3WWCZ9sYCIC6tw4ZstYY0dq67eUQtCL0TJfzI8li4o4XmQMrnWQWx1riXhpdrgbjuSTZcuXR2hjDAXiCkqWP0RsHb8+Aki8AfmN2FfQzwHNvACqAk3btxItweaPxDv0sHDACBYm35ewakLSadbWC2TpduzKURcWGXKlrNcfYMLy11jgbBHwVCIubyPP/lEGFg//OgjYZjEd53oBz3/vHQnvlKymQBWfh5dIv7Vffc5/eexkvlKBH/mzFlRw+lihx2ObzQ+O3XqLNLj44M/aE6GU4PZfSyYREy+CzviwqpStZrVMUb4abtg9EJwFpx3FL7wGW7fRyWLC00pn/Off56mBQvUiDCSw4ePEHGydu7cJXzxkQ++VxiZorn74ssvxYT1vS3kfKZKhMbk5o/7n8EWvXozHFEx5TUNGDDAWAgjIOLCQmC002dOi76P3S/xKpgrF4IXvWxJ4RotZV4p6Hbt2oumjgGvh5Ejvd/DmCvXjVS/wd3C76tmTef8okr4dsGgy4C1H0vO2NkPsR7y5ZPmDnkuwc5bL7vUKGNjmfIeBSIuLHQaeUmTHeMAIuJ+gHP0wrySGgdicuSPjaVZs2eJqRnVABkeEXxNxjm4Jse1wtUE8dMZsMnNmz+fmgVdxu8kYm1hdQ4CtzHQ57QX7soOPIAaBTUlJovxHiBsCy4uea5uEemU5TJ27Djr+CYQcWFhdMXCwsuT7ELBRaPQ3IXAzJwlmwhd1K/fABowYBD1648XWA4RUy54mSQWI+jvjMFLKlVnPwzh8dJt900JxdhA7AT5G0vWsHoZS7gYiHyDJfiYB0WTiLdUwE4Hs8KaNatFfw9NIkaRKlBrICgb7xsLRhDiSAcMwOgXIY/3KFGep1tIKu28cDcyiYgLC0ux+N049jBbLwBvYa1dt048xaEqcPVtolhho69CQQ1ToGBBj5sSDiEw+6YiwjPmO9GnCrdZkRPUR+iVV161XG1QY2HSvGFSI8d7hTDIwQiTp3bgzQqTBY4dvAbXy1AXlvzfvHlyHtIUIi4sLHeHqGBDadKkaSBdbf50UcnP+KuutizvaB74zVr4BLFwFfYrDm6L4T3j5Mlf6eWXlwmvgeIl5Hv7gt+Y1Kn/N0/uvNSvX3/hW//xx58IdxTpLn2UDh36TnTE30Os9+cWidBKmTLLeF2JNe+0QjPBdMFu0ABci2rUqCHywXjKgwcEcgt2HpJ6OerlKbls2TLrWCYQcWHxolCxnOmuUMuZnAWWr0BBEfEY4E4z4oni/Xx4J6Cad8eOHdaxYQrACy/V7V4d+n9K75sb2BYihDj3lR6fLOcEGTC8Iigv58N7D/EJcwTXihhF6vuzqZejLix57WiuTSLiwuJ1cngC8SZU+2Jx4dxHcN+sEqVLWwZGfrfOzUWLUb6bnM2aWlOhprilaFGR/m/NFaaIALgMPAT2Shy3aHnpGYAmEmnuh0QXlCosUDblHKrTFCIuLAxzAXSiK1SoEEhXC9BbWGVuvc0yrPJcIfyx4MeUM/BG0Xfffdc6Jhz8kIZoxqp1O70R/lcArg1uQEjTR36qwBCsBEB3AoMVpMnOvPpgetEpLBiZTSLiwuJ35MEQmC//Ta6CDsabixW3Fn6OGj1GGCQZCAeJ5oHxdsCN940VK0X/CkN8fX/phSgbHmCgFtG3M21xxVlTSfCnql1bTlLLUasupuDC4linphBxYeHFjQDm3vTCC8UMmbPQ0UBANMzDIQ0dWR3sZlKyVGlrKqZ3n9QniKNBFovqq88rivRmEOQRKV5mwPOt6E/a+4OAvAZCqrDkftV+qAlERFi8pBxEAA8AtiW94FIjRn4AbFacplbpMCRyOt7uzo5+ffuG7zYTLb4XWGYG29iECfJ9P3qTCMrw3PJ9PmyoVRdfSHo1iXZtBaqetyYQEWFhlp8vCCtdgH8iLEwCA/B5V9OxSBRzdBzTHayqepD+Q7eZSFCtmdgwihEzxw3zMoZyrK2FgXWQACLl2Nt0YTmbQVB13TGBiAhLrWFgkQacq6DDYGy8FQcB74R2bddYrHRp+i1g+8GEq77dpt08RIs8srvllqK0b5/szMO/3+4/ye1e5HDap0+fUSzzen/LKSwEYjHp7w4YFxZsL2oNw6ugg60sDsbY+IyWsOYvWEjt2negLl27UqfOnUXnHEFlBdu3Fz7iHTp3tl5Vogb/dzP6wgK5ZmratJk1+lVXZOt9LnXhBi9Pg7ni5ltuCaSrtRb/lsdISKhs1C0ZMC4sQK2xeKWy2h8Kl7xKB6MozDUyMfTWiWkjrNEDYOLQ95UeyX0qnC/PKcJxUM/H5M58wYJFrJCSmza9q+Th2grfbWG1aNHCqPcoEBFhqaNCLGUCnG9dCI+INYAaELz8t4zAghvAhKCQBuGxlRpmjYZJdpju9E5u9p5WloTxohOvJjE+Xlr3UXPjutGvxMsT5HY1P9dgMZSS0tryVDWFiAhLrbHg+Qlseld9ssJjocKFxTt00Bl/uG9f6tajO7Vt15Zat2kjPjt26ihC/Tzw4IMiDyLWwUCK/3rdlPROjtaMB2bECDkA8hopgimtW4t8WKJWuzaH3/Rm69Zt/veFhfcgq6tq4D4CvPXWW64LDsV/IwyvkZVk9PtWXlT7U6jZARh64cuGNPV6+DtcpAGYZJw1lZsPPPCg6zXCaQ3jwkL13FdZfsWLVV966SXXBUeOasc2rcRlNzVpQX6QihUvbr2sEl4T2bJf49gO1qlb1xrlIZKPvi+dWPAbrpvPP0VkhKUE5WD33oXKDH7kqQor7cSQurhCbXOTa6PGTZpYlnYsHlHz4KFldxt0yNHM6fvRiWbVNIwLC0BQNL4oXuFrr4KOBlVRXdnNTp2h9hdqmze5T4WHk0dyEBLm+lD7I/AtgBHwM88+K/Km1m1AfFPTiIiwli5dKi6oZMmS1kIB1cfbZlo1S6nRRFNojlxzwU+dy08F7Fc8fxoOscrINCIiLAyBU1Lkq93Y+KfOH9qM5E1mcUXymP+cLC680GnK1Km0bNly8dJNNUAKqBtSvYgwAaYREWEB8PMeOHCgFRYb3/UL9hmaoZq4cATFNBnUlhExYQGws2AxAT67d+/uuuD/XzTRvwuPpl7XqyKiwlLh3RT+f2P4tUxakGs1xG41jagJix3yQlXvPtOOLCoEpOPuiElETViYUujdW4bVDm4ZD5eRffL/16j2v/iVeKYRNWEBsBar0VuuvPZCgYEQJn9Xt+n5gzFUXt6vvv//DaqiWrJkiX4LjCGqwgLgLYngrnqB+Ew7Jicn0yeByf9IIerCYmBxBV4s2adPH2rYsKEIcoaFps2bNxfvRsbS/FatUoQ9DG4f+I5oLogF0bRJM/GJYP/JrVIC+VqLVdedO3cWr2PDPhB3HcE7rLzJrQSRjlXZSY0aU1IS2EiEUuR8+C++I4+Tzaj5vS1EELOWya0kOW/TZmJ/DRsmCTZu0lTuK3DOeG8OFkXUr1+fGjS4W+TBPrFNXG8y2Er8B2mYgG7aTF4nHBnhJoPYF0wE9oWHA4KH4HeHDh1ozJgxtHnzZqMhIYMh3QiLwa/ORU2GAgExlYFAIl7kPF75VF8tbEMseJn3rPiNQB7Ih++nz5wRx7Wp5BP/k/8V+ZRjYp+IM29TyavtT+4L53zWukYmfqvXoVK9RvwX/VP12kCk6dccTaQ7Yfn4b8AXlg8j8IXlwwh8YfkwAl9YPozAF5YPI/CF5cMIfGH5MAJfWD6MwBeWDyPwheXDCHxh+TACX1g+jMAXlg8j8IXlwwh8YfkwAl9YPozAF5YPI/CF5cMIfGH5MAJfWD6MwBeWDyPwheXDCHxh+TACX1g+jMAXlg8j8IXlwwh8YfkwAl9YPozAF5YPI/g/IaNTdamKowIAAAAASUVORK5CYII=;" vertex="1" parent="1">
          <mxGeometry x="425" y="53" width="150" height="150" as="geometry" />
        </mxCell>
        <mxCell id="IYTjecegJelCjJGWe3SY-21" value="" style="shape=image;verticalLabelPosition=bottom;labelBackgroundColor=default;verticalAlign=top;aspect=fixed;imageAspect=0;image=data:image/png,iVBORw0KGgoAAAANSUhEUgAAAJYAAACWCAYAAAA8AXHiAAAAAXNSR0IArs4c6QAAAARnQU1BAACxjwv8YQUAAAAJcEhZcwAADsMAAA7DAcdvqGQAAABmZVhJZklJKgAIAAAAAQBphwQAAQAAABoAAAAAAAAAAwAAkAcABAAAADAyMzABoAMAAQAAAAEAAAAFoAQAAQAAAEQAAAAAAAAAAgABAAIABAAAAFI5OAACAAcABAAAADAxMDAAAAAAIvvHMbnUA7gAACUpSURBVHhe7Z0J/FXTFselgffwKkMo6aE0a05zCZmaBySSMpQUeaToFRkqlPCMTxEaSGYqZXoaUWn2pIkKhUpFKu33+e5712ndfc69/3/977n/f8/5fT7r8/+fffY595x9fmfttddae59DTIQIIeAQtyBChHQgIlaEUBARK0IoiIgVIRRExIoQCiJiRQgFEbEihIKIWBFCQUSsCKEgIlaEUBARK0IoiIgVIRRExIoQCiJiRQgFEbEihIKIWBFCQUSsCKEgIlaEUBARK0IoiIgVIRRExIoQCiJiRQgFEbFygO3bt5t169ebr7/+2sqaNWvM1q1b3Wp/SkTE2k/88ssv5j//+Y+5//77TYsWLcwhhxySII2bNDGDBw+2dbbv2OEe/qfBn5JYmzdvNosXLzaTJ08248aNN+PGjTOvvf6amT9/vvnpp5/c6h4++ugjc+GFF/rIlEwuvvhi8+mnn7qn+VPgT0WsZcuWmQcffNDUqVPHRwKRKlWqmGHDhpmvvvrKO27v3r1mzJgxXp18+fL5jnNF1xk1apTZuXNnwrWA33//3ZIcMtOt7t69261y0OJPQayffvrRDB8+3PfwsxKICN54441AwmQlui4aUoA99thjj5kru3Qx9erVM9WqVTOtWrUy3bt3N4888ohZsGDBQU+y/3tioXl095UdYhx66KH2b/Pmzc3tt9+e5bFSP1m9/PnzmyVLllit9PLLL/uOD5Jbbr3FrFy50r2dgwb/18Rau3atqVixovdw3YeXStz6kMUlDNtCqg4dOpjrr7/edx45plKlSubsc872yl0yuvVFpk2b5t7WQYH/W2KhHbp27WofjksSV4IesntMgQIF7N8zzjjDNxrs3Lmz2bJli/1diOCeK+j8iEsiva2Peeutt9zby/PI08Tas2ePNZwPBNLluARJJkWKFDHvvPOOtauGDh3qe9BInz59zA8//GB+++03M3PmTHP00Ufb8htuuMFeK0BLuucWCSJYlWpVzY039zEnlyrlq6t/f86cOe4t5mnkaWIlIxVOyPkL5ptXX33Vjtaefvpp8/zzz5spUyab77//3mzatMk0a9bM9xBTyb///W/v/Gi7Nm3a+Op88cUXCddx9913e/swur/88ktz7733+o5DROOdWbu26d+vn1feolUrM3rMc6Za9ep2u227dqZ7jx72f93VNm7c2NOKBwPyNLFcbNu2zbzyyivm3HPP9T04kdNPP920aNHcV56VTJw40fsdCN2zZ09fHT2yAw888IAtdzWbkEhEtGbTs5qYr1esMHv37DG394+R66KWLc2w4cPNSSedZLc/+OADOyK877777DbEEnLx8nzzzTdm1qxZ5sMPP7RajO1du3YlXFdewEFDLIbol156qe9ha3EfcN169Uybtm1N+w4dTJt2bU3rNm1Mqzat7d9GjRsn1GXkyCgMf9PMWTNNocMO852/X//+1u8E8RYuXGjKVyjvq+OKXFPNmjXN6tWr7L0wQqxdq5Ytb9OunRl0111e/bsG32V27NhhySUj0qy6c9wUePrzEsEOCmLhET/llFOy1cgi77472XaZ2EMiv8aF/3/5ZZsZO3ZswjlLlChh/UlyDk1UqYO2ZPRXsGBBux1kNwUJ9wBwf7BdrlxZM336NEtUyEz5XXGC9erVy5Zx/W3btvWdK5lgA65fv95tvlxBnifWf//7X6/hskuqsWPHecfv/H2nfUh4uUXkzf7jjz/MP//5T3tMdgmSSlyNKdKgfgOrcbH9hCjas681DV09++n2CGrfdNNNvvO5on/3zDPPNCtWrPDOl1vI08TCpmrfvr1tsOw/+Pxm3brYW7t8+XLTslVL075De9uNIpdccok9Jw8aYHAHPaRatWqaKVOmmEWLFllb5pNPPrHdzew5c8z8BQvMvPnzbNn7779vpk6daq64/PLA8+iXoWGjRvYv5wUQjYA11/jss89a0gMhu4hox6xEfqtJkyZ29JqbyNPEklBK9kl1iLWfduz41R7PSM3dL3LPvffaOmitf/zjH779uBP2BxjRr06aZIYNHWoqlEu0vUqWKmWq16pt/z/3nHPsqBM7bcCAO0zxk0qaa6/rbvehrcDSpUtN4cJFref/rLPO8l1bKhFy4TLJTeRZYpGect555/kazm1AV67r3t2ShQfXt29f334torWWLltq2rVvbzUZzs5HH33Ui9WhXch+wEk5bfp0O2pDpk+fbt5++23z5ptvmpWrVpotW7eaNWvXmLlz5piOl1yS8DvPPvecNci/XrXKfBQn7MaNG+2+iZMmmZ2/7zZ9+txsrrrqKusP++33383qb9eZ3bt22WuU8yTrapOVo41zC3mWWHPnzvU1lCtPPvmk7Yp4+HRH/GXEBbBbrr76at8xiDwIjGXxldENYYvp4C+2intskJzbrJl5/IknzBNPPmFuvrmPOfboogn7R48ebbZu2WK+XbfOvPveVPubvDiVK1c2AwcNMmu/+dbc0PMGc1XXruaPPXvMzl27LLEwBb799ltTsmTJhPPRfb733ntmxIgRvmtB5P7Q2LmFPEusxx9/3Ndgrqxbt849zAMjPx18fuKJJ6zvh5QYfQ5sm59//tkjlowgcbT26RMznOVBuV0y28k0p9YiRYsebY444q/etvjDJkyYkHCMdL/vvvuu3S5zehlz/vnnJ9TBd4ZGFoi/K0g4FnLmBvIksXjIdAvSQMlU/V133mmdhR+8/4GZ+MpEM2rUM+bpp5+0boTHH3vMFC0a0xx0ZQIeikuuWrVq2aQ8XA1nNW1qLmre3JQtW9buE2en/CXNpV+/fvYYtpMRS0SuvXnzFmbMmOdNs2bnWb8TGpVr+fjjj80zzzxjPvvsc3t9kLp16zY2zkmoyD0fAwYNIWEyIcSUG8iTxEKD1Klzpq+R0DoM02fPnu0LBKcS19ZI1s3Wr9/ADB0yxDOYXQ11xRVXmA0bNthz8MBcbZJKJk+OjQQZWbL91FNP+RyajOQGDRpkzr/gAuvDQtu4oSnsP42HH37Y91ta3HvPFPIksYiJNWrUMKGBBgwYkNAFzJs3z9eIIgULFDCH5ttHClKKNUhJdo+pUaOG9RsBSFOtWix2pwV7TuOll17y1Ukm+K94YcCI4THbCBtQcq7Gjx9v8h9W0BQvUcKsXr3aln322We+8yCYCThcn1NZrckkt3xaeYpYvKE0Pn8ZausGevHFFxPq4mF2GzGZNGrUyGo5UoAJJJ9zzjm+OnQ7Aozra665xleHUaAG8UW3TpBId4mzk3vTLo5Zs2fbc+E1ZxvHKPjxxx/NRRddZMukO01mEiQrL1++fMoc/jCRJ4i1atUqO8LDvQAJbuvXzxx11FEJjYRjE4eigGG+25BBom2g0qVLB5Yjxx57rDWecQvMmDHDFCzot50gJD4m7CAiAhdccIGvTjIRG+26666z5MatwbZ0VZIV0aNHD5u6I0Rzr9MNcCPJiEXKM6YDJHW73bCRq8TizU311rve69atW9sUmXvuucdXd3/EfRDalmqigtO6nn7AaFPZdh98KgkiBd2dDi2lqi/Xc0OvXraLw97D7nSP03L88cebk0udbOObJCHy4mQCuUYsHIEYsNIArqHsStADdAmSHQk6xk2qkzK3nnsNHOOWSblb5p5PttGCaDG3frLzMdLFtyVgBN2tWzffMcnk8ssv9yaJhIlcIxbGalDDHagEPeBU5bfeequ1Z+h6/PX2XU+//v2s7+jkk0+220FarGPHjmbCSxPMI48+6vsdWy9Oop439DTPPfecdYSy7cYA88X/9r/9djNu/Hh7je65sLt+/TUWshIwedatFyT62hmdholcIZYe7qeDVHKOs88+29pJdBEY602bNk3YL3+feuppL5WYrkHsGfdaXn3tNe+aF3yxwPe7SJcuV9nUF4GMFN3fJLxEyg4gVihZC2694SMeMnv2xEa/XCPTxCjXGo/pYQLsp1ShL1eSnSfdyDixcCVIQ7gPMqci4RzBvM8/99WpWbO2b6SEMe3W69Tpct8kU1webj03WM2oFteFW2/x4sRr+2LhQl+dQoWOsmEfDQYsTKJlv7RX3br17OCFmOW1115ry9yuNpVIXQYfYaU7Z5xYkly3Pw2RHel7a18v7icGKiOha69NdBuMGPGQ3UdMkCxQgAZp2bKl3S8Pb+yLMW893c727bHzEYvUdapWre6RdM2atd7Iy50c2/Gyy81vv8VIumTpEnud/KbrUunbt5/Z+0fsHmbMiI1Qgc7SCOraXSM/OyLncd046UJGiYXarh6fNJBukRwn/ESD7x5sXQLgtddeS6g3e3ZstgvZBV27dfPsFT2QQJYvj7kBZs6aZcMmAKNZ17nnnljqDbjzzju98Inr2R8/foIthygY6uIolW5OiCreeQLUderV81wRn6dwBudUateu7V1POpFRYqG6uRndBR7I2xYk5EOBxYsW222S/IBOOzmjchXz448xDUNAmjIZIaG9pB7doGiYhx56yDozAW6BW265xav3ySczbLmkwEyZOtVuY3PVrVvXqyfedbpqtkkeBPxNvIfYaE+iCrwUgPAO9qOue6AS1FOEsXBJRomVbPRy44032jQQQi/kOZECg1CG74X/J0+ZbLUSZTzAt995x/6d+t5U8+Zbb3r2EAFdzikebIbj4kXXGkbsJcIiAG0iacMStEb7YQ+StiLOWQkH1ap1pvemfzJjhi1j8oN0x5LScv31N3ipOM+MGmXLmLIG0KoyQeSmm/p4A4p//etftuy2227zzicxQbIZiADwYhDA/vjjj+J/Y0IbirA999NPzZIlS207Va8R3FswQk83MkYsGrFTp06+m0J0/ndOQBciU8PIVpBuTjIA6KIAo8YiRYvYMq5Juk1ZUearr2LxNW3Ui5HOsWyLrQbuGjzYlhUvXsJ89913towRF2XSvWnikrkgacgvvPCCLZv23nS7DZnFo3962bJWGwLRqF+vjCUnHghkuporTz39lFs1x8gYsTByk9lX+HYgxfbt2+wohbo0KNF+/iLYZ5T/vHmzrSOydesWawhz7LPPjk44rwyn0TadO3fxcpPIBtX1hNh4s/FQixGuc8LoEgEahK5RDH9ilkf97W9ePbp7wDVd0flK80OcGASN9W9KoJlukoC3aD83uE6OPUDrXd+jh7UF6d6x9yC5bhv+ItwvbYf8/PNPltTYf4TF9LlFiGakGxkjFg/gr3/dl+zmSsOGDc35F5xvGjduZCcylC17ujnttNPsBNQKFSrYITdz85gryJxAZgY3bNTQNGnS2Cb0NT075rNCxIbTZBBv9a7du7zFO6QeCXd2365dNsEPYNeIHwwhV0tGaWRB7IxrHCGpnIuuSrD2m2+8ruz+eA6Y1GMWN4Aw2hMuI0qpRxcooJ5us8KFj7LTyKpVq2pq1qxhX9yqVauaypUrmTJlSpvSZUqb2rVrWQ3I1DaOCRpVSq59OpExYqVa0yAsIaDtrgnqzspBdNckCEpZkQGBAFL0dJLxqteo4fOTbdz4gyld+rSEeiT77d6VuAbWxk0bTbnyiRMxGLXp8+kF4PZXkvkN3aUD0oGMEQvbo1ixYr6bClsw/AV/7P3DW2/BbWQ3fqbXYJC6BHw1IJr7ewgGvgaLjQT9pmtbyqwkqSd/J02a5NVZGh9ZpkvQ9mGkL2eMWOkcMu+PlCpVynqpIY6MtrTIw6N7xGbB4Gfk6dYTITWYOus3bDDXxL3eLmFYipL0GoA9RDpz0G/27t3bs63Ig9dpPVpYCefNt96ymiUofhjUvQWVaRG3A20TBjJGrNg8On9IJMiPFVR2WMBaCoUKJQZx3cYM8tkgLhHk98qUKZOQCqzr6XORksxEB32siL4GFhaRcIx7bXIc7gzihieceEJgvaB7cIPXSJ06de3EEDzpmADu/iDBWRtWGk3GiAXEQeo2FpNHGZEROMaIp6xI0aJm0qRXbYblxRfHRjM8UGYl48M55phjbBkTM79ascKMzCL3OytxyeZuB5W528nK3ftNVu5u749MV2nT7qg3mdD1hoWMEou+vF27dvamdCPq/CIcm5QNHTbMK3v77ZiNokcvEnwVjztdSpkyp/saD3EftLt9IOJqKiSr82a1PytJRTyZ5QPIzacs6Pe0RiRYzosprpN0IqPEAozKZGqVCKkmeJ3x/fTv39+WtWzVyqYsEx7BA00ZHnSG+tgvkkEAEbdt327fWLcRkQLxhmTmTbv2MVIjQY0u4j5At67sZ3G2119/3fqB3HPoYypWrBRY7p7X3Q7ah/uB+ZTuIrl0a3PmzjUzZs7wLfdEli5tKdEAzuXeozvhJKfIOLGAXglPhBkros0KFSpk/5Y8+WTToEGsazz88MN9x0jjMCSXsqCHg22HRiPs4walXZFzkqPFDOZUaSkrVuzzggcNDBBGiAxc6MJ1udYcet35IE0oclmnTl40AVcH2aCUB9lcch7sNwEvrjttTt+X607JCTJOLIxFIRASRAS3XP4PKkt2jBY3ldd9o10h/1z8WoR7Bg0c6Ktz35DERTd0EFsEQgsggptCjMFNIJqoA8fLwCHZfTBylfATfsETTogZ/KmE1Zrl/jFFgpbAFHJdeeWVvuzUA0XGicVw3b0xfXOuJGvkIEn2tmsfFdpDcq+SiV6PFOAKcOvMnDnL7tu06Uf7F4/9iSeemFCHQYYGkQC9310N2Q3naJF2uGPAALPgiy/M9Wopy0s7drRuA8hJ6IhgvV5BB7cGroo77rgj4VxB509XynJGicXb1qVLF99NCalI3+XGaBxJCBRxh+GuyH66LqL/kuuEENIgpITWGDx4XzeM7cPMYkmF0Q2O1pKgNWSsX79+wnHE5ACecFnzQWviEsVLmO+//8Gm2kggWU+UPfGEE73wETYT9bAzWc1P6rgS9PLxCZcgByf3KpkeWrJqR7rOdHwVI6PEkgxMLfIw6TbcVGB3YRBmR6MFFi9eZF0XQ4YMM+XLxz4QgLCIv05aw0aSfbKACBMf2CbwK4l0NKRkabpvs2QryAACIVsVQDhIK3VI9pM6DEIAAWFZOJeAs+xHi8hy46xQI154Yoj691PJffcN8UhAd8p8SF5MycGnPQkducdlJakWW8kuMkasH3743lSpcobvJkQYtQBZUhF87uSsfxjPHABMGH3kkUdNhQr7RlySgyWQxDpkypSp1lcmK9DwUDRWrlrluyZEtJaeTi9BawnpyPqisswjIrOmIS8BbFmukvUf2C8pwZs3/2y3xZXidru6ey99WqJnXoxtNFYP9VUM7ChpwzfeiE3sFU1V8qSSNlCtz+MKcdKcImPEkqGuVudys/T9gDeNjAZ5cHoaPZkNoo3QAEWKFvb2ybQpMgskmwCQjuM2mgiTX2WBD0CCoVsH4RxAZ3tiCwGJATL0B9qAl6xRkhHZFjtPXBOS0iPpNIyUAd0mYSh9DazjhRYhGE3XTRlrjYpmEkJrNwKmBPhSxTOJdUI40o1cU0OLpHnnBBkhFpmM7sVLA7Rt287LTcKXQhlz/VDx2C10b5TRzQBUvrtgiBbIRcOkWjdKCN2gQQP7yTd8Q8lGWGS3QlYearly5WzYR+wrWQ6JZY0AD5pRGLaWjN7ujs/aRuPptpBzMFBg+4rOV9i0HUZlrksA7SwQLUxKD22BbaYXmJOuHA3GdZOTJfc2f/6+6V6psk0mpiGNJnRicQPkVOmbFsHQJlEP0Kh6hWB54zFO2Za3aOnSA4vu89ZDInkIWRmxcq2iGXhIXC9EA7hNhADkt8s0Kkg2cmQsh4oycsaoI+SjO2bdBl4cukdxfdSJnwOiuDOjGfGJJpZwDSNQMf7dSRnI6/FwDXWOO+44W0bKtaQ/B9m7Ijoj5EARKrFwyKV6kNgCrHU+d+4cj0DSOJJ6Im/4t9/GDEodB5Nzokkkxohou6R48RMTvkPDw9SGur4uEuVq1qqZcI2IGPmMsqSLcZeRFK1CGvQHcTeDTqtBO2Lso2VEe3311b6lxtF0kncVtAQ3ZZBTvmCBYKwDtJ98kAohBVmyYF2bTV6OI4880vcbIukI8YRKLHmTgkgVVMaDFmJJ9id2Fd2FrI3ldnEQkoblodGl9u7VO2E/EX8X2DEV1FclCG5jA/FbnMddJU8b4mIw649jIthogGvZGDec3RVxhHy8cODll/cNCFiPVIgl/ibE1fK6jJGlOHIx4LHXli1fnrCOvSygkuo8WtI1HSw0YsnKdQcq+Luk0UR90yXVq5+Y2ySLpQmwI/T+2bNijkwNtJa4HRCx3wR2Xp8Ks9w5SO3fu9c+MDcvipCOC+1+QPS3B91zVK58hkcsFq/Vx4kEvYwMioSoGtwjL5VbP4hMiNi8OhU6JwiFWIzm+K5fqhvJjmijFbgaAHGXQnRTRsYGzPTljZQ1RJFWLVt5viiAfae7CgLe+i2mbuEisVk+IswKEoMdoPlYyF/X0RmonE/HOGkvIdagQYmERKQd0UCYB3rxuMsuu8x2r8wkotvHF6bXcGUEzMzqoGC5PvcxxxzrZYvkFGknFm8i62hyoUFvWHZEbhStgi+LB+2uMCx1aNTp02NLcrsaAuELq3qBV4xg7TiVNxUbCBuK3+FB6N9AZPIokNQe96XR4RBJXdHCaFG0i5tTr8nbv/++zwVr6dx5XyzPnfWTTBgUiFbXgwURfQ/uUpg5QdqJJcl8OZVkcT/tB0tWR0Si/u3atjXTp02zJE02t86VoHNj9LvxPkQeDjn9zLJBM+GPC6qDjYjG0V0x0qhhI29kqWdbayHhUcI32FGS3SDXyjxEAtv69/QkWkaiQa4JRAYU6UJaiYXDESPUvehUoutl95ggEcIVKFjQricqC24EpTTL75CWw0irU/wBJdOwQdfllgXF8dwy9/yavC2at/A+hRL0CRY5F8TEhYDrQO+n+8T5iX340IhE8kP0oGMQIgEsaZ5upI1YvEHZ/b6eK3Vq1zZn1owN890HFnQ+94GJHHPscWbevFh4ZdPGjaZD+5hzNUiOL3a8t4YCPqlBAd1oJoXPrdDNxYh1s28/Iu3wl7/8xbdPh2Hc3C9EryItbXxxhw55P+edIbm+6P2RuwfcYR66f6gpHvcQH3nEEVY1v/zyRHNM/LvLOCr5KMBttyb/Po47okkWpkEkjCRYFF9MJGxxu1h5SejmMP5jQelgYqUS/ZGE7Aay8ciTAZuuHCyNtBAL1p+3n99gRoSEF57XzHS9MraKMEKoRCCNTG42/qdFCxeaYnFPMoLXWzz7ZBSIawKId5mPaBJPI6Asn+TFUagnqeJs1NeUbtHn7X7ddWb4gw+YcipFm9RpujEgvrr9vZa+t91m15EooZyoyUSf250HmQ6khVh0gxKGSNZNJZNixY4zE156yYYRGsRznm7s3dsuq7hm7VpvTt6ll15iFi6Yb55VIzrShzF49eIdQ4YMsQFe0mtkKSEJEgOCuZJzP3TYULNs+TJbV3++DTcBjleMdRG0YXZk5MMj7V/WI2WdBTEPtEg2xL3O6s/i8U6V8HegkoqkeXrthgNtDBZrxZ2A8/Ofat4hDsdevWNedLEtasbn6ImQrwUgtqSjBInO5aarIaTh1tG/ox2ZOQW/5058ENtO8s3koRO2Ea85PilcA4cWyG/y5c9vTjmttKlao4apW7++fQkIQmvhZWjQsKH1zzGXkdSYs5o0MU3VC5OMXMz6TjfSRizAG0cWKDOeubkjlJOxePHiXpflCtqBaeQ6S1MklQbUH3sM8mGJyAIcgJErPiu3jha6TXxf+H9wGJIzLqu7MLrCQYps+G6DWb9hvdWC1P965UpLYogzb/58L9ecc+jzL4nPkn5ULQEpD33U6NFed47fid/E4UyWwo8//WQ2b9liu8wgwSnLC4qjFaEM98TkLD7khL2p043SgbQSC+Ag5WaImdEoNDoNjH2EJ10+Gi6N6b5FrnGLuOQSzYJbQR6CzL5x64qMHDnSGrhZfQrYHYFq4WsZZBWwKP9xxY4zRY4tagod4Z89JCLfC3SJJRo0yCeG0H2SUZrdFGFIIanNHIPW08fy/2UdL/P9jgiTfdONtBMrFbCHdAxOHi62El/d0jdLN6FDEIcdfnise1Q54fiqxJMNcYN8aEEEcskTVCcdcv8D99trc3OfhFhBzlp97czqoZtiMIPtyP/IwIED7UAFH9wtt95qburTxw5KmHdJSg6LyeE8Jea4auUqa6bwXZ1kv+V+IygdyCix3DWnEDzBEmOja6NMsimBRPpHx7MUUPVnx+NkrLels0BTLeaRlRD64UFDXrrmgYMGWs1BeIqHOXzEcI/seNdZp4vjUpFSbBeXWIvjy4bLmlmuuFo8J1LljKqmRInYKFH7srRIWng6kVFiYTO4RjbEQuugrknGowwXg+QuiaHNA0flE0+Tr2Ih7gzeoJkp2RHXr5UV0JBBdp0mmhCLdB5dZ9HimPEuOWha3MmnMnk32f6gsiATw92W6+Tl0Z/rSxcySiygv24qN0eKTM+esckAehUWmfiwz6bq5a1jKscye0Y3DPaF/lZyKo2ihREYNiBhEYzl1WtW24+HY6RTFsuz2mhtRoxo+a13J0/2PpiEHad/U4ilV25G5EMHYmNVqlzZflNalnIcNGigGTv2RXPqaafabTIVWNlYNDrCYIeYoyw1UKt2bfsljWTfiU4mbgZJupBxYkleO29Q0EN331AkVbzv1FNP9ebtCdB+esaMrh8k2uY65ZS/m4KF9m0XLlLYLrnISnunxgPLFStVst2i+1lcPNh63qQQy12gTWys4XGNJek0kKdl69Zm245YoFncETLxApKzLWnOQBbHZWIHwICXZQGyknQHnjUyTiy6Mr0GevESxWNLcdu3LxYvbNSosXVd4Cln8gJldImMrsiecI3vZF8R5cG7b3AygiUrTyUYxy4kpQYRYrnrua9cFcvnHzY0pr3JBN32yy8236xK1apm9ZpVZteundZgZz/nRCsTLGabQQuak9G3ZEJQF9OBNmK6mXutiH6R0X7iMwsDGScW0LlV5B4JJJVZhukAvxhlkitEA0u6iIi75KILjFO84ULSnIo8IEZgepItNqDkoiGy0K0szS3CordgiEqzJnFPXDGMnLtdnbjOA+sqoJ1lmyRBWSpAtDznYBDC/+7Lp4Xpc2GSCuQKsXizxIhv3LiJ1U6QQxas4C9faeD7NDJJAjcDdg4P6eh4YBphcgHOw+yAesQPSQmWDNfsCLNxGJLzoaXq1aol7EMjoiWwy2Qql4hoLDcpT6a7yQcVtLZ0CeFqUkgdZEK4ddwy/HdovnRliGaFXCEW4EGQzus2gNhT+F3oFvhf3kgmrUrKsBj5rvGeHVAfkjKDhW6YSaloNNZrQEMy3Z+JoXjsFy9ZnJBTLqNOft996CJSLsRyvy62fFnMxhqXgw9WuQREkl0PISWdNp0J5BqxAPZW0FpZuoGSNZZIMvvqQEBXJpIMjBDls3hBUQItQiw91R+RFBcGHW6q8P4IjlLOTd6/XlTNrRfWyC8VcpVYgFEMKSt0dbLIfVbCxwOGDB2aKw0GiCHqT8IFPUxEiOWuLc8EUpkEgllArjwTTAlLYcCTxjJ5yhQ7DY1tXAsTJrxkR4CsboOTlvmNOo+KkbBeuEQLtmDQijRhIteJJaBhsIGY30cGpP0Y05QpNlmPRW+xw1giEhvB/ShAbgDNhcaQhxekvYRY2I9SJt0eAXf3w50HAiIRBKZB0FIGiEzHzyTyDLEORmCrMUFDAtsuuWS+IrO4dbm2j7DlWDsU35YWXjBeJETK+B8y4r4QXxijUtFcuGxcUiFENDKNiFhpAJpWZt1o0jC6Jbt29+5d3pcupNs8EIPdFcnrAmgksj30fvktN+yVCUTEShM2bdro+/gTMm7cWLNj+zbz5ZfLPc2WLmG6F76/5194wfP4C7HlGggTBc2UDhsRsdIIDOSgUe7zY8aYWbNnmhEjRpo6Z9Y1+fL5SaIlO9osqE5QWZhfqk+FiFhpBhM05NNw+kF37XqV6d69h2nTuo2pVLGiye+ksPztqCPN1d26eavJBJFkf2Xs2H0zdzKNiFghAHLJTBttcxUsWMCu1nd8sWImv0OcQgUL2Exb4pvaVkrmyggSXZdBQXYzUMNARKyQgNEuq8kEecmDRJZcIo7HInHu/mTiko/1TXOTVCAiVohgpCbzIveHXGJs45fSS3xnJaR4p8M3lg5ExAoZkEvWYkhlN2mtw+hSsibQfEyfJzcr6GPtfz/l7za2SV57bmspjYhYGQCjRfHSpyKXFsmA0IBs5GERPCewjZOUeGOq2GZuISJWhoDmkYkh2ekW07HAbG4iIlYGge0kNpcb/nGFoHzYyXhhIiJWhsHcSvkMSVbkoss7WBERKxfA9HfJoA0ilxjyetWdgw0RsXIJTBeTnK5UNpc7E+hgQUSsXAS5ZTIzPBm5DtbuMCJWLgO3AhmxmlziksBvFcZqe5lARKw8ALo7N6WGpTHdNewPJkTEyiNgtMhsZmYMkesu3xs8WBERK0IoiIgVIRRExIoQCiJiRQgFEbEihIKIWBFCQUSsCKEgIlaEUBARK0IoiIgVIRRExIoQCiJiRQgFEbEihIKIWBFCQUSsCKEgIlaEUBARK0IoiIgVIRRExIoQCiJiRQgFEbEihIKIWBFCQUSsCKEgIlaEUBARK0IoiIgVIRRExIoQCiJiRQgFEbEihIKIWBFCwf8AG+u3XKl48QwAAAAASUVORK5CYII=;" vertex="1" parent="1">
          <mxGeometry x="695" y="53" width="150" height="150" as="geometry" />
        </mxCell>
        <mxCell id="IYTjecegJelCjJGWe3SY-22" value="" style="shape=image;verticalLabelPosition=bottom;labelBackgroundColor=default;verticalAlign=top;aspect=fixed;imageAspect=0;image=data:image/png,iVBORw0KGgoAAAANSUhEUgAAAJYAAACWCAYAAAA8AXHiAAAAAXNSR0IArs4c6QAAAARnQU1BAACxjwv8YQUAAAAJcEhZcwAADsMAAA7DAcdvqGQAAABmZVhJZklJKgAIAAAAAQBphwQAAQAAABoAAAAAAAAAAwAAkAcABAAAADAyMzABoAMAAQAAAAEAAAAFoAQAAQAAAEQAAAAAAAAAAgABAAIABAAAAFI5OAACAAcABAAAADAxMDAAAAAAIvvHMbnUA7gAABRsSURBVHhe7Z0HlBRFGseRqB54yRO8E+95Kh6K6KpIUAmrwLl4BD1Rll1AcpJ0EoUDA9xhFskCJ4KsgCxBST6CCpKTLCCgZJEkAkpYQK17/xpqrvrrnpmeUD29u9/vve+xzFRP1VT/u+JX3xQSDGOAQvQFhkkELCzGCCwsxggsLMYILCzGCCwsxggsLMYILCzGCCwsxggsLMYILCzGCCwsxggsLMYILCzGCCwsxggsLMYILCzGCCwsxggsLMYILCzGCCwsxggsLMYILCzGCCwsxggsLMYILCzGCCwsxggsLMYILCzGCCwsxggsLMYILCzGCHleWD///LP46aefxPnz56VduHBBvgbzI6psfi5jIshzwjp58qTYsmWLmDNnjnj99ddFz549Rddu3USrVq1Fy5atRIcOHeRrvXr1EiNGjBDz588XX27fLn788Uf6UcZBnjt27BCLFi0SEyZMEIMHD5Fl023goEFi1KjRYubMmWLt2rXi0KFD8uHI6+QJYZ04cUKsWLFCvPTSS6J69RqiUKFCUVtavXpSaF988YU4d+4czSJhoPXcsmWrzOvhtDRbOSLZ739/tejQoaP44IMPxJ49e8Qvv/xCs8gT+FpYe/fuFWPGjBH333+/7QbEY5nNmslWJJECQ7e2adMm8cwzz9jyi8f69+8vH6rTp0/TLH2NL4X17bffirfeestWyfHaZZddZvl/27btxJdffkmzjxp8BgQQLq9ojV7foEEDsWDBQnH27FmavS/xlbAw+J47d64od0u5YIUWLlzYVunK6tWrJzIzM0X37t3FCy+8IJ577jnRtm1b8dhjj4nrypa1pddvlv739OnTYxrXHD16VLzyyiuOeVBhwIoVKy7urVxZNGnSRKSnNxVNmzYV6enpokrVqra0oSwjM1Ns3LiRFsV3+EZY+/bvE127dg1WIARFRVWnTh0xfPgIsXLlSvHNN9/IwXFubq4c1yggEDzVhw8fFlu3bhULFiwQQ4YMERUqVLDdpGLFisl/Bw4cGHW3iIF2lSpVgp/lJKSbbr5ZDs4/+ugjsXnzZnHw4EHx/fffy7xQbmV4DeOpVatWiXHjxokGDRpaPsdJrO9MnOjr1ssXwsIY4pa//jVYebqgSpYsJYYOHSrWrVsnfvjhB3qpa9C6YCb5j388brlpaDli+dzNOTmi1FVXBT9HL3Oz5s3FvHnzxJEjR+hlrsB4avXq1WLQoEE2geni6ty5sxSrH0mqsC5evCimTJkSrKgiRYpIU//HcsKBAwfoZXFx5swZsXDhx6JixYoyj+3bt9Mkrpk1a7blxqekpIiFCxdG3fqFY+/efZbuVtWPEnKtWrXEV199RS9LOkkTFrqxwYMHBytM7/pqpabKrsYk+/btk61CPJw8eUrUqBFY/njxxRdl92uKdevWi9TUVIuolMiuKV1Gvu8nkiIsdD10PKX+HjBgQMxdSCLBRALliDSox8AfXaw+zjMFyoNFVVVX6Bb1Fv6LzZvpJUnDc2FhsIrBshKUXjEzZsyIeCO9AN1jmzZtRMlSvxGdOnUSO3fupEmCXPRAUDoQPFbx9YdSPZjVqt2X8KFDrHgurJEjRwYrpGjRovJvNPE5W7bQpEkBW0a1a9cO3jhYo0aPyrGZn8Bs16nlat26dVK2ryieCgsDW1UZSlRYx8H+mF/4/PPPgzdLF9euXbtp0qSDSYiTuN58cxhN6jmeCQvdCRUVFjePHD1KkyYVrJPpglKGjW8/kjUly1ZW2CeffEKTeoonwjp75oxo+dRT8gurRUm0VEePHaNJkwrGf5mZzWw3yc/Cwh7la6+9JsuIFku1tHfddVdSJ0GeCOvDDz+UX1YNMsuVu0VO9/0GBr5UUH4XFsCYqkWLFsE6VvU8evRomtQzjAsLXxp7evii6mmCj5QfgccDFVReEBaA3xctMyxZD7BxYanBsLJmzZo57nFhcfHtt9+WXgKYTiejGR88ZIjtxiiDH5eXID+suGOfc8XKlfRtRyZOnCjLqrda48dPoMk8wbiwUDH6DVq8ZAlNIk6dOiUaNWpkSffww2mejsHgTBjO7wsb316BvVOa/1IXg/Hjx4/bvkNaWlpSlh+MCgs3q1q1asEvWb16dblORFm8eLF8n25VzJ49myY1BrwP6M3UDWX0ArTmjRs3lnnqm85wu3azeKxaLX25ZM2aNTSZcYwKC825fnOGDx9Ok0jXW2zj0BsJw2zHK7DqT/PXDQuSXoCxHM0bdvvtt4vvvvuOJreBDWl6LVy6vcaosLKzZ1q+oJOD2rFjx0T58uVtlQHDJrUXYMret29fW/66eSUs1eI42ddff02T28CWT/PmgRmiMnSPTj2FSYwKC0+K+nKpDz7o2Nc7jSeUdercWbrWmObwkSPihhtusOWv2+TJk+llCQfuNvAqpXkrgyOgG6ZOnWq7Fgc8vMSYsNDF4QtOmzZN7v5v3LSJJpG8/PLLtkpQlpGRIRctTYNVapo3NZy6MY1TN6ab2zGn8syAl+22bdvkw7tnz16azChGhRXp6BK6wTvvvNNWgcrq16/vyekUvWUNZV4I67333pN50X1KZZMmT6KX+BZjwnLDkiVLwlbkX268UboUmwTdc1paYAE3nMF3PdKDEg/oBrHNRfPVLRmD8FhJqrCoT7eToTk3SahZGDX4ZZkc7+EIGc2TWp++ffPMsfykCQtjgEgDZtjWbdvopQlFdT+RDAcXTHqJKt//UK03DC2aF2PORJA0YeEUS6SKhOXk5NBLEwZaoI4dO9ry7NK1q7hKO4EDa5qRkdBDEjqRZoPKsMCMRee8QFKEhadO7cZHsk8//ZReHmT37t3SeRAry7HcdByduvLKX1nyw2Ri3rz54vLLr7C8fv8D7taCMCOLtruiG8ihHraSpUrJU+KhwMo8JkSx1EWiSYqwMAUOVZH6wQqYkycEbtzUadMs6Tp07Bj1KZnPPvvMdvOefvpp8fWuXeKPf/qT5XVsTYUTFlbFx48fLzfZEb8Ba05uB/vvTXaeDV5x5ZW28jmFBEA+WFJApJ2yZcvK2BTxnkCKl6QIC6d9aUXedlsFUalSJVtFvvvuu/Ryi7+3LsR27dqJc1GMQUaOGhW8VpUFWzvYFL/jjjss5cCp51DdENLDG5aWfdy48TSpDbQuOHJPy4H1PcRroJ/ptEiKk9Y0HWzp0qU0qWckRFi5uedlBdksN1d2Dej68H/8Df92PRSRqsh///s/YuBA+yyR7i/iUMOjjz5muVY3PKkYO9nKohnKAZE8/rj1VDRs9549UijYm9NfL1yieMgZ6qxZs2QatXmulwvbWKHKg9dxfpKWoXCRInKlHHEo6Ht0awnfo3LlypZ81b+oZ9XKBgK9RV5bTBRxCQuLl2h9MPDEUxcIdpFu+fupli1l94D/I13dunUDlUe6PHgXOO2T9enTxzJmoeMRalWrVbOUx6lMeN+pNWjXrr282RCWUxyuXbt2Wb4/wLgGXRBNq27unSkpweAfeplUfdx7772W9LAuXbrIz3322Wdtn0u3lpRnCH3I1P+f7tJFBktBILq+ffuJfv2eFc8//7zch8W/U6dOiynEQCRiFhZuAE7/0i/uxmgloJJRkTNmZNvStm3XzuIugoBkNI0yKtZoDRMBgNbEaZaGyQJl//79tnTK3JZHpVP1guh+AK7FNC3COymw/IFIOzQN/dxIhkOw+M6JJGZh7dwZfl/LjdGKVE+fbg8++JA4demJQheGg6TqPb3i9IOvsdgfrikdPIYGIeN8Hk3j5F2gH2lLlCHyDEBIJ/qevgMAt2P9vXjqA0FXEknMwjp06LC49to/ykLRFiga+5U2hcb4iL6P0ybwjAROm7QYVD/0UOCAqdsn1Mm6dOkaXACFsFq1amVLg4h9OrjBTuPCWEzVIdx3VNdP3bph+g7AnDmBQyp6/deoUVM88sjf5d+R6kO/DkOMRBKzsIA6fePW9C+inii9acfRdnoNTD3BWVnv2z4HJ6u3brUuX0QyvcLV3xiAKyCs9u3b267DjdZBXKtKlQJjJFi0D5hTen2ZwKk+MjIy5WQI4uvWrZvts0aPGSMfwF//+re2a0NZVlZWwgf1cQkLhVm+fLksGIJjYGCJWRwOAWC6/MYbb4hx48dL1xlE3KNfqHadOuLo0f/7tYc6fgVh4SmlDmywFSsCvuiIV/rxxx+LGdnZchyG8iBfZfg/tm8wmMZ1+k299dZbLQdnQ3m1Llu2LJgGYMZH01SseIc87ZM9c6bMF2X5YMaMYDlQhgkT/it69OhhuxatlT6exAJuyVLWHQDEZ8DGOVr5wkXsLZJa59qxY6d44803xZixY211oez999+Xs9JEiwrEJaxouHDhonjnnYmy66pZs6b4z9Ch4sAB6/QdLUBKyl22ykJcB4xv6OuIcXXsWGR3XZ3Zs+fYPmdKVhZNJl599VVbOjxEOmo9TjfM6NyA8SLWzDBmxDUQHF2ARX1gKKB/fvnyt8olBjxE+L/+gLRu08aVX7wXeCYsBabyoaa3mJnoi4XKcEImOzswY9QrElPoaLdPMI6C4yGWQDCjQmvrFPBDnS7W7RNtewllfeKJJ21psJkcDWiJQ21uI48nn7TngdmpHltMmdNicrLwXFjhQAU7dRHDhg0THTt2sr2OJz5W0GKEuqFg0qTJ9vyys4PvY02Lvg9L5MFW6Yvfr58tD/ix4VgXfd3rs4/h8JWwgFMXVKRoIN4DHezuCBO3Kl7QqtFyvDvp/x6cTtsoTdLTHQ/jxsNbw4fb8mnYsJEoWbKk5TW5LHPqFL08afhOWNQ/iopJGfbmEr2opwP/cprnpEvCQkvSs2cv2/tufdKjAWt8burDC9fpaPCdsOCyQivNqWIxNjLJ4sUBt2ndsOUEMFtTUXN0c9ryiRdMGGg+TrbB4WhdMvGdsNauXWerNCczHSl448ZNtjxffe11+Z6akemGvUenSUC8UBcjJ6tVK9VX3SDwnbCwuk0rjhqm6Bh8m8SpHIidCvQ9UtWCDtMWehMJdjjKlCljK4tuGJf6Dd8Jy2m9it5EfZXcFNscDjfASwBrSyoEt25oWUxw+vQZeQyO5qeb22g0XuI7YWFFuXjxErbK022/B5GBMY4qVMg6UO7Vu7dYuWqVrTzwhzd1yAEThXC/KFbBZUwHr/GdsDBWwHF8WoHKuvfoEXb9KVFA4CVKFLfk3aRJunRIpGWCJ6pJsDVG81SGrScTWzLx4jth5Z4/L1pcileqm+oGsX7kBRjblC59naUM+F2fEpdfbiub6dhZmAHTPJXNn+9NsJJo8Z2wQP/+9g1gZXR/0RQnTpwUDzxQ05Y/TF9LqnbffeL48e/p5QllyZKltjIog6OhH/GlsJw8J2GmTyPrYOmARhl0shEjR9JLowabz+HCZ4cKCoczkV7VR7T4Ulj6E6q3DjjkSsF4KydnS8LHGRAWtk7ozaS2Zk18PyYFFxj1+zih4q5iJlrx0qkhvT4WLfImymAs+FJYuKn9yEECrNU47cOpmAdwOkwkZ8+eE42fsHta6IYja/HMyLAlpQd8g1tRKJYv/1xcf/2fg2nRqvu1tQK+FBY4dy5XDorhUw7/eqcWCVN83YsykeKSnhb/DD3Nh/XpE1+QjlGXzjUGPVovKxx2Wwg++fAwzQu/bu9bYblBRa7TDw7AezNRqF8pC2VuIhmHgnpPKHF16tRZtpZ5nTwrLHrQQB97JMonasCAf9nEpKz8bbfJOAmxoJ++UeVWDwdCO5nYc/SaPCksdD9jx4613Rz11GPLJRG/yPDSy9ZfqNetNzlI6xYnUakfrYJHrElXIC/Jk8JS6CG06ZMPt2F1bCxW4H9FBaUMBxSi5VMtCAkVFVyl45kI+I08LSzgJC51s3CEK1QgDzdMmz7dJihl0f5Mrh4dmpYTooq1W/UreV5YIJy4unfvEfLwRiScwhzBqlStKteW3KJvXKvuWpWvefPm+U5UIF8IC+gxHWi3CDfiWBzhnE5mw7DG5na6v379epuoVLnyY0ulyDfCAk4tl7qJ2A6KtlukvmFKGAhe4gb9J1+oqGrXrhN1oLi8RL4SFggnrvbtO0QlLmy3NGzY0CIuGE5dRwKxEG66uZyjqO6++27jrtXJJt8JC+huJnTMFe2AHr9lnXEpWl+9Rx6R465IQHjKy1SJSf1busy1MiZDfidfCgvjH/3AqV1c0bVcWFvCdoqbX8mAqFJTUwNiupSfEtWNN91kNAq0n8iXwlKEa7kQhS8acblBF5XKR3WDv7v6D9L9paCQr4UFEFUllLgQDDdRs7JwooKtW7eeXpKvyffCAiqgiJO44Mce7+wM3gbhROUU6Ti/UyCEBVRkYydxNW78hPjm4EF6iSvQvd1zzz0hRYUV94JIgREWmKNFIKTiqvu3h6PeuN6wYYMoWjxwuEIN0HVR0XhaBYkCJSwwd27gN3x0EajZGyK2uFmjApYVdQdR0bCSBY0CJyygfidRF4NquWrWrBVRXE7bNNz9WSmQwgK6twFdGa9fv0HIH+Bco/2ShJOokv0bNn6hwAoLrF6zxiYSJa5WrVvb/KPwK2Oh0rOorBRoYQHdg0GJJOjS0qJF0FlQ/6EAKir8FF1BWvx0Q4EXFli/foO4pnQgVBAVV+/evWU47VCiQlRj7CcyVlhYl8Ae3g1/udEiHiUuZdRbIiUlhUUVAhaWxubNOaJI0cC6lD4g102JrU7duvne9SUeWFgEbL/QFoqKCu7EoY7DMwFYWA4gJoIuLl1g+dVHPdGwsELgFI5bhYpkIsPCCsOq1atl0I5Bzw0Sny1b5usgHH6DhRUBt6dxGCssLMYILCzGCCwsxggsLMYILCzGCCwsxggsLMYILCzGCCwsxggsLMYILCzGCCwsxggsLMYILCzGCCwsxggsLMYILCzGCCwsxggsLMYILCzGCCwsxggsLMYILCzGCCwsxggsLMYILCzGCCwsxggsLMYILCzGCCwsxggsLMYI/wPLg/Wp8nloAAAAAABJRU5ErkJggg==;" vertex="1" parent="1">
          <mxGeometry x="965" y="53" width="150" height="150" as="geometry" />
        </mxCell>
        <mxCell id="IYTjecegJelCjJGWe3SY-23" value="" style="shape=image;verticalLabelPosition=bottom;labelBackgroundColor=default;verticalAlign=top;aspect=fixed;imageAspect=0;image=data:image/png,iVBORw0KGgoAAAANSUhEUgAAAJYAAACWCAYAAAA8AXHiAAAAAXNSR0IArs4c6QAAAARnQU1BAACxjwv8YQUAAAAJcEhZcwAADsMAAA7DAcdvqGQAAABmZVhJZklJKgAIAAAAAQBphwQAAQAAABoAAAAAAAAAAwAAkAcABAAAADAyMzABoAMAAQAAAAEAAAAFoAQAAQAAAEQAAAAAAAAAAgABAAIABAAAAFI5OAACAAcABAAAADAxMDAAAAAAIvvHMbnUA7gAABstSURBVHhe7Z0HsC1FEYZBUEJBCVRBgTwQJBdBRBAliRKEJ6HIOUoGyZIEVDJI0IfknJWMGEBAcgZRMqJkCUoOkh6s9a38W336zL130+w55779q7reO3vnzNmd+be7p2emZ6KkRYsImMhfaNGiDrTEahEFLbFaREFLrBZR0BKrRRT0E7E+9RdaDC56RSxI9EmSJOM/+5fPLbFGEZomlghVhkRlvtOiR4hNLBGpTq1URx39jLraqaeom1hqlLrJ5BGjzn6Bbb+YbRgVdRHLN0QT4LcmBPiXtck2Lo06iIUD3vcPOsrQ92Srg1gTiuboZ/Qd0VpiDYFPPvkkeeWVV5IHH3ww+dOf/pT87ne/Sy666KLknHPOSa688srk8ccfTz788EP/tX7BUERrjGx1EAtTOGrw0UcfJXfeeWeyzz77JDPPPHMy0UQTDSlbbLFFcscddySfftpYf1VBo0SrSizd7KjA008/ney1115dBPIy8cQTd3z+1a9+lbz99tu+un5HVKK1xEqS5OOPP04uvfTSLgKNJJZg66yzTvK3v/3NVz1IGMp8lkIdxCr94/2A1157LfnZz36WEeRzn/tcF4FGkkkmmST7Pz7Yf//7X/8zg4hKRKtKrEI/1m/4y1/+knzve99LCeHNW1Gx399mm22SJ554wv/caEDuvq5KrIHUWJi+iy++OCOC1ThVxdZ1xhlnDKLvNRJy9XlVYg2cxnrppZeSH//4x1nnV9VUIbHmdP31109DExMaqhJrYEIN48ePT26//fbkm9/8ZtrhMQjlxWovYl+EMiYUVCXWQIwIn3rqqY4wQp2mbySx2ot7ePHFF/3tjUqMamK9//77ySWXXNLR0U1oqpCIYIssskgaVB3tqEqsvjWFjz76aLLlllt2dWwvxWrKk08+OXn33Xf9bY8aVCFWXwZHGYWdddZZWQf2A6GsWI252WabJf/4xz/8I/Q7FNMaFqOKWPfff3+y5pprZh3Xb6SyYrXXH/7wh3TSe0AQPdyQ6weawH/+859k3LhxwU7rZ7HEP/TQQ5N///vf/tH6EbnegCrE6nkMi7f81ltvzUIISK+c87Ji73e++eZLrrrqqjQ00seITqyeaqyXX345Oeigg7JOGRQtNZRY7cVzoYX7FLn6vAqxcjE3Bm666abka1/7WtYRg6al8shyyy2X3Hffff7Re43cymSgiMWIbxB9qaJin+v0009P3nvvPd8UvUJu92dgiMV82wYbbJA1uLSU11b+cxmZdNJJOz7XMboM3VfoWuhvO+ywQ/LCCy/4JukFcvd5FWI15mGy5lyNbN9mdThLhA844ICuzikj6tCxY8em69yPPvrorjJVZLfddksOPvjgrutDiZ53wQUXTJdM9xC5zSAoS6xGYlgsmDvllFOyRg5pjv322y9bWHfttdd2/b2ssIkCfPDBBx0R/Cryy1/+Mhvx2WU7I4l9mc4+++xemMZCpAJ9S6znn38+NQFq0KHMhl0O/Prrr6dvti9TVDbaaKOOHTjHH398V5ky8ve//z2r88knn+z6+3Bin5/7a3gpTuG+7ktiMUkrggznoC+zzDLJW2+9lX3vnXfeSVZaaaWucnlFnXfmmWd23A9awpctKtwX9yf885//7CqTR3zEvoEdQoW1FahCrMI/NhJQ8SeddFKwEUNy+OGHd3yfjtNS4yrCBLYF+wl9maJy3HHHddTJUh5fJq9Yl+Coo45KNXWM/vgMpRRIWWLlHnaOgOymCQjusssuWYMNZfqsEHW3YLXAyiuv3FWuiGy66aapX2WBE+/LFRXmMS1YyTr11FN3lcsrtn14mVi//xnUL3X1T6l6yhKrqMZSeSsZ7rrrrmT55ZdPG2kkLSWZf/75k1dffdVWkzrxa6yxRlfZPKKOuvzyyzvqBNddd11X+SJCx1szCNgdVIc/aNuLVR3GsVc7l9I4Fb6XoiyxioQagmQCaJgTTzwx2EgjCevWvX+Bptlwww27yhaRZ599Nq3rzTffTDddgBtvvLGrXBHhGQWtYsA3/Pa3v91VtoxY7cVSHDtICKCrH2KgLLGGQpBAIbDreKuttgo2znCicoQWAJ2vkSH/tyNJSYiwod8jrKB16YQDNF/H1IovGwp9hH4HkZn617/+ldxwww3p/1ndut5663WVDdURuhYSW46Vs96kN4m6iTUi6Lirr746+cIXvtDVGEWEcASgs4499tj0/8SIfvjDH3aUEwGWWmqp5NRTTw0GJ0UyNpuqnt133z2tG0DcUPk555wzOf/889ONEiuuuGLH70mWWGKJ5I033kjrYY5T9wqx2METqhczf+655yZXXHFF8t3vfrfjbyOJ/f3tt99+JO0VDY0SCy1F5DnUCEVk2223zczUNddck+y4446ZWSRg6svPMcccHSs1NcrznaXRIBse+PzMM8+knz2xJLfddltWJ+GDUBKRQw45JCvDKJZd14A42cYbb9xVHrGO/lC/PZLYtuWFaXp/YyPEotPRUnpQ36FWQhpMjaTvQQwBImHCFNEOTcGccMIJ5m6SVIMsvvjiHWXWXXfdLIKvKaSHHnoo/RwKDaBtvKkhsm7vE0FLAXyqr371q6kmpD3wtXbeeeeueslyY0HZH/3oR1315hFLLp6P52gKjRDLBhiH01Ii1aqrrpr85je/SWf2p5lmmq5yUu+MrGadddZk7bXXTk0LOOaYY7rKP/DAA+6OkjRDDH9TZzGiEpTLQZoDs+vrPO+880xt/8fDDz/cUWbeeefN/DRGvlyz2nb//ffPyuo+GIF63H333V2/X0TUrosttliqWZtAdGL98Y9/zB4wzxuHT2Jn8r3ZwuEViYhjcW2ttdbKtI0nFvUxwgNoGGm2v/71rx3lNAAg2EgHcE3aBtPoVzxoLpGRrcyM95sYuQrSZptvvnk2XWSJhUw22WTZvkPqlUakXruyo4yIXLSH/NOYiEosCDLTTDOlD5SHVIiPUBNI/OIXv5j9nXk74cgjj0yvERTVVipPrMMOOywrj0MsbQcZll122bSMnW5hBYG+y0sBMJ3f+ta3sut2KunPf/5zOgIT7A4hAquA2NJqq62WXvv+97+fxZp0/5J999038xUvu+yyDu2lNEt52zEkIhcmOHY2wqjEwrfhQTB/eRuEUZbHT3/60+zvbJMHdCwjPa6x2lJawxML5x5gftB2+HrCL37xi7QMfpkgzYLIl/MxJ1ueUSbmTZrQOtty/sk8o2uQWC8Bo1R7rwqh4H8xott1110zohFfs2WLyuc///mOz5jXmIhGLMzP0ksv3fEwX/rSl1KtQQMygWqFICSjLA3xLe655570+zjc+FWA2JDqXXTRRbMhvcgskU9BvXy2WkEk4LcB5tRuH8PH03USq+m6fC/M5te//vX0msw32ggNSqBWWuHXv/519l3CB3oJTjvttI57lYli9MxnTCMaG0BcNlqguZgdQHhJbBtef/316bPw8jGRT7vRTnvuuWf2G3rBf/KTn3QFmOtENGJ5RxZhBFcGvOGYH2vW7BJldrdoeueCCy7IrkMSmZ2bb745vWYdapkokcKvOGAtGEDboUG4xn3IZ4NgKmvNFrEqjUT5LhpN5TC/MqOWWOTUUnCWgYuuM0KtitASnbnnnjvqho1oxOIN8g+zwAILpFFsHoiMxOy00b9W2F/3yCOPpG+ugIn87W9/m/6fjpF/hBCo1J48m6uB/FQCqwB0HZIJjNakWQhI2vtlrx/gzSYMwDUILbBNXmXtFBOaQs495tDW+Z3vfCfTWJZAaCLAvdiFhYQa/GZWCMjz+naT8JLZNkbz2nuQPPbYYx311oloxPIPY8MMY8aMSc3iUDLLLLOk5fBfBLSEtJI1g4h9+3B6dR2tqe8uueSS2XUFKS3ovD322KOj3gMPPDD7+xFHHJFe0/QM2s6aTeS5554zNf4fmCz+JhNELEvm3L58CuBSh60TsS8Y0NzljDPO2NV2DJbQygSF+TzcDIf81RiIRix1hJW8DryEhuON8/ArOqebbrrMF1Fwk1iYzKAPLUBc3mYLPvvIOaMnOeWYRUanMoNoVJXTczG/aBGau5x++umz3xaxmDOVGWSw4etlkGFBNN/WWVYY0cZCNGIxfeEfpIioUTXkFwgLrLDCCl3lNQJTbMuaQRsCUL02RABsvE2CA65YEoMO5iFl7vhs60NsPA14nw1hdKZYFXEyrsnEozWJzPvvqAwvGQ68/1tZqcN/GwpRiEXj17VrBufaaq2hFt1p9MdoiM9KLuuDlhK0FqNTrTjAnPoyNoyBo65dMpBtk0026SgrghHRp07WpG+99dYdf5NosKCYmT7zPT8z4b870vUiYkMvdSMKsXjz7GrQsiK/gJUDOMp2S70XRj4AswchpDmYWPZlfef535PMM888wZFTqM6h6vXxI0REgqyYQZlbCM7f6yBNHsEfjYW+JhbiOxsJNbxGOPg++HeCwg+h7+QRLfyzYLNFnjqH+ruIBUFt59p8802I9wnrRBRi4bTKDDQliiSjYTTvh0NsY0hlxA/JfRC1jGiVAaEFzXvi0H/lK1/pKhtTCHfEQu3EQmMQ/1HIoCm55ZZb/K0El7sUFU0JCaHVpEXFkxU0bQYRgrKY4xjZnGsjFg6tj1012Uh+9AgULK1yH/hrLLshzEAnrLLKKpXrVPDUws6HNiHW92O0q1F1XaiFWPhUrErQjVZp9LLiHVHeQt5IX66IWP/Opk3yS2iKCgMMC8zgl7/85a5yscX2E9mc61xOUwuxNEncS7nwwgs77qnqagBJjJfETikBzLgv06TEWE5TC7EUCY7RCXnFrtMCBBS53st7Gkp8xNtq+16J2smTviwqE4sAonaS9FIIgmq6heg8KzV9mX4Ruwaf4K+dx+y1hPZrlkFlYoUmTZsWqXLIxFSO9iuGApb9IiwWZNuYlhz3y73ahYhVUJlYoXVXvRAfSO2XjvISMs3+3nsprI4ITfwXRWVisUXK31wrgy11pKVsidVKh8w+++y1HGRQmVh1RLdb6R9hd7bfiFsGlYllt1E1LaFAZWg1QT9I6F77yQ+U78fOoTpQmVhAa7970VDsgmb+jolnrRUPOci9FN0P6+aZFmJtPcuGfbl+EKUVqIpaiMWKSGwzN9Z0p5pMdunkrv97vwj7ErVFDfg9hb0UjUpZ6lTXhHQtxAI2F3tT5CILoM2iUkeWvFj37tet2/bqpYhU3/jGN4KbQcqiNmIRrdU2cEmsTpLYHcmAiLvyVJURmXLykLL9nbTX9noV8cf19np+1cbOeE6/E6gqaiOWwBKTphb52fxUoAqx9BKwRV+L7xgd2f2IZcUmXxPuvffernJNC0uC8Pd8ftQ6UDuxAB3iM+vVLXaTqlBHOm5/yrzd7VxWyAfhMdS6+SbFL2KsE1GIxeYAbUmPJXvvvXc2Wap/2Ue4+uqrd5XNK+Q48LuOyU7jyxUVu7tHubFCW8OaloFb887IIpY5lMnS20ZnKY8Vv/uDH/xgyO+M9JmkGh5shA0lf/Pi65SQNOSzBP/pPeuoEr/1frh6QtfqkFBmn7owcMSSKCsNTqe2wg+X3BZBiyoPvJ/4ZQWltr4TtiCnA8C8+kMJbEdjevku/w8FQe2OITLdKDyCGWcbvC1r75WkbGhlX1+dwg6mWOg7YoU6x4/Kdtppp8yk4HyyjX245LYIzjJlWBISWphoR5iQQTup+Z3tttuuqz6EXcns2iGnhJKGeO2i0SDOO3+TdoXECy+8cFed0047bUdyW1JSct23QR0ycMQarjOGE2kRiILGUKNK1GmQCciXY35Lgb1QcltGehYhv0kJMvDTyOtlvxPa6KAktQJJPXwZawYVXtDJFz5jjiSUiNcepl6nDByxaHDUvn+QPEKaH7v7OLTTRptI5aeQM2G45LY2Og/8CRZsr9cIU6M1Oziwdeo+dBCA4PNgIezcFpTIRH4N92uTuUn8RgtAOm3723XJwPlYgCRp/kGGEzWa320Dyeaaa66snM3MosMkGQkqs4wnlo/OC3ZKxY4GlezDJqG1SUUQNpb6bDXA5wnV+nHMJeTnmjQh5PY5JfDlFFPiOyJ2KGtzHeI3oNSJaMSyZ+RIRnrjSBMU6jDlCkVI7Q3QENreRVBUHeKJZU0aZXyaSMQmPdNaec6kEbFENgmOterB0VeGPmticcylBRkJ6joRff2WP0CAI/UEJvbtFAsDFFu2qITaXsl3YyAasXx2PPlPTMby9pJFRkIuKxLck6tTsP6LDSbKVChPp+pU53piyWSh5ciNIJ/HLvdRQhEbW7K5Qn3qoN///vfpdbQcvqS29DMw0IZWBhF6BjSDvouLAPjbXnvt1VGvng3ti19lN+Eq5REvH/N6RM25RwnZmNHctk15STQtFSIWA5pYiEYsn3UP4VBwTBv+BY1nxe5no9HREiIBZoOMxyz0l8mzZyrb5Lbk/7S/qTkwmRO7LASiQXL9tk3dSCJd1emPlVP2PdaG89n6Kj//+c/TayKFT/0IEUMHCFgiK6mbzShIPI1kJGhB2oWyViB1qE0Rn/AXsRo1BqIRS+fRWMGXyQNM1hRTTJGusxIYISonKI0FSVUvb7BIYLf5EywVadjLxzUIK9D5mJxQnUMRC6dfAwVpEev3MX/JNWUY9BF2ezKFHW3a/PaEOrhG/gttbOBl87MCeeE1LkL+MmsV6kY0YtHQ9tg4CaMjOhTBTCFEvOkkdgSTX1MLB+3Qmw6SM+yzAFuNZTWZPXNHGQZxmEUM3lhpNGtaEZtOUgRC7FEnVjtqezqEIk6mTlOnyhRZjWU1icIdvFRjx47NrivbnwWOPeELSEyb2XYkoyEmjnYkZENyNXKSqr6hRrV1IxqxgA5mKnKAgBWccpkHOkoJyuSzqM6FFlooi5pbYuk0L38AgD0JTJBPaO9TzrOdiLb+FH6NrtuDCkRI7tcfxGTXlGtkyjFyCrH4xYqskJX5FyCQLZNHbIDVzjLEQlRioUVwMnmYMsRC1JECncJ6KVvG+guKe9Hp2njpk9uiRSwgA0fT+d9WvEx7J63J9QQg47I3VaEwAQ62sg0qzzsmUbCOvkTResBv+IS5eUUDKDtIioWoxAKoeP+ARcQmqQV26C4hzqU3XppHp0oAnfQl8VHzoSaERSw50zjmQii5rT9VI5Q/ghGbH4AoySwm2ocgEGJxaFleFHs8XxHRVBka1CbgjYXoxAKKaZWZ70JLKAMeDauRlO0sSywlv9UqAm8GJfh4NDCDjKHm+WQypZ0UwYcANnKv7zFqE6g3lN3ZpglXOm4RMjQtJC2Dz2efw9/rcKI6GFmHcqrGQCPEogNtzCZvo6hB8AmYAyRoaa9LLLEwG5yAoYApK1ptWfvb+HCzzTZb+v/QtjEdQABJyY8lf88PHqwQR8PUEBrhs79Xm4kZjUbuBjnz3tGX+M95xX6PmFYo+BwLjRAL8Jba4KVv8KHEazn/GWErlYblhBU4JkTw0zGI7yj/WaIDNEntrVAHIJmH/16ojtAzMheqYC7aVTMJ+E46SbUOsb/NvYemtWKiMWIBGo+OtznVQx1SRmQuGX4r/5QPThYVLV9hdKlDmPDNqqyTsmcdohF135jDKaecsqt8UbHtiRtBW2g03SQaJZZAI9qc7SEtVFR0wKVd/lt1+7+WFEMEvfGsveK0MV82r0w11VRd6+qBTsao8qLZdiQAWkfWmLLoCbEA2sseUhQyG0UktNzErzYoKqHzmRVZryI+mwttYc8ULCMa9U099dTpXGYvtJRFz4glMOKykeayJJB2EaqaQSSUibmO7WA+QIsGL/vc9nscw9LkSfXDoefEAozo7IRsGe3FVIaFPZ2rrPiFcKSixEfy5YqKz49Q1gzadmJgJN+tH1CVWLXNYqK6cTSV9rqo3+X3yOU9lmQ4sXEpUNfuZTu5DsocE6f2wd9jXtBNKOsD/9bWR0VQlVjlptuHAY6tPYcnLzHsSVaYQX86VxnxG03tiapVxGZNLpoc2LYHh5F7fy0AiFV7P42EviMWILJt4095TKMlQWjap4ywEkFOMPek5cVVxZpYHS2XR2w7sA6+QIK0xslVhVjR1Sxbp5j5pyHzmEY0CsFL7YbOq+2GE6ajuI/QibFlZYYZZkgXFWK+Q9M+IdGzLLXUUtmBVCUQvc+EviYWQNVb0xgiWIhAof2JRSRUZ+i3i0qojuHu1ZZnuXMN0zKN9FsVYjWmWvGZNI2C5DGNo0Hsc7J7qa6kaE2YxoEglkD8x67FCmmV0SD2udhkosnwmhFVc5UlVtSbGg6sWrDr2oczI4MoVkuxdLmByWMURO19OXDEEpjCsUuDR4P2EqmYpPcB38ionVxlidW4GQzh1Vdf/dQGF0OO8SCI1VLsLAqdQ90AalUWA00sGmL8+PGfMOlqO2qQtJdIRdZpFvrFSNtYBJ/WtCesDLFqZXZdYHvYIGkvS37WufvJY78xo2FUNo2jhliAztCELtKvYQlLepZcewfdbnXrISqRqwyxevoq5QFr0pWzAOkn02jJjgmvyfLEQmklMiqJBdAC48aNC3Zor0QEJ10Ry3oGBBCrcJ+PWmIJLCkZM2ZM2qG9IpfVmCwZZnnzAKKQaSxKrNKqsZdgQ6qy7TVNLvt7bAvTevwBRW6lUpRYuSvuN7C3EW2hTm7C7xKpSFoSMxdVP2KCIRZgabHNEBMrJGFJS3pwv/V+wFDKQk1QxBKUUwGpm1yWVCT9UMqkHCjVgZFR+p6KEGsg/auhYLdx1eV3WVKFdvjkQD+1b6V7mWCJBdjkSu6EEDGKitV8pFIqGZ/qlzaufA9FiDUoZrBQ5xDvYr18iCB5xWq8GjLlFbr/CKjl90cjsUrdJ1nyJp988pQcRdZ4iVRsW/MHFVRALZ1bEqXazyMvsXr5oEVR+j4xjfZYuuFMo/0beU3rPPb2M/SizWv7zdFGrMpvG7k5Wbk5HKmssIuHMEYk0OaFIt4VoN+qBXmJVdsPRkSt5Cf2xCFG1rmXcJQc6Sd18EADaIJctfbxaCBWrYTyYFMoW9AefPDBdDk0Gzp6tBivVo3iUHu9eYgV84GKQATSvTRpJvoJdb9IddeXIi+xav/hACxxJKx2s5+bupd+R10vVR11BJGHWHVrK5HDk8gSJ8rDjkLYdizaZkXLF0IeYukGit6IJYl9eLRQS6D64dvZo9E2z0MsocgNDfeALZqBb3v/OSqKEKtFi9xoidUiClpitYiCllgtoqAlVosoaInVIgpaYrWIgpZYLaKgJVaLKGiJ1SIKWmK1iIKWWC2ioCVWiyhoidUiClpitYiCllgtouB/3l6TlPkKEGsAAAAASUVORK5CYII=;" vertex="1" parent="1">
          <mxGeometry x="965" y="407" width="150" height="150" as="geometry" />
        </mxCell>
        <mxCell id="IYTjecegJelCjJGWe3SY-24" value="" style="shape=image;verticalLabelPosition=bottom;labelBackgroundColor=default;verticalAlign=top;aspect=fixed;imageAspect=0;image=data:image/png,iVBORw0KGgoAAAANSUhEUgAAAJYAAACWCAYAAAA8AXHiAAAAAXNSR0IArs4c6QAAAARnQU1BAACxjwv8YQUAAAAJcEhZcwAADsMAAA7DAcdvqGQAAABmZVhJZklJKgAIAAAAAQBphwQAAQAAABoAAAAAAAAAAwAAkAcABAAAADAyMzABoAMAAQAAAAEAAAAFoAQAAQAAAEQAAAAAAAAAAgABAAIABAAAAFI5OAACAAcABAAAADAxMDAAAAAAIvvHMbnUA7gAACp7SURBVHhe7V0H2BXF1f5sMWoswUh+4x+jUcGCKBprTFAwCho1FvCxgRqx/IIoIIIVFOkWNAoGBTFWmmABK0WU2DAW7EoXLEHB8iHw3Tv/887ec/fM2Zltd28h4eU5D9/d3Zmd8u6ZM2daXS6/Sim1OkLWWMS7h/Ak+fyPRXGHl3GvVirwfALJ/+i9P1evcg313v86LV568HdDrl6Lvq7Md+F3MN3B9Bp5wt+hv0lEvug5el9ulZ/mXL3+Xbyv6pVSSG+9yivUEeKCrFL53A8ql/9B5XP1/jv0/7KObMLLT94LCsoxl6c0yHBrLeLdq4v3AhnYj8ALL4khw0vhz7ok3rNEHhQyRH8orELpvo1UdpH55emQ+Ugi/N08ffW68nxyktBzpqCCPVIVyKXD2tItRaaHRD7Hn7eVjSusea9OXnAHlCKflRL2vExwegFZPOJ4pCLNWbzPiGWGlel1pdsmMkxUOMozzz/9T9oS6TPTCBJ5GsvTGPQbhCqSqkjCqLTI9LqeiwoTFp6urw4jlgxkiyBMwsIECZJWfGKZIp8LSlR6SRqYyHtxRb7LLAP6MPwmD/d9DWWKTzJTC8r4o95ve84lMkxY2DU6bWUkVpjISnaLbwMV7CbRnNF9Tir5jF1kmkh4PnNCOMnCJE45sTwUPwaPSMG08vy67sv4o8QWTqc7H8yP7aMqPh+4XiAWIpc3owrFJVRQZkUHC0EUlnjeFKh+GLKyEIPxBNMTTFu8Z5F/FGZe+eB/hwHPEQld5UhlLCvOS6f/Ycj00/94BmXi0lgyr1JIK0oBqfJIfAzgMckZX+o8wy94w10oUsxE25qmMA3Cn6feWwOzl7zwkpwyDTYJy4PrOr+PggNJogjluk8FL+OFgEhSG8qyl0JxBMvQLxNZtrays5WfJpTMQBTywbT56Q0hFs+ITIg7kzZiUSbNL8x/nrsFNJHIdcHuGd19/e6oJkfmx6YdbPmgsKSxXAUuiUFE5PfleyjdMpytqeHPyTQHy92/XrDLCuUWLHOZb8TrzGQEZP789DuIZcuALCCZMXuTRtrKRaxi2AIhNYGk/8dIAy90WeD2TJoksVU4j5/ijipr2UzKMPgbcck08fhlmqTIfFK6ZblQ2vG/5wPzP2r5QfK05KMyGQZorLX28gaxAhdtBR5PtIZhIu+7JeqdtooJI5asHFEe+ppNSyDOpCBiSGIR6B6ll//mItMSJTLPVHacWNyxyctGp9OW2IRoYM2hKYxYrsJOKugVICPyehqRBcfv2b5k/pyrsrl24eHlc3FAGgewvUtCkikJsWRZEJE4aUxiBc2HHF6UIRCfTKcndd4ftQpbgVKzBhBJ6KPgwiuNE4DCSUkLCh+HWPxZKXE+bFkWJHTPIxGZFT7R8De0S+aAxsr7aVhniYXfVIGcMJxIklT8uiRXNcCJJcmNazLPPO9RBCMhLUWkWkMvKwMaGoLvx5BOHn/UKqgQqUCJNPRl8woBJJmklKlsMwN9JObXH04qZovqjpgvnrtBk6qMyNmJldeJqVVQ88AJJK8RWaQmyL486+vr1fLly+XlDCHzKMVFLkGwoqzNvhACgJ0VfH+NE4trGU4kXl68Msqnkb777jvVu3dv1ap1a7V4yRJ5O2PYPhISRiztmiFtJXvhsH3KWCBFwFO/Jh8kVq6WicXLRpKMQ/7OFt9++63q1q2bqqur03LcccepL7/8Uj5WZhDBuNaSGqpIKl5YZUYeTWFOpqHgIK1VVKhsQrBq1SrVs+flmlA/+clP1CabbKL/vuyybvpe9iACybxzzRzWJFaSVBroFQY1Vm0b70lQnrJcsmSJuuWWW1SnTp2KGqtp06aqVetW6oMPPpCPlwjS0NTsSfD70u7SgjG/8hSEG2gKG4LE0glajygsXbpU7fCrHTSxbr/9drV6NYawKl2HEgYR6Y8qAIReT6wA1qxZo7755hu1cNEi9eabb6qpT01VDz/ysLr99tvUwoUL9DMrVqxQhx32B02skSNHFsOOGzdO3XnnnWrixInqxRdnqXffe1eT8Lvvv1O5rB3dblSRVAB8WeuJpSv9448/Vk8/87QaNmyYOv/889WBBx1YbOq4vPXWWzrMyhUr1RGHH6Gv/f3vfy/Gdd111wXC1G1Up9q0baN6XtFT3XvvvWr27Nlq6dLPVAPKP3uQ2qoi4MsKEOs/xcYKQ1734l544QU1aPBgdcyfjwmSwSFz331Xx7ByxQp1eMuWAWLdftttgTA2+dnWW6iuXbuqRx99VH0671PdlGaEKmoqAnqGq43m8D/IeA8CzdcLs15Qffv2UbvutkugsuPIu++958X1zTfqD4cdpq9xYt0zcmQgTBw577y/qomPTlRLliyuAVutVMCXJYhV2w7S5Mjlc+qTTz5Rd999t2p5uKdhSpF3Cxrr66+/VgcecIC+xol114gRgTBhssEGGwSuXXvtterV114tk/uiUjD9ajXux4oP2C8wvK+++qpAxZUi1BT++9//Vs333ltf48QaMfzOQJi4IknWsWMHNX36NPXDDz+wnK0rCBBr3W4K0Yz861//Uj169AittLTy9ttv6/d89dVX6re//a2+xol1223DAmGSikzrKe1OUTNmTFdr10bWTQ21of9BxFq8eJG6sf+NoZUUV5rv01xdcMEFaujQoeqRR8aqqVOnqn/+85/aTgNg/O+44476WU6shQsXqjlz3tDPo/nt2bOnOqKV13tMIzz9GEbK3glbDoDfsle4DhILtgh6Vz9vtI21Qmwi7x9w4AHqqquuUhMmTFDvvPO2burgz3LBRSwJ+K5Wrlyp3RkgW//+/VXrI48MpCdMZFrvu2+M+v777+Wraghwzq7jxMIXjB4VFfqGG24YqBhXBe2x157qlltvVa/PeV0b40l6YyDWr2MQywYMYr/zzjtq1OhRqk3btqFp5MLzdsYZZ6j3Cj3UGkNhLaI5drnOEAt+n/Hjx1kLXYqsrLPPOUc9OeVJ9eVX6WckgFj/++t0xOIAyV588UV16aWXhqaZy0YbbVT8++GHH87SB5YFCoPeNG5ZIFZtT5vxgEq94oorioXrIpWsnGuuvUa98cYb6scfMVepNHyhifVrHW8pxCKsXbtWa6ABAwYYaXbljV+/+uqrtcatERQctCAW01i17seCH+moo/4UKFwpnFTXX99Xffjhh4mauigs+/xz1WjbX+j4syAWx/z589VtwoMvPxISKoOTTz5ZzZs/T0ZVDTBi+fPE6rwlQnzqBU3HoKkZrhEDGqLKrvIk4NOhAuXNga2gIejVwfWQJaEIixcvLr4na2IRPv30U+0sjcozXd9jzz3UnDlzeBTZZzwahcFmc/JhnbfHErfocZOTzEYspJ/ulScvjz/+uJU8JPyL3nnnndRjjz2WSZPnArQKva9cxALQq5w9+yXVqlUra15JOOkwyM1QngqxozD/CzygZrBILJorTf/TA0QsCZqhUR5iQduMHftIaKFyovXp20d99tlnMprMAW1C77zrrrvk7cwB98egQYOsebZdmzZ9moyiEsj5q6F9+8oglr8tDn8AAbjGIlKVh1j4WkeNGlUsLBup+JcKP1EDZmxUAJxYw4cPl7fLAnxkU6ZOKb534403DpQHJ9eTTz4poygz4GYwe4MBYgWFay1OJoooe2Jh7hIVko1UVIh/+ctf1AcfVtYjzYl15513yNtlBTowf/qT14GxkYuXFT62yiHov/KJlQvbQ4kTiAjFJTtihTV//De85eVd22fH/Hm+jXXzzTfL22XHsmXLVOfOF+v324x6XkaYd8ZQxh5WGLGsG5vZjHiKgBML10tP84wZM6wFJH//7W9/q5pzcMGChcV03HTTTfJ2RYC1jVdeeaVOg83morLaaOMNtbuFwdYDKxUw2huCxPL4Uxdc6ChJFSalp/fDjz5UG2wQJJH8jQHeCs4hD4D3CuFzqhawGvuGG24IlA8JEe6EE04ot2YHsSy7+hU1Ft+ZhEQSiEgkm8PSKhoLGNq1O8UoEBupYNBXk1QAJg9Seu64o7I2lgTcKgMLHntZbhBqKjEfXwysl968+MiZHgLwwW/ZisTyjXiXtpLEItsrPTBFhReETWDQl8PhmRSYrUBpwqqcagPk6tu3r05PmEGPKUAMWdpbhR6h5ESAWHznN0kqmwFfWq8QE9lkYZAQ0bBQtEwrWxKDa6xKuRuiAJvrwgsvMMrMJsLeSldhJqCt2MBzUBwai4Q/nB2xsBSqSZMmOtPSTqACwoS5WpoD/sknvruhnJ73pMBQ096FKdOyLKmZxPK2bMsSvUHJBy4N5G6QWwraiCUJRZIMaNb69fOMT/mVUcEccsgh6vPPP5dBqwreFNYSsYCXX37ZKEcbucaNCzSJacHCShuL/l6j6nI4ccpKKhuxJKmSp+/ll/8ZyLyUV155RQarOuYxP9aIESPk7VjAzNKly5aWxWYcM8ZzLtuMecgWW2yhFi1aJINlBHCB86NB1Xk9Qkki+ZuMtNJIhUluJ518ks6oVNukveBWqEVg7vsRR3hz2W+55VZ5OxJvvvWmallY8Ap3RdYD5mjqOnfubCUX/R4wYKAMFhekmiyVTrc4T9YSsaRmkqTihCJJDpoBKjNOJDvrrLNqem735MmTdTrhR0oCfFBt27Yx8jxp0mT5WMngHQyXYIp0AoQQiuBpKKmY6nKB+VhSsiHW118vV4cd9vtARrngq06Ljz7+SL32+uuZrcnDcq+ZL7yg3v/gfeMa0nlDv2TEstlA2BlwxcqV8tGScf/99+v4XR/v5T17hvW0iUDElhBCAfQY/jfNqMIMUnrAZlvZiBXxPgtc2op+Dxw0SAaJjccff6wY32WXXVay1ps3b57uQFCcL730UvFe//4D1I39+xvPR+HWW28Vlez9j7nvWQPaEYP0nExSaK2kQIqKxeMUxNNUjFj4w0YsUm+cWAnfWwDsk9at/YlrUhr/snFqwxLz4bff/n+MgixlhB+G9TXXXKPjIbuvffv2eigFeO2119SQBGOFIPmf//znQJ4h5RpzxH4V8l28fDBnPvsOhNkcRhCLJF3zR3jmmWeMjJGQtoJ3PS1emv1SoACx0DNE3Yfiiy++UDv+xluNwwWEAkCwKQmIi51lZFwk0CxZNd0cGMa5+GJvJoQscxLhNM0AnFjwY2li0UXeDEpipWM4MkneYZvsseee6vMvvpDBYgMzHmScu+66q7aH0gBTTmR8EIwCEECGuF/8c889F4iLC/xj5QA+BPkuCBGN5ycbBIjFjXdJLP53OmCBqcwcz+CYMWNkkNhAFxvNlIwb8vrrr8vHY0GuliE59thjUtluqEAZFxfM7S8Hoj7opnvsnvHOz1wRGcSyGe6lEwt+KWTEpZIxJJEWsMtkfCT33XeffDwS8C3B5SHjIkm6jwLiO/3003VYV/6vv/56GSwzuLQvpQU7GmYHaHC/5WMOUpd9RU1hcqCHcvTRRzkzNnjIEBkkEWbOnBmIm+SyFHbWsmVLVaNGPw/ERTJ+/HgZJBTYcZmHP/LII9U//vEP4xoM+zSaMA7QZLdr3y6QD5Ju3ZOXUTj8Vs5CLCISl3TAKmSZGS6Obm9sYJaBjJPkwIMOSrxaGM0nhbdpGOwpmmRe2CzRO+vVq5fWso232864jh1ryoVHHvGmfNvyAymlxQiCOoHFIR0+ViiJFc9ItYGaQZscf/wJJfWIYEOcd955gULjfrKPPvpIBguF1Ca77dZEbbbZZsXf2KEmCVlHjbrHiO/+Bx7QxOzYsaNxfdasWTJoZuCLQLhQmU2ZMkUGKRGes14Qy0audMSCfYEd6mSGSEaUuDYPhidthAbZbbfd1AGFrRxJpk+fLoM5gb0ULrnkEiM8JskddZTZlM+dO1cGtQJNTNdLuxphXy24LDBRkF8v58RB7wP0Dz+QgvOBkmjhaHh8KRjvIBNNnSEbq7RmkC9JtwmayVKAMS8eH5amk9onGT48/iyEr776t2rWzJvXBMGWRYsWL1bdu3c34pw0aZIMagXmm7do0aIYbrtfNtYrbQC+eARyzjnnlnWRyPjxE4z3cWnevLleHJst8vywcU6q0okF9S4zQfL73/9ez3cvBdh4jcf5wAMPaKcfv4YeXtxZBNjP3QjboYPWOqNH+2sdIf369ZNBrZDE79jx7CJ5+MIMyE477aQds1FAM0wjAEnA55LZBHu3ZodCU+hpKu5WyMa+gn9KZoAEQyalQm7/89Ls2erbb78ztAQEWicOJkyYaIS7o9A8zZ5tzh878cQTY9mG2CmQh4Mjl4DwJ550onEfm5mEAdt2H3zIwapd+/bqmWefjf3BACDjKad4i1ZsMmHiRBmkBBCxihqLE6o0bYU2u3fvXoEMkIwdO04GSQTuHyKh3o1suuIO9N54o7mX6YwZM/V16TKALImxVwQt0SKRBjq2kOT3cXRKGPjWA5Ckrg9p13HBR5odQCycCe0kVnptpb+QwrIum7xZOEYkDPDtPPbYZNWr1xVq0mTTrsEmIJtvvnkxvnbt2hWbiAcffMh4Fz/3xgU9UHycOVBMLgCQuEMHsxeHTW/DIOP76U83C2xcMnXKVCPOXr17O4eJkIYzzzzDeF4SNQphpkmHDh0SaUA7PE1FvqwCsWQTWBqx0GPDeJ3MAARd+KihhHw+Z3zRmP3Ax/5effVVI07sykJAk8LvoacX5QTENBke5qSTTlI/MFsG6wj5/VGjRhvhJWQX/9xzg8a5fGafffZxLjCVHSEca5d0LFTadVz2339/57vjg3hTIJbXK+TEIlsrPbHCZjLGNahvufkm/Tz5W7jr4KGHPK1k88Wg59W4cePi+w49NLqjMG2av8EbRM4QRbPI73fu0kW7J1x46qmnjedvZ/YVAVrt2GOPNZ5zOYxlL/LCCy8Mfb8N3ull3pEtNinNSUvaykksbsSnJ5ZtxiTJjTfGmyQnF11AgwFoLnqx/UghfIaAbbwvaoxP2h/ocXLguDl+f6eddw7txQ0cONB4HsS1gRackmDzOBvkwDgmDiYFNOZf/+rvNi3lLQepo8FJFSAWEYoP68QHvh6sFSQbAb4eJHbfFi3UH1u21MMrzfZupq/BCI0DjNv9/Of+uF3bY47RdhRWuhxyyMHF67Y5TdgNhhdamO8JDkRZ4NIJ6mmX44xnXH44jI/SlkMkaIZsoDn0JAMGBhc7YAbHaaefZjz3/PPPy8cigbqBMxTh92q2l2p5REvV5pg26o8t/6ia7N7U6OTAdEi2DtGpsdITC74jTAfmu9yhcPFFo92GCob/BU44XMPq3TjQButZZxoF+vEnnwSm4dxsmVdEEwtJMEbnMoxh7+2yi38yGJykNochpiTzONFJsEH60sLcEzIvto9E2lcQ9FTTAHnFek3kb8XKFfrcRtQPPlZunnz/vberDeZ0hR2qYIKTyyCWHIgOB0iCI2wpszTDMktQ/GRLjRs/Tk0s+Ifomm0XOxCQVwQcsnR0iQTsGv4stJetMKVDtsfll1uHQp548gnjOTSLLqBCaUkZCexTDmgnfh8HCdBEQ/wrFy7p0kW/76KLLlKvvPqK88M04fcMGbFonJBsLDdmzpyhWrTY18gwHKI4thY9LKh+EA9G8/Kvl6vFSxbra7iPrjo284cDEb6b4SOG68lwaL4wB5wEdsSZZ5oa69T27dUZp5nNgmy2AFQY3xwWglU8NkjCuLYokp55jEsutwxIS8ftxImmvSZxXZ8++jn6UGSzLU9w3X///fThA917dFfX9blODRw8SPUfOEANGDRQDb1pqFGGuhyH3aruHTNGHy2MaUbwsqOOFixcqLUXjhlesHCBvkZ198EH76vTRfOLj9z2wZnwtRYjltc2emJnpzfE4TvqaLHBJhtvYiQCsvMuv1W/+93v1L6CgEmF3sGX49Pfhxx6qLXHB01y+eWXG/FgirAN0jGKZtSG5cu/Vvvtt5/xrCQ1bEC4KvgzdPSvC48/4e8ODbn6Gn+hw7ffmhrNNfUlreyw4w5qm223DlwnQTnzd2IsNhpFYtHyLyIX/rYTCyoY9hS9iF5q20Yna7EVKgaeXZBTYIZZNBHyI4kQtshAkhDGN8eCBQuM+55/KKjVODC1h4fBamlqtvm9SpSxFJqCRO+G9oxuEj2tVZfXzV88YgHoLdjGAUePHq2nwsLnAoHfKY0gLFQ2/scypscfM79oLo+G9PakE7VDx44BJ6V0jB7q0ICEadPMrZd69eqtcqygpT8MO+bY7DAOdHQws5SHo8OYZCcEHzWOsIMXHWOYkBdnvahmaZmlheqAyhNpeu65Z9XTTz+l/X2wAbETM+J+7vnn1PPTnlfPPvesmvrUVO3uwFARThs78EDz8PUTTjgu5kYtBWL5xno8YhHef//94vo7yNtvh6v8tEDz0uZo88QskrlzvdNPbYCjdNtf+DM1f/k/vwwUDLrYPD40n2FEgBORP7/nXs30dBuC9NDDkRsFaIArrzRPhYX9CUj/lfSvlQtQHrwJHjx4kPoq9gFXpLEMd0N8YgEoFPSqunTpYtgSSBgM25XfrlT1q+q1puCSBHjHddeaBixk331bhA5DeGN85kRDOYMACy74fUy9CYM3Zmd2KLCsH4Bhi32o+L035th9XRLQEjzcFb16ad/Zqaeealx3eebjYm3DWu1zRFp5fSBf3DBHx6tLl85qwoTxKTzyGRCLgCNmuUONVuK2at1KtT+1vTqrw1nq7LPP1gcLjU6xOHXs2LFGAUO6du0aOQYoHaW86YRmuqKX6cGP4zK5405TK91zzz36Oki+XwvfuP/FL7YLaEgX5Nytlocfrs2BbRs1Kl7DdKCwDykK0PzXXnetns4NQX2QHHf88dp0IHjkS6YAPFh7hZxcyYglETaSHuasdMG2KIMqNAxPTvFPdYDwPRdsHvI4CwukHdWpUyedH2mEYzpwdPfcAwaUMbWawsJYPuwP3rgedVpgX0V9SGFAU7bV1lsaaeSScBcaC3xSMRuLEwvitjPiACcpyIT7BX5e7AInwFO8006/MeKJM23k3blmOjBJjqbXyNH+o49uoycKRkEa/FtuuaUmhiTcmDHx1zXa5ttLwQGYpUDOppACX2N6mKQSxOJ+rNK0Fgzn7bbzZxhwadasmXXIJAr8OBTEETYITMBQ0gEH+L2bTTffQjsEATljIO5GGSCmtH3QjMiBbGnPReH++x8wwksp1b6Sg/pc4EyGUzk9Qoklm8PkthYBBiHabpkBEulYjAM0A/jqUIkYoI4DaIKLC7vckdD5ftjukV9PMqsV87F42N5XXmk0q3vuuafRW4wDOY+My8EHHxLqBokD7tiWUmoza4ODWNQcpiMWwMcRpURNwy3pxQJBAo1VuVw+sCQqykPOwW0+7rgkh2KcyYUS0K7Sd0T2Vb9+N8rHEwGmR6dO3hpMm5Rjs94IYqUHnHEyAyRwT0QUfOjNJJCDuH37Xq+WLl2mdt7ZX5OI7ayTNM9ffvmVatp090C+SNJudEIbtMnN6XiPLQ1s8/a5vMg2lssKIcQqTWmEGfBYXSzngAuUxmoGvj87BPPjn3nmWeNap/PPj+xQ4EOgZ/B3t27mog0u4jjd2ODLtGg8FLNFk/r+JJ591swvl6232aZod2aJuiChIKUrDPhcMI9bZoQkZPMysgQzgXQrYPX0GcLJ6ZrRwIExP75MiibpyTFMzHpIsgxfAmYCxYWpy8kdlCY8z743wc8mcOpGfVRpUOcb6rJXWBr0EvOu7i40pn44mkMQqzR1KYDmD+907fHw9NPR2/mgF7r99r/SA82A17wEB8YxUF0K4LhFDxDDTaUa7ABaho03cR+HMibFdk9u+FVX0FjZEwugRZvyqyaBT8iC0noNFkye7G9+a5M4u+ph9iWeveGGfkW3BPa2wjWQlPL4Qgz/WiVBh7a76qBUN4YP7nLAEnsrsbJpieSgLQll0mHkZvNyBjlLlIte6uWYOsyxdOnnavPNvEFtGvqR05Dbtz9Vfffd95mnPy28jVnMNZFG3k8+SX0fI+/R4KQCjxr47AZOrGwUBtQ6po7IDJFgOZLFHsm8YtDj23vv5oH3Q+Iew7twoT/3nM/vh8cdW3efdtpp2s9WjvSnBd/viwt92Gl2PbSDiOXb6ZZeIQiWDbEA6u5LVUy/LUuesnt5ATaC0/vjrnhZuNBfAib9PuggsM06srEjSgSa62uuudpa9iRJ9w9zg0gFLnlSV8IuM7EIgN6h3LeKC/afci10yBKYey4LedNNfxq7q80PaZLEYsi0R1sK5AogKdiuO+miVzfAG59UHrGcezdEItZDgGuDW+qZyQUEGUN/APPn+9OG6b19+vSRzzrxCRvEveuuUGLF+uDKDWy3ZCtzkmw6GZRdU1tpYvnTZiSxQssn8gGOxYvduxtDMAiaRdc6CnJr7Di9QQKfHRCisWJ/bOUEpjbLMuaCQfQ0+2wFwW2r2MQKLaPQmzbQ2KEcrqDfcabxlgr0/h588EG9RCtq2b0E11ghxKq6fYWeYOfO4adSwBNvQUptS50+J7GkAe9USs4bYcBuwZtu+pNAJkm23HKr1OfpVAIxj+6tOrEmTSJb0vyA6wokw7aUIcvnSQXFrF97M6iJ5dtYUqxaK61xqhM6cuTfdeZcWgs2T9hihmqC76DjIFbasskMmLy4xc/8fcNsEmeCZHyC4XbQcE9DrMCFJMCwiFxBLcW1M0tGSKnuYzWFqeNOCeNdGO/r0cMbGHd9uJjOk3BAm0gQki/cthLL1hQSsYz4Mik4GmKQmSd7YNddd1OLFhnTZEt+pwVcu8SKn48iOIiVrQMwIWiHH5ddBWGLcZOkk+rdoVQcxLKvhLYS1RFxMqB9v+AC7/AgSS6aKtL54s4Z9VqyAz+3J4RYVUHYkBWVKU5eLRFELsEDXCZlZBCLNl6TxAqQKgnLQxG24x8VBHqRbA56Zu9OCz5ZzkGsTD68pEC6aKc++aHSbyxgiTMeGhNEsEKd4L9gz9CxrtAooxA1mB7Y/QSZDlPdtCK4gKqSCzslU8/KQqyylFEUMJREm8bxTVOkfJTAX5cAhTzj67dqLNrc1kmschRYHgsiscbQViicbNh/QIaVFyqBCI2VqUZ3wIgfJgU2RUF6bBuGUBlijn+ZkcdorFJr8x6pwKfVLmLxQGUhlgbW49F5yVKNc3JhowuBcldiABhT3GzzTatJrCIaGtYWV3nLcoPQh4qB94S9wBKQzynVkFNqdd5CLOoNFrlUNlIRsLmIjUyy0CxuiIpVJABXya9+tb2LWBUD3ArDbhsWIJMkFT7YpFt2ZwMQbG2uLp+T7oYisVBxFam86dP9VcRh5Hrqqadk0IqkD8AM0h139A4hrzCxinnERiHY016SSZIKGwk7ZudWDHW5Brj3ObGKzWHZtRUH33FFkov/xuQ0MVe+IuSqArGMfEFjXvR/FwXKg4Q+wJ9tuUUG+zCUjrqGBviLOLG01qqozUDgy+hl4fHfAwYMLHFJeHLgkCR6fxmIRWVtbSVgLhx99NH63bKjw0kFSbv0LGvYiJX32snKA36rMHJxwSFNSaa9pESxkmOMFRICxHAglEwAxk35wt8oUsXZhqlSsNhYsOztGa0EQC54iamwbOTiBYztuENmQrry4bruBF9MGkGsTICNVfpe759cEdb7g2B+ey1BTpupmrZi0JXOT0u1FSq/hhMXXKc/OJCYWAk0VknAR4IdnvfZ11/sG/ZxNdq2kSRV4ryVA4JYtTVnZepU/+g1WzMgCxw7JVtW/WSC+fP9fbHKRSwsbriCnRNkyzO/3qRJk5ow1G3gTaGzra8mYIwedJC3C4tNc8nr2M4aw0VZG/cxZjekBuIeOnSokSf50chrOIgqoZauKArE0mZVTWkrDni9u3fvZiUSF379+OOP1ydglLJvJ0fEkE4qLPlsiV6j6CKPK29Dhg7N/MPJGkSsqhrscYChCb7JrauZkJVw0MEH6Q11seeCY6+IWNCe9+1L97xjjA/TXIYMHaK23Opn1jRLKZJtww21kzjOzoPVRl0+t6oWDPbYwG6A/JyXWBVSkEu6dlWPP/GE1j5JSVaKgxQfBVb5PPTwQ3rFdFgaufC8Yde9anvTkwAaq/bpL4Cj6eTh22EVFLi38YaqW/fuavyE8eq999/XzUqUFkhCLPTs8Pzrc+aoe8fcq87967nRaXLc22GHHdQTTzxRlq2Gyom6fK5So9/ZAy4AfhjTBpZthaTYKhSHQfbq3Uv94/779aa3c9+dq7f/wVpH0mwY0MVZzHieEwu90Hnz52tNioHykXffrTdL22VX/wzEsHeH3R88eHDUBnU1i7qctrHWXUA7YOUJPPFhlZRUNthwA9V0jz2K+xuAZNj8A/c4sWjFcSki0wq/XEI3Qri6rQLWaY3FgTnyOHAIJ8aHVVpSodmXaC7pMCVOrBGiV5dEZNpw/iAIlWIJXA0SS8/HqlkkLjAYytgBuf+A/qrRttuGVmQc+bCgsTANGBuY4BonFu1LEVdkGnA+Mw53+nTep5F2XghqzgdZy8RCQSX+dDng/4Lh2/XSroEKjit0xJvey7SgsUaOHFl8Bx80TyKXXnapPtotw8l4NUWuWidWJoABjnNysKaxe48e+og5WdEuIVtHN4WtW+tr0FKE4cPNEylcstU2W+uDpSZNnlyyTy0EmZVZqfivIBYH7BfMHJgxc6YaNmyY6nj22Wq3pk0CRCChPTrh4jimrXduIt/isn9/89RVkoMOPlhv4Dtq9Ch9DvbSZUv1sW4VQE1orlo13is2EgCbDD4nNHlwF+DMwqFDh2g3BuaNY796AJ2DU045RZPmkbHe2ciwiXBKPU65GDJkiN4xBws/YPDDDVEmrRQHFSs/F2rV3VCSbZUFoNkw/EJzvbA9UPv27T2NxfbuxDz0kPlg1URVyVWXqz2NVdUCkaCuP1YSn3yyp7GGjxihyVS5pVWpEVjPVynUYlNYM6QCpk2fprpf3kNd1r27atzYOyqvefPm6sQTT1SDhwxeF4ZaqHdd0XKtJWLVhNEpAaP9bLZXOp9VUerhSRVGRclVS8SqisqOA0zE2313b5yQlrOjOVwHUTFy1QKxKpLRUoEVMKSpLrzooix3b6kGQLCykqwaxKImryabvjBgUW2btm1j7w1fezDMLfpRFpKVm1iMQHoyYVkyUSnAL1XrU4LDwblkVEFhxxiIrqcS6yen924oxwxSJLDBW6OIRRp6vWLc9CIteJjvqRQr4HpEgX/bVKwk+I16WpP36g2Sa0hANPCosCgHu83kVqlc/sd8Po+I9PB63EhyeZVDIkAcJASsp0TjulgIq5eXyXhsoFxKcrkkbpqrCcoT/R8G/kxG+XIVKX3w9HdwL1GPaKQcAvdU3viN1s+TArFWqYZcvWrIrcrncj/mc/nV+Vx+jcrn6cVc1jbk86tzufyqPMJ56xIRGZ7lX4DOzGqlcquU3ppZi81FjRRRJPibPxNGmuJLLCXGEyFBz/NnJWRGbM/EAU9jhYHX8mKxEYN/9PKeFJ80qC7UfS5fr/J5bNHA7xGx8t5DHrFMQUAZgCL1n8FuNXhx2rIPVGDqiCyQceG3LFVbpeM+yE7PonYAIiMQlV4XaUtBApLyFgN/S6LwIogilskBIpUnXLl4/MirVeHEgpiBVqu8IJa/Oe5/JaiiuWpIUPmpYCNr4RrnOieNizjyvlQiPrFQ71oKfCFSkeC698wqlVf10cTSgYotlUksT1vh+n8tsWoMxGlX0+cilI1UpnASuQWc+EFLkVgkNmKFyXpi1RL0PqDWXYx94TZXPGKRMuGiNRQTj1A+XwLEiid+BJ4povd9WI/aANwEDmJRi00Sj1i87qVp5IvJo1BiuTWXb7jpl+mdcq1t/3pUBXAbceOdyIO/bcSSJPFFais3sQp2WEGDhRLLJR7ZTNVX2LBtPWoG1KeQmgu/uUYLEkSShdd9GLG4lEAsU4t5jrT1Wqt2QCdGcPJwcvn3iAM20si618+xzpxL9GHjtoe1SrNEIF/ikQrM1nuZrtdaNQNOLKmxTMIlVS42Xkip814SvBEmnOH54nX9MgzrFMaM1kuVhYbbLKQSxAr0+qRNLYnF+WBvTuvs7XAc4YnkiY0rfqZkosIFz0NkfC6R4bnw5ygPsudkM4L583EkmB5TS8Qtg2ActubLHkYK7olWSjs3SSPxezJslBQ1lrwRR2ThJY0nvG13i41YYWmQ4bnY4iAHI0laYsl0BNPDyRXvAzPj8DzdaQngecnNsGnisYkmlvcDo9TmSHWYyELkhRlWqCReBrh6dReiGSZ4z5YGGY7IyMUVT1xiyXfTb55W+bxMl18G5sflIhmPWz4v45fC02+LN0xkGct8c/HSo413j1D8Qdykv3kl8EzwZyCoACKnrDg/HH1hpHa9gsU0X+oA+AXmE52Hoffjf1el8nAgrSnel0oEo/chPCeTjVw8bnq311x6dgdPA8VtKw96BsQit019MV1eOVAZrFI5fY3H6V0380Dv4eWF8vbi8dNLv7nGcqWT55H/L+Pj5e+V+f8DQOvLkCNqWmQAAAAASUVORK5CYII=;" vertex="1" parent="1">
          <mxGeometry x="695" y="407" width="150" height="150" as="geometry" />
        </mxCell>
        <mxCell id="IYTjecegJelCjJGWe3SY-25" value="" style="shape=image;verticalLabelPosition=bottom;labelBackgroundColor=default;verticalAlign=top;aspect=fixed;imageAspect=0;image=data:image/png,iVBORw0KGgoAAAANSUhEUgAAAJYAAACWCAYAAAA8AXHiAAAAAXNSR0IArs4c6QAAAARnQU1BAACxjwv8YQUAAAAJcEhZcwAADsMAAA7DAcdvqGQAAABmZVhJZklJKgAIAAAAAQBphwQAAQAAABoAAAAAAAAAAwAAkAcABAAAADAyMzABoAMAAQAAAAEAAAAFoAQAAQAAAEQAAAAAAAAAAgABAAIABAAAAFI5OAACAAcABAAAADAxMDAAAAAAIvvHMbnUA7gAABmkSURBVHhe7V0HlBVF1kbARV1RfhV0Qdxfd+VfBQEHUVxyTjPknAUlDEoOwswQJLgkhSXnzAwMiOScM4IkJUmeIWcYMnj/89Wj+lVX9YvzWnqwvnO+M2+6qqv71fu6qvrWrVupSEPDBqSSD2hohAJaWBq2QAtLwxZoYWnYAi0sDVughaVhC7SwNGyBFpaGLdDC0rAFWlgatkALS8MWaGFp2AItLA1boIWlYQu0sDRsgRaWhi3QwtKwBVpYGrZAC0vDFmhhadgCLSwNW6CFpWELtLA0bIEWloYt0MLSsAUpXli3b9+ms2fP0v79+2nv3r20ecsWWrNmDa1evdog/pePBUuUs279etq4cSNt3LSJNmzcyP5fs3atK23dOlq/fgOt3+Dihg0bWN7NmzfT9p+2044dO2jHzp3s708//cQ+//zzz7Rv3z46cOAA+y74TikdKVJYV69eZT9Yv379qHLlyvTXF1+kVKlSPRVMnz49VatWjQYPHszEeP36dfnrpwikKGEdOXqUhg8fTvny5VN+kKeVRYoUoWnTptOFCxfk6nA0UoSwbty4QePGjVMq/WnnM888Y3zOmTMXLV68mO7evStXjyPheGEdOnSIatSoYVnZfxamTp3a+BwZGUmnEhLkanIcHC0sjDF4haZJk0ap8D8bucDCwsLYA+dkOFZYGJzLFWrFP1sLxh+wHDly0PHjx+VqcwwcKSw8jbwiPYlKPl68ZElq3iKSunTpQl26dqWoqCiKjo6hqOho6to1irpGRbHPOBbTrRt169adollaV+rSBexiMCoqmmJiYlgeEJ+jY2LY35iYbhTTrTt1796DEf/jb8+e31CvXr2pT99v6T//6Uf9+vWnAQMG0KBBg6h///7Ur38/6j+gP/Xt25d69OjJrvH14+u1bt2GIipUUL5jKg8PDRcX3h7xhuxEOE5YN5OSqHbt2pbiAcUWKtu/3qPJU6bQb0eO0M2bN+nBgwf0+++/M4rAv+YjbvD8Iv8o8Os9fPiIbt26RadOnWID9MZNmigikpk2bVr2F6L9I+/ZXzhOWNOmTfNYoeKx7wcPprNnz8mnPxW4e+8erVu3nsqWK2d8X29dPgytToOjhJWQkGDZSomiypEzN23ZulU+NWCgdQP/CKA1QpcVqKkAxtGhQ4d6FBf/v3HjxgGXbTccJawJEyeyipLFxSvww7CP6LcjR+XTAkJSUhLNiI1lP0azZs2YfSwhMVHOFhKg5YmPj2ctT86cOalWrVr0w9y5dO/efTmrR6CTmz5jhvKgydy2bbt86hOFY4SFH7x8+fJKhZkqb3vymnxco02bNkq5GV55lc3VhRL379+nPn36KNcCR40aLWf3ikePHlHPnj3ZufJDx4mXECeNtRwjrD179iiVJbJtuw708NEj+bSAEBcXp/w4vIutU6cu3blzRz4laMydO1f5DiKPHQvMVHDy5CmlDJHPPf8Cm8B2ChwjrEmTJimVJTK5rRVakIYNGyrlisRbWSiAlqNVq1ZK+SDv1pevWCGf5hODBw9RyhMJg7JT4AhhPXz40OMPAebMlZsuX7kinxYQ0J00bdpUKVvkqlWr5NOCAgbrsDHJ5YNcWEuXLZNP84ndu3cr5YmcPHmyfMoTgyOEBRtUiRIllIribPnlV0x8ycHh336jAgUKKGWLzJgxY7KfenSncOdBefJbnMiDBwOfkrl06RK9nz27UhYnDMFOGWc5Qljnz5+nN954Q6kozoEDB8qnBIRdu3bR6xble/rhly9fLhfhFy5evEht27VlZXADphW7RkXTgyAeFHTnnzVurJTHWa9efceYHRwjrNdee02pKM4hQ/4rn+I31q5dq5Qns3TpMsqxSZMnB2TnwjRUmTKuclKndgkWUzZNmzYzldu+QwcmQE9wW//Vlgfdedu27ZR75QyPiGDdsBPgGGGhG5IrihNWdm+4dOkyLViwgAYPGcLsROgy0HVOnTpVKWvODz8wt5OVK1fR/Pnzac+evezHgHtwWFgeU95evXqxbhpAHrgT/zhvHnNFviCIY9u2bZQu3fOmc/EwoIVBC4JueNfuXXT02FF2zBsgqnv37tL9+2h5zOKCsNq176B8J85KlSs7xq05ZQjre8/COnLkCPOyFPOXLVuWOnbsaDqW7f/eo60+jIjHj5+gco+nUZ599ln2F/5PEM5X0stF9hwf0PbtP7G5Pfl+x0+YyEQQDCAsiPja9WtKi+l6yWmtXI+zarXqdPt26EwmyUEKEdb38ikMly9fplKlSrE83B4lzifyMVT58hF09Ngx+XRL4F4aNWrEzpPHSakfl+fJSAnGxc1M9gD61u3bdPHyJbojjZcgrC+//FK5Jmc1LSwzfAnrOw/CmjVrFku3mrDmbNeuPV244HlMYwXM0X3Tq5dRhtUgXz5WqHBR2rFjp1yUX4AQeQsHTV6/mUTnLl5iU0IiIKyWLVsq98JZtWo13RWK8Cms776TT2GAf5ScV2RMTHefYxpPwI+IcVj+/PmVckV+GBbGbFKXLl+Wi/AbENXDBw+ZqO7cucdEderMWbp644apO/QlLN1iSQhWWFgiJecVOWr0GPmUgOFrEUfdeg2YP1VywLtOrEeEOaFuvXpUtUYNKlaiBE2ZOtXI50tYNWrWDOm0VHKQIoTl6a0QC0HlvGIXtWbNOvmUgIFFqihLHlfx63TpGi2f4hEQxu07dxghAHlwPnr0aOX7DBs23HS+N2HV1XYsM3wJa+jQYfIpDPfu3WNuyHJ+sP+AQXT/vv92KE+4lXSLPv/8c6V8zvUbNsqnWOLatWvMhgWTQNVq1ahK1arUtl07un7jhpFn3LjxSvlTp04z0n0Jq2at2rrFEuFLWOJTKwOuMBjE48evXr06devejU3LyK1BcgC7WN9vv6UMGTIY91SufHlasnQpGxf5g8SEBOV7vZops2lsNnas2u3Gxs000n0Jq1ZtLSwTfAvLusUSASF5qlRY30ePGUPDhg+n7wcPoeEjRni1fnsC7vPw4cOUmJgYsIU7MSFR+V65PwyjK1fciyGsWqxZs+KNdN/CquOxDv5opAhheeoK/QHeCmvVci3OELltu3djaahx5vQZ5R7y5MljWmUz8bEHrcj4+NlGum9h6RbLBF/CGj58hHyK30BLFtkiUikz1AsQYDJAK4YxEwy3+E6igfPMGVVYH+XNaxLWlClTlDzxs2VheTaQ1qlbVw/eRfgS1pgxY+VT/AaE1aJ5C6VMzPuFEpiDzF+wIBUtXoJy5vqQXQNjMA54d8qG3I8/yUdXr10z8kybPl25z9mKsDy3WPXq67dCE3wJa9IktwNboGv/Hj18RK1bq/NriEsVSowYMVK5xtwffzTSISx5iuiTfJ+yt0WOGbHqogktrGTAl7CmTZvhzhyosJirictHSuTOEAtr4sTJyjWWCn5dENZf0qUzpef79N9mYVmsxglEWPUbNNDCEuFTWNMFYQUI5mrSTvVhgptMKBEbO1O5xjJJWM+98IIp/d/5C9C1a+7AatOT2RXCYq+FJcBuYcEwKZcZiLBQxqZNm5h/F1qV2Lg4WrFyJTPQcsybt0C5xrIVK430c+fO0UuCHQzEmOyaELEvuS2W7gol+BLWlClu63OggCg6dDD7ZoFwV/YX6K6yZMmslHHqlDtO1eIlS5T0VWvWGukQVsaMmUzpBQoWMgkrNjZWKSMQYdWuU0dxtXlScIywMmUyV7rIqeIYK0C4hKW2WAiE6y/gRVqqVEmlDFFYSyyEtW79BiMd3/FvmbOY0gsWKmyKMTp9RvK6who19CS0CRh/vJg+vVJRnDNmxMmn+A3WFbZvr5R5UAhchpcBdCEiRQ9QTBvBK9VUxjMv0OnTZ4w8VsJau369kQ5hZXkzqyndH2EFYnmvXr2GFpaI06dPK5UkEl6ZwcI1eFeFhdBHHCtWrGDL++vUqcMYERFBcTPd14SwuMsy50sZMtIZYeWxlbAQjpvj/PkLlPWtv5vSCxQqZBKWVVeozhV6NpBqRz8JGH+88sorSkUZlRvrucVCfHUEPevdu7cr8FmfvrRzp3tg7umtEAscOLDQU07HpDMHLOpyXIk3Mr9F586dN/JY+b6v3+j2fLASVpFixUzeDVaDd9m7wZtrMrwmtLAE+Bq8T/fyVojIfXL+QYJjoCc7lhi1xirOQv8BA4x0CCsiItyU/vY/splcnufNV98K1wpjrHMYR0prG4uVKMkiQnNYtViTp5gd/bwJq1r16szXywlwjLC8Dd4R59wThg8boeQfKnhDQFitLSLMIGY8h1VrgzCPHBBWpUoVTenvZnuPLl68ZOSZ++M8pYw1a92OhmiVX33N/PAULlqUrl93C8vKjjVp8hQjnXWFXoRVXQ/ezWCDdy+7S2AOzRPGW7iawC2GA8KyCl0krtpZtmyZki4KC91L1apVTenvZf/A5Es1Z84PShni4B3dZqbXzS1W/gKSgdSiK8TCWQ6fg/caNXSLJcLX4H2qlxZr/PgJSn65K2xj0RWKEYd9CQutAI+Lypkrd266IgQqmTnTtWJIJPbZ4UCrnFkyN3z88Scm7warrnCK1BVGRnoWlnabkeBTWFM9C2vCBFVYYqwHxNRq1VptsXwJSywDFvaGDV1rDTlzS8KymtKBTz4HMzdkedOUnjfvx2ZhPY7fJTIQYWkDqQR0hS9I82gixXGGDCthiat6Hjx4SJEWr+iisBAERE43C+s+NW7sjmQMysKCSUQuA7HqOSCsN7Oa7Vh5P/YtrMnSGCvSS1cIP3r9ViiADWxffVWpKE74gnuClbAQoIyD+WNZOPr5FtYgIx0t1meffWZKx3pC0a145uPFsyI3CAstXC2WuSuUHf1gs5LLgPMfB75L8xaqbxlnxUqV2CpqJ8AxwnrppZeViuIcO3a8fIoBK2GNGu2O8claLIvuw5ewxHgREFYTIfY6mOcjsyisWyyzsN7M+pYpXW6xZs+Zo5Qh27EQS0LOw6mFJQHx2tOnf0mpKE6xO5AxdNhwJb/4Fokf4yuLQBonTpw08ixbpgpL9LPHFE+D+g1M6R8p4yNVWOIYC9vCvf3OP0zprsG72x/rx/nzlTJE47AvO1bFihXp1i0tLAO+DKQYe3gCQg3J+fHazoG3QqswlGK80aVLlyrpop89hFVbWpCRM3duk7Cs3IrFMRZWBWXNara8481SLGPBgoVKGXEzZxnp7CH5Sv0unBUqVAh49ZBdSBHCwvjFExATq3btOtSx09cUFRVDLVq0pEWLFhvpEFaPnj2pZs2arDvDWKlk6TKUkOCO7Y7VzuXDI6hJk89ZnoKFi5heGPAK36x5CypXPpxq165LJUuWpvLlw02igB2rdJmy7HxsWZLjg9ymFgvGVAR4wxIt5KlQsTKVLlPOVAZ85D/K+ylbZt+gYSP633ey0bQZsUY6lvJj3x25ftzCQoulhWXAl7DmzJkjn2IAPzqWeD16BJdll5DwZItAZWOchHwgJpXFBa1IQ6vE05Ff7FLg/XDj5k127M6du3TzZhIzbIoeEDjO7wW8cQP53T8y7gkTzvw6eHvD4F+8D5yPe0M67gn5RddlOGRHx3RT6oezUiUdeM0EX8JasTI00YyfBiCOhVw/nFWqaHODCb6Ehd3iAb5CBy0FiM9oCdAKoEJBdwvmarlA1kLccaXjrcloWR64iFYD/+M4T+PXEhduiMc80XVv6nGQr9aGXYwfw7VwHJ9xr0jHfXKfMF4mx8yZ6ksCp/ZukOBrErpFZEsaMHAQCwDSqVMnFkwDxOcvW7ViCzVhHKxSpQobS2GPnPbt2lHrNq3Z0q8mnzdh6XhrArEVMI41a96M5Y1sGWnEfkB8dgSk7dipEysf+xx279GD7W2I/32xXfv2zBVaPt6pU2dmT8O1MQZDKEvwi6ZNqXnzFtS5c2cWBhLplSpVYn5hcFDs1Kkjte/QnnlxwKaFfHL9cGoDqQRvlnd5LZ6mOz6qTC0sCb7mCjX9ozaQSoDl/eWXPVveNf0jtv/V5gYB6ArTpXtOqSi7KQeo5SxcpCjbZgWhKCeMn0Djxo6jUaNG0ciRI9lf7PMMr1T4xr/xN3VZ2JMi7kcLSwAG7952pgg1ZUFhMI1NODdv2UInT55kfuiyLUwG3tTwI+LeDx48SKtWr6b/Dh1KERXMnqZ/JMPDw7WwRPgyN4SKYhzR3GF5aPToMWwDArzyhwpJSbdo//79zPOzbFnzyh5Z0EHwd4tjBrWwJNgtLFFQWBmzcPHioLepg13JX2Ch66bNm00LZuUguaGk3ktHgssfy56u0IhJlTYNm8wW5+ZkoPs7e+4si/Y3Kz6eRowcSd27d2dB0ziwqmbgoO9oZnw8bdq8hQ4dPsxE6i0kN7pNxIqoV6+ecV/JFJhly6XHWBIgrAwZ/kepqGRR6Ha+aNrM45Yn9x88YCt2sEAVK2BezqgKXNxmF/N3779v3jMwV1gY86ufPXsOWwgr7yjBgR8dK5v5eXIgtuRSmxsk+LK8B0pxLDNw0CBLHyX8yHDwa9rMvO2bFUVRosUqXkKN4yCyfsNGtHjJUrqZlGS6Jsevv/5q7HiRNm1ay9YnGGphSYC54a9eln8FQlFU2NXBaoNyhImEq42n82SKq6bhtVDy8cZQMuUyKletTmvXrjOFO+JIPH2aGjVyuTsns1s0WIE5+umu0ECoDKTiDzvnh7nyZej6jetsMSvP4+8PeuDAQaMMtFjFinveZphTLBu+XPt++cV0L7ysnt98o5wbLHWLJYFFu3vevJFkoBRFtWjREvkSdOLECdPaQLl18cb9Bw4Y5bAWq6R1i2VF8TpY0S2bNvA/djdDur9C90TtjyUBb13P/uUvSkUFwwULF8nF0549e9iqGqQHM6l94KC7xYIjXnh4hJLHG0VxdevW3RSvAUBX+fXXXVh6cgb0aLG0sAS4pnTMgV8DIX/SrdYfYvsTni/YH23/fneLhR8ODnVyHn/I94rG4g4xygwA1+VixYqz9EBaU5F6jCUBwkrvJfCaN3JRdezYiTnQidiydauSLxj+un+/USYc8OrUqavk8Zdc3PDb4vtNc8DWJecPhFpYEpJrbnjltUyUkOheHAFg/o6nJ0dU4MGD7uh/6Lbq16+v5AmEaR+LKyo6WnljHDNmDEsL5p61gVRCsJPQvPLF/WYALECo+DjsUDA/kMxDhw4bZUMIogU9WPL7Gj9hgunesWy/UKHCSn5/qKd0JLB9Zp4JTgDhERXYqhkR8DJAWrBjKplii5XcrtCKu3btNt0/HhQcD/Sh0C2WhGA8SPkAd968+aay9u3bp+RNLkU7FhNW3dAIi38HrCPE8jEOtOD//Oe7Sn5f1N4NEoJ19Hs3279M4Rqx2oUv6Az2zcqKvwjGTYQJQhwqOU+w5Pe5evUa4xrAoEHfKXl9EWYQLSwBeEJfl6Ld+UOsnhFhR2sF7t27z7gG7Fjlw83xSENBrNYRjadbtmxR8vgi20vHYvroScARwoLHQKFChZSK8kT+lC9cZDaGIkKMmB4q7tnj3mwAxs0SJb1PQgfL34Q5SddshPXKJU+Mjokxzn/ScISw8KR+8cUXSkX54hEh8jGCbmTPkUPJEwru3u0eXMOwWbRoMSVPcsgfBLjdcLBAJAF2ueL2e08ajhAWMGKEGv3YGytUrGQaT2C1NI6HurUCd+/eY1yHta6FgzMH+GJUVLRp83LEQZXzeOPWbdvcJz9hOEZY27dvVyrKGzt17mxyE+aGRTsojrHsFJbLcu6e61u4cJGSxxMREglbBjsFjhEWjJoFChRUKswTR44aZZzLutKmTZU8oeIeYUMnRJ0pWaq0kicUfC97Drp0yR07HpPnch6Vrha6d+8+xnlOgGOEBYwf74rZ7o9hcJ0QQx1Paq5cuZU8oeIuYYwFf6fKQU5C+0NxagqbQMnpnogW30lwlLASExMpjZ9uLeI+NgkJCUp6KClumuma0kneXKE3Hj7sfjNMunWLipfw7FTIx5NoreU5xycNRwkLQLxRVJa36ZjUqdMwA+Ly5Svo2PHjtHbdOiVPKCm2WDDCNmhgjkcaSmLn1l9+/YWtEoK//tvvvKPkkRnq/a1DAccJC4NjhPFBhVl1iVZvfRlsWjrGuQjrEC9fpitXr7K/gZoBAmGWt8yRlUGr78wdFsV49E6C44QFYPdTb5VqRX/zBcXUaenNt/5OucPCqEjRopTp9dfVPCGgv9+Biwq7fXlbJ/kk4UhhAeKOXP5WuB30dG1Px+0mF1XhwoVNkZ+dBscKC5g3z71Vm7cx15+FfGhQqnRptjjEyXC0sAD4rGfLls2o3CfVUjxJimNNbJGH5XJOh+OFBcBfK6abOQz1n0Fg4nfMnCULC0uOOcSUgBQhLACBNbCC2Wq31KeZmFgfN24883ZISUgxwuKAHQmxDxBtr5SHpe4pnTlz5qSuXbuy2BIXhSmelIQUJywRWD6FwGnYsgQDfTB+VjzbqRTx0LHraXx8PM2ePZsZHBHGKC4ujmbNmsW6FRxHPp4faeJf5ON0leM6B59xDDt+Yed5nD/78XWQBuLarjxx7J7mPD6XH8N52EQdq6OxFzSuhy1P4KwIW1kgcbiciBQtLA3nQgtLwxZoYWnYAi0sDVughaVhC7SwNGyBFpaGLdDC0rAFWlgatkALS8MWaGFp2AItLA1boIWlYQu0sDRsgRaWhi3QwtKwBVpYGrZAC0vDFmhhadgCLSwNW6CFpWELtLA0bIEWloYt0MLSsAVaWBq2QAtLwxZoYWnYAi0sDVughaVhC/4fEElBRe9ZbW4AAAAASUVORK5CYII=;" vertex="1" parent="1">
          <mxGeometry x="425" y="407" width="150" height="150" as="geometry" />
        </mxCell>
        <mxCell id="IYTjecegJelCjJGWe3SY-26" value="" style="shape=image;verticalLabelPosition=bottom;labelBackgroundColor=default;verticalAlign=top;aspect=fixed;imageAspect=0;image=data:image/png,iVBORw0KGgoAAAANSUhEUgAAAJYAAACWCAYAAAA8AXHiAAAAAXNSR0IArs4c6QAAAARnQU1BAACxjwv8YQUAAAAJcEhZcwAADsMAAA7DAcdvqGQAAABmZVhJZklJKgAIAAAAAQBphwQAAQAAABoAAAAAAAAAAwAAkAcABAAAADAyMzABoAMAAQAAAAEAAAAFoAQAAQAAAEQAAAAAAAAAAgABAAIABAAAAFI5OAACAAcABAAAADAxMDAAAAAAIvvHMbnUA7gAACeDSURBVHhe7Z0J/JdT9scZXhh/YyhDE4ZKKa2KyDoTUsgsVGNURpR9KYyQdSwh0WZvQQbZxl5hVAxmxlaZMVGIkRlbKFGW+3+97+93vp3v/d7nee7zfL/f33yZ5/N6nVfL91nv87nnnHvOufeuYXLkqALWcP8jR45KICdWjqogJ1aOqiAnVo6qICdWjqogJ1aOqiAnVo6qICdWjqogJ1aOqiAnVo6qICdWjqogJ1aOqiAnVo6qICdWjqogJ1aOquB/nljffPONef7558348ePNqFGjzP3332+WLl3qHpYjJf6nifX111+ba6+91qyxxhpFcsABB5h//etf7uE5UuB/mlizZs0qkGnNNde0f6611lr2zzPOOMMSL0c2fKuJtXz5cvPxxx+bL7/80v0pCCNGjCgilSvvvvuue8p3Ep988ol1B5555hnz1ltvuT9nwreSWMuXLzM33HCD6dGjh9lhhx3M8ccfb5577jn3sCJAQhrtr3/9qyUMvtXRRx9dQiYtr732mnuZ7xz+8Y9/mH333bfovSdPnpy5swq+dcT6/PPPzRlnDC8hAfKnP/3JHrNy5UrzxhtvmD//+c9m6tSp5uyzzzb77bdf4bhHHnnEHnfRhRfaf4v509Jp++3NRx995Nz9u4X//Oc/pmPHjvZ90dpac993333u4anwrSPWE088YV/8e9/7XqERpEH23ntv89lnn1nVvsMOXUrIgjRturn5wx/+YK+FRtLX0XLPPfe4t/7O4d5777Xv6utYv/jFL8yKFSvcU4LxrSPWlVdeWdIIWhYuXGiPGzBggP33oYceakaOHGkeeughs2DBAhtK0Gr+n//8pxk8ZEjhfHrwXXfdZb766it119oBZhxz/uKLL1r/Mg1wB2ifF154wf573LhxJe0n0rZdW/Phhx+6lwhGgxPrtYULzS233GKuv/568+STT5ovvvjCPaQARmUQYd78+QV/B5K4jaBlwasL7HGYQlR93PUFK1euMm+//bZZtOj11B9L8Oabb1rf5KyzzjJXX321mTt3nntIWYDod9xxR9G7/vSnPzUvv/yye6gFx9N2dJwHH3zQXHjhhWb//fe35+Fbgttvv93+26e19+25ryViVjQosWbMmFHyAozM5AUgEn4NvfHmm282J510ktlxxx3tcZdffrk9hkZyG0NU+W9+85vM6ptnQLKEGObNm1fyXsi0adPcQzODwK1cV/tDrVq1KsTc6BSEUBjY0HZdu3YteSZk4MCB1lel8/muiUDictBgxNIvIaSQF0F7gZdeeslstNFGJQ2B7LnnnubTTz+1PtQQZbpEGB1mHcWtWrXKjizXXnttay5d0PMXL17sHSlBxgMPPND7Xsjf//5395RIQGo0DcIz8fEBPiPv715bOhTuAeD93XZB8JdGjryk4A7QjoyKwaOPPmqat2hRdDzEZABUDhqMWDjDuvG10LP4QPQ8+b8OHTqYE0880dx0003m6aeftr+J30PDPPzww+bSSy+1Gg/TumTJEveWweAj0ou5L/EcDXyaffbZx/72+9//vvCxBfgs7vsgbqd59tlnrTlC82ohjYR5P/ucc8ywU4aZ4447zhx77LHmsMMOs1oHMi9atKjk+lr2P2B/+1xo+5/97GfmiCOOMBMmTLADnTfffMN8tuKzomd28f7779twDc9YTjtqNBix8D/cBtHCB8Qfoge98sor1nFsKAea++Lk8xw4xhozZ84sek7MtAYayX0XLZdccok9jvdyf0uStm3b2md7/fXXS37TgruAGaxzJT60HSUtIBQar1IhlgYj1gMPPGAbwaexunXrZtV9WnBNentWEyigt/fr188+i0sserF+1ldffbXod5x+9330e0poAycaDYXZQtC2kA6Nxb/HjBljJk6caO68805z9913m8cee8z87W9/s50LcvXt29deT5tCucfw4cOLniktICTWgWvNmj3b/TkTGoxY77zzjvnBBhuUfAAEcxeFOGd82LBhFWkM7tGnTx97LZdY9P5bb73Vhi/++Mc/FnwTjcsuu6zwLq4TLOGPrJBR7V/+8peSdhOBtPhEtLH7fK7p9gHy4mNyrUemT3d/zoQGIxYvTG8/8sgjCw2y6WabmRtvvNH78hx/22232aAnJS2+Y84880x7HXyJcoAP8qtf/cpLLIHPcee+vBPElGcR2WKLLQqZgKxY8u4Sa6LRzACzvNdee5m1117HtGjRwt5TiCsmmywDpnPZsmXmiiuusI47GhE/KgoQSzTWAw8+6P6cCQ1CLMwcTjYOOBpgwYJXbS+LixlpRx5xfRsgH5N4WDlYtny56bVfr1hiucBUcfxBBx1kPyIfh7DDzJmP2mTue++9557iBSNOUkwMQMT0gaeeesrssssu9h6DjhhkVq6qG6VB4g8++MC2ndZO+HqEWzi+f//+5owzzyhqv6RqDWnLxx5/3P0pExqEWFdddZV96N69DyjErHDWGdnxMXzAeW/Xrl2hYRgZucC34DfMRDn4dNkys0+PHkHE4mMSn5LnOuqoowoRan4jHBJnvjUwXb179y4iwMUXX1xoL2To0KFFtWH//ve/bTwQDeWGBDCbdFg6mr4mQkYhroCR3OCxxx0X+T3SourEmj59euHlSJUIZJQoMRgfMDPEVNwQAGaR5DLmgGuccsopZZV7EL7Yuz6kEEcsOsXo0aML70OUnXMFxOH4/9NOO818mTCiRXtgtjieeJRbugPhMKXuCI9qBH7fdtttzafLVt9bA2JjMuXa/PnLX/7S604AGXlai+Ix+VlQVWIRNpCGGjHi7CI/BbXP/x9yyCFBaReNa665pnDddddd1/6JdiOtkgXLli9LNIVoWF1m4/P7MIH8duih/Uu0iQuG9e3ar9bIWiBcVDoFjcQxO+28U6wGmulkOaLchffff6/guDdqtLE59bRTS0a+WVA1YtFwEpEmR+UmNHEmW7ZqZX9Po218w3vplRIzSgt6OIFFrkF4wQXmYY899ijcj5CAO/oC+EX8fvDBB5eQzgWk0KYekfBBXMmKEAvT5rapi/nz59vAtM+NALw3AVm3PTfZZJOyR7NVIRaaiSizPKgvrUHDirom0kxvDwE1Vpzjmg6EWM/nKbUfwGHGT5szZ06J061NORLV8wHnc0wIsSAm/pT7Dj/+8Y9jo99CrJbbtood6YVAcre6bEb+jv8a5+wnoSrEEjOHyFDZxZQpU+zv5Ofk2BByycfzBVohaCWj9Trq/vOf/zzRRDz5VJ3THEIswOhOhvkIftDcuXPdw4ogxPrJ1luVdIK00IMEV3bdbbci/zEtyiYWvgSmbMGrr9oyFViOw0kVAoFFH+vRaEOGDC68hGgfAo1JYCSlz9OaiyRrWqA5If8FF1xgTjv1VDNh/Hj78QDmnPwgQ/UkswPExwolFpBqV8wVI8okCLGaNG1q27sckE90CSWCa0AYJSvKINY31iwMGjSo8DCbb765TZyisZJwzjnn2HO05qFUJgSSHtICKZMcZheYv+7du5dcCyEbgLlCA4Zel0Qu56YhVloIsTZt0iQzsdCUQMy8NoU6TeTzI0ORmVi3Tp1a8jG08NBxwDkUhxk59dRTY0c5Lhh2E7KgegCC+CLjcZg3b25JY7p/Z85hGlCZyXkNQazm2zQ3772fzhQSAxMtRXiBkadkHFzB8S8HmYiFHyAP4DrR+t++2iYNTA2jMF7CjddUE9wLf4xn9PlqWtIEDBuSWDt32zm4I+IrEUMk9iXvRRIcoPVI/eyzTw87iseSlEsqkIlY+CMuibTI/+Og1yLouUmEkneYPGWye3okGoJYEhts06ZNog+ECX/88cdLovsEefFVNYglVrJzpyYW6lNPpYoTnN5y7HS1EFWc5xOCsaF4aW5d5L2axELLM0ghVxnn+1EL78aoTjjheK8GZoA1Y/p0m6/MGmR2kZpYqFXtG8XJ7373u5oklpvg9oloLEplQiFFf+T3fKPhhgDvRt2XfhcqHJ58ck6kRsI/JXHNsbPnzHF/zoTUxKLBpA4qSsTM4FwD1G6S2q42UPWMVtG4q1auKkwPizLnIhK1JqUTpyEA1197vTXMJSMvqXiH4npom3Fjx1ri4gsRodd+FrlF/ewtW7W0kfekttf1WDMffdT9ORNSEwtIyUiSn0J8BhCC6Nmzp41r4dAnfaBKgqE1gU6pA5NKCEm/IC655L3IHgC0NDX4gwcPtu+Oj6aBJrjp5pts1JzzyF+ee+65dgJGJUBniJr2hlsicTeS9fL/jP5C156AWGI2owLaaZGJWPgPMqrSH0Z/IJn6RG/B59CNwQfiY4cEHbMA1U6UnPl97du3L7o3AU8JTbjz9LQQEV+6tK7+m9qnCy4433Rs36HwO1UZUh+uk+I6JtSlS5cSEqYFH51nlmvqNtb3IvwCmP5FlUUacI8TTjjBXieN6Y9DJmIB8lTnn39+0cdAGNKSpNWpFT4AxWyH/PrXRcd27tzZ9iwaJcr+A7QOvgP3jDMx/E7+S5NehB7PMJrEq74GvZzkNYHeo485xgZaZ8+e7XW+MTuklI46+mjTbfddzdKPP7ZZB/deiHx0cQeyQmshn8h9CBUkmbwo8K1OPvlke53/OrEAH4hAG0NaivYoOZGorg98VKLTmJjGjRsXNRAFc5BC+wxc+6KLLjKt27S2x2y99da20lF6J4AADPOJy7RuXXecyF57dbfmN2QRtTjCuuCeb9dfUyZbuOZUBBOcNnirIUsKRF1f/+bWrYWCd6eGjGv8V02hC7QNkqYBsf/0DpnEIIL5AmgXtwG1SJWB5Oe0nHTSiWbOnNnm00/DZv7QY+fOfclWTsSVS/ugg8U+oSQ7DWk1OI+MhHvNKJFVdAin4Ar4tG4UyGDsvPPOkfVoaVERYjFtianeWQKiaDF6GqaKWdA4/DQI1QQ0ljtAkH9TFQE5ITQTDpi8cO2119jBQdoKB+4nk1KTKhhcoGGZhe1+ZHlOnP2s0JokTkRjYaaBTMdnShvfhvZNKrEhAo9ZT0PGOFSEWJJ/Gj9hgvtTKkhSVbRQlPqXjzZp0iR7PEG9uIQso1CcWkytrxSE33/729/aa76Y0vEFUgIkzyzPTefI6vcIpG2j2kKLjMKlZk1Ls2bNrFuBY6+rU/k7q84wt5ORL6GktJ3Lh4oQC/PFw48bP979qYA0AUNZtylJcLjjnH4Bgwk5Bw3ghjvopZRI83sWU0C5i55biBAno9q1XEiNe5SI804wWjQ1bU1HYxAidfVa0M5MkOUYSc9padS4cWTVaSgqQizpVaOuGOX+ZIEqZqTGHMKoWm6NGTOKqzajZMDAASUkcUEju6kNN74UMq8wCZgtNCeakffFrGSdoQ3RyVFKqIISHnl20dZag+EbxQ1QIDiDK8gvPu1ZI0YUOrB2N4So5513nnuZVKgosSRjrkFv7tWrZ+HBmV2TBJntkiShLz927NjCOU2bNi0ZueLnMT+Q37MSS4PKzp4969b1DA1SChgJS0cgNcOACE0ka1m5QrxN5gyETDvjmMVvvWUHKTr+5krffv1ST3LRqAixmLHCw+CAu+Aj/uhHPyo88FkjznIPKQF+UPeYfKTrGCeNumhEzDXmwjckR0P0q4+xVYJY+FUy+JC1G5IAeRjqr7POOoX3JNSgfUIIRGUu1+RPNKKMxAl72GlnKUbmJJ11eyKiCYlRloOKEEuWHCRH5gIfiHl/8uBxkxE03IXG9J8I8SF6H0KAU9IaWVCuj+UD/g3XYyZOUm06vg7aV97tBz/YwK5OEwq99lho+wJMt5zniq8KIg0qQqyCxvKYQoDGYCicVPiHvwRJ5aWIrbgvjBAbEnMmkysQTLJbZxSCEFNI+gltF2ra6FASg2LwgBZb/NZiOwNHDzh4flm1ECGv6vqAGozYhg0dWrQSIn/K+l69evVKFYsjd6rvz9LcErYoBxUlls/HSgOce67Tp2+fgr9AQ06bdqe58caJNlOPZtJxKhpGYlDIDzf6oZ19gpmADLJoRxz4MLI+p49YxIBIoss9QrUCZGJU1mKb5qZbt50L5zOVHWf6mWdXB3c3btTI3HnXXYl+jVSQQgZtJnXqh9njaUAsjnZCgyW1VShqhlh6YTIqHF1fgX9jsnxxKBYdYVAgs6JFiMvwJw6u7zwBBOjZK3omtKyFICMmlm0MiU9xDCvz6WfS0mybFmbEuedYTRsamhBiddulW4lmuu666wrXTlteTGEgq+eUG2YQVJRYl12ePH3LB5aClAYhLOGbBkUvbNGsmV0vIcpZx7nF33I/IPJszMIhaCw2ZuI4H7EkHyhO7u677x5LVIGUF/nWURd/MdS5F+BOcN6OXbuaj5yad4gsC7QRRwvVPrSn1NjdfXdl1revKLEoyk8LnWsjQx/l6JIH4xjqj3zE04AcresnDsgHjHOGV3z+uelT/0F8xIJEu+22W+E5iVWFgPW9NJl8MmnSRPe0WBSm2Hfq5C070iYxtFIBYlFGzjk1tfCaECtu5RgfULstW7a057JmedwaDnoEExJ45HgdGGU6v15/SoO1p5iFzHEusRhQEEhkKhialThTKOJmbbshk1AIsdpst11JPE4gU/dZgyFuICAgiCw5yZok1pixY92fIkGkmNX6OK958+aJth3/6tf1sSbW6AwBpEBT6QU9KGiDPNqHg2z4F+QSdc4R341KUM6LWqg/DvhA8o46VCJ/32STxqkLAYVYzVo0j9TujDy32247e9zpw4d7O5MGv1PuzPE1VTYjxBo7LoxYNAgF/tLQoRWPEuFHE7nOfRwY1bm+F6O1uEw+jc1ghGPxg6L8uiToOnQIpbVXqKnSEGJt3bxZJLGA3qwBTRsH3lVq3rM8kw8VJdaEq5OrG9ylcwgkhkKvYBw6ihJADAoCjz/uOLNZkyZmbn2sDLMKYVn76phjjrGrGKPRMA84w2iqpB4fB+5LsaE8twjmNQtZhVjbtmlt3v8guhRGT8plXqE7gtSgk8qxNUmsqxPm4NGQemMgGjcNcFa33357e27SFP4oECfC3NGY1Cq5H1yErH/oTOMQUKUw5MghZvjw04P8nigUE8vvYwn0wneykYEPtAWdqoaJVVf9GQWmecuLck4WyK6oMoMmK/Re0D7/B2GHh5BqjBBQ1dmhbVszZPDgxIqMOIRqLAE1a/I+UZkPiCWrFdYksa65Nlpj6dQLhfsrVkT7N3FgFjDXYJQXEkvyAc3XsuU2hefxicSeSPZWAhIGIIKfFC6JQ8ioUAMTKDuoMnDxkRpiMefAEitmNcE0qAixxLxRGuzDokULzXrrrWePYYSWdiSkgRmRj68nVaRB0t40WsrN8gueql+U7YDevStCLPYTDCEW0AFo3zKUEEs2vvL9ngUVIZZorGuvK132hyG7VA4gvmUj00Cr7dCwg4uk/W+0EG6oBPhgXI94WWhE3IeCxmobprEsvjG2LJnzCO24S1HqNq0xYtWFAW64sTj5ychEl74mDXtDwQJtXI9ynHJGVnEivlbahG4UpNhw4GGHec1RKNL6WAJG0ZvUT7njm+hScW0K77v//qLzsqIixJLk55Sbimfp6KRoVu3iA6Odk4eebIv3Qno/8SomGBBWYFSIb7brrruWkMknss1tOdAzjSmlydIZBKuJtW0qYgHRmoiO+PN8Mpnk/loKkJLHo5Z6+owZ9t80nB4Bxg11qwkCozybLACCyNYpupDQFXHcie2Uo10EONCyfUm5bSHEat2mjTfcQCe6/fbbbO7PLdbTRZcUIEptGd/riVmzzB3TphVm+pSLihDLBRqB9Rl4AV8JTLmQEl3MFLEoksK6jAUfAm0meUgRou0ytYleqmvhXSF95PoiWaErPMvduCnJFLp17O47yNpglECnLa1Jg7KItfKLL2yveOgh6rBvtQt98OEgEkLlQlzaJAtkp1ZXSBHJSjLuFmz0Xp7FNUE8Ixqtb99+ZsONNjIbN2psDjr4YDtxIaTeKhT6eSBGORBitWq9bckkVJ5Z8qJr1aeOfPsM0RFFMzFCZl4kpho/i9QXZjLL/pEamYlFKsS3NzPCCKOc6HIUdN5N59z036WkhSlTpI4wfV8n+DSQnxAIIj4b1RFUeVYCMsOGRVDK3cF0dRyr1BTy7DKJQwR/1AdMfFTpN0KJc9Ka83HIRCxIw8xa92F01Jpp51nqz6NAD6K0xr2Pe2+m2suqNFlNML0cEnC9cmJugOeQXcoopkszcdcHIVbH7f1bnvDsDExY8oDkue9+PBMTVt22E9EdNWusMDWx8E1OP/10e1NfZaT+f+bFAV6E0Ri9hPP5d5K4SJp2rxuE1W/KgV6UDdNbDkgJ0fu5Vpa1LVwIsTp3idZ++Lhxec6QeZvSllilLAOY1MSS0tgQ2XDDDW2Ph1TU+1D/TToHYiLM80Psv4cPL/w/5cfEWihbkcI7PRs4SW67LV25rwtMimwqyaJx5UTKcZ6lo4Vs6ZIEIVaHTh28GisEkimJ66RaQgorXaQmFqOxkIeS3+n9QLLnaQX/BEysn8ETIrKcTznQm0mWE9jFx5PrpC318aGQ0mkfntLRwGLo/XtCxK2qDUFqYk1W2fI4EWIxUgQ4wgz3qUqIkwvYu+bMM+0ETioZxKzJ9hy+Ml9XXp6fvtrTBTEfqRvjQ4QsPuKDxMv223+/ilRKCLFatGph9xpMC52+CZWQLWxcpCYWEXRulqSxRLLkBn0+Fr2TxS+4po9cesnESnxAoAsLWYkwC2RFvkqteS/E2rp59t2/rhg1yl4j9BtmGeGnJlaI4ycPzMJf5cax+BhSHiM7P0TJmmuurk1HU5TrxPPsErXHN0w7ytQ5uLi1SNMQbnUcK91+hQRGxXrobf+iRDpv1n0LUxMLk8A0cG4aNSoUSTsDxQWOP6XC1DBJlJn4kgzftaARZFdQUijsQMr/U+hWjvPNJAu5R9q4Ds8h08a4ThSyEKvrTl1jR34CtI3el1C2/pPUju8baouQxeKA1MQCxKdkd1TEp1JJ+AJMWJZYCE6/LKW95ZZbFs3iQRNAMLQnkX9m/OhexdqjeiESlpKUOva0YIQoZT+MWNNcg6li8gxZRlY+SC1Z0l46tLs7kuYcmbjCaFWWFYiScjR+JmIBHkyvkCKy5557mIcffqgwAUFKXJg1EvJRaKyxY1cH70je+qaGrfpylW08Yjm+62LGxL8RYTcHCdpy3sJFC4N6vd6+103sxoEsAOfgG8ZNZkgD3uu55543L7zwotc0o5FYbsBdF5XcqWs6CVdQgSIJcoTtbMihZvGrNDITC6DC0RzMtIHdmArdgPR2/Cx5aKoxZYiM4/nMM0/b4bg422TbZQcJhNhX1Ep1MoF1/e+vGzmM5/mYV6i3UyNYSaJ2113rGpOPDunjzBFRf1l4hBibj8g+SNkQU6uyzvRxnwt/k3bimfRzEMSkLIZCPk2ocePGJm68xLXeWbLEXrdSA5+yiCWg0b7+ui6i7gLNJrVICA4kondwZ5lGNMGsWav9GZb+iYv4QtAtttjSHhtFLIFsALnB+usXNboWdqmIg97VNaQqQA/r026oqSHkQROR22NBEq5J+2HuJejKO2666aaFZyS0k8b8vv32W9Z/yxIb86EixGLEs8duu0VO58J5xiQOHnykOfzwuoIyxA0bMLznA0YlTjVoAPJhnJfUIwU6Pyai/cO43Ca9WiYlEF9L0lqYGZmNHOe4h4Dke9u2bUueXYT3onPjP6EdsQK+Th4FOoGsr1VOMFijIsSSuiZqo+KAA+02CiIEoweGAmKJiXslsBRFavNdkfv7lpHUkKwDkjRa0nP6fD5iKPSiKW5H1J1C2j6J8D7UhUXqtGvc4ilpUBFirZ6lE6/yk/aFSbM9iCZWqEN9R335im8UiyQ5rAwsZPEQJifEgUwDx2G6yqltknmBUc8sQrVJVjNWZ7ZrecJq/XYlUcDmuw2iGy3NJFYaUfbOCY0v+XZWZYcL/oQoIeZD14TFLbRP5SzHsIpLFi0ikPUqQiSNT6UBsY45poan2KO54qAj2aLWdU8MXRwEZCEWcEMQSI8ePWJ3ttDAX5T1SlkuyAeCyFKajW9ZDvTmB0mStV5dJ6ZriljSq64aM8b9qQRRaRkxo3wUt07bh7TEws9hcMB5FMAxDQuCQLSQ+2nouJav1JjY2E477WR/L9cZTtoESoTlkrLODP/qq68LyxjVJLFGXzna/ckLqhzJoW3fubPVYBLhJe4lQVdMSVz1pvax4oiFJtJa6p576qahQeCseUx8LdlwnU0qXejJE1m1CCNU6tiIK+2zd10MzednSUomyb+NA6a6JomVZalI7Do9W68STDRc1qRCGK4TfvDl+iCWHBflW1BTpZeaJsUREmkPgdZa7v1l9EtEO03EHR+PQkpZy0tW1CHuJ/cScmmSde3a1XZCTFqW4j/Oq6mNMAVCrFCNlQTMy2AVgSd67842oTHmzZ9vXvLMBIJ0kFzOZ69mzGAlobMKEEFDZhKhlUNGuWgMRrZE9eWZEbS3OP5RvhY1YxLHu/fee+wzpY2efwuIFb4GKaqeoXSUBqFxJM8oQpYeoMGYEHvFFaNsb1768epr4MOxqrGcQ+VqVnOUBD1C1L6WrLs1NmEwA0jQs2usfk8qIghXuARhPuWMGTNtu0AA7ikFiIQ02tUHUYkrhoxwBZBXVk2uKWJNqF+7IZRYbOItu20lpWMY0ov9J5xBYPLwww8v+RD0aDSV9DzSG+TOXG1WSaC1eBY0i16Yl1QUZj3ODEJ2d2f6Ll06W20X1dmSoDdyiqv/cgGxmHtQe8RKMSrkJWRXdiLtIaaCD4XfQl7s++vVbRIgTquORmNKICpJ5nKi3WmgyYOGoVSGe7vaRuDWRyHtO7S3S3dnDXAK0F66Vi0p/ymoeWKFrJosC6chaeu0br65rr7ITW1oqcQiHmnBMB+NeeCBvQvPQcRdl5/w8fROrMhmm21mzWZoDC0EOO9iDZCQVZB5NqlfqyliiY911Zg6HygKr6sFz9iUMS1Gjbq8hEiu8IF9QOthfkJWp0kDChJlV4sokb13ZKcKBLMel/QuB5BZb3iQtCphzRJLcoVk2aPAB5Up+axvnuRb+SA+hC+eI4JG9EFqo4gwR5mptND1/z4tqv9PEtyQrFqDCQ3SV7o0iWWcogCxZKeymiKWaKzxE6JzfVQ1ykved1/4wxOMlFr2pP2REd9C/5gqllaUY7KQ2gUfQ2aExxFdyEVFZ9KsGka7VEXElRwDjvPF9lzQFuKLrr/++t4sAajZUaEQ67rrr3N/stCEGDZsaOwcPWIqixe/aas6MZeynZtMApCF7vUkAPk7GxT5TB3XZKlwjiFCnbWaU0NH15NEnk8m3/rAIEDyi2QjoqbPo/moZkVCYnNMW5PnYCUan/mlPWSCTE0RS0zhxEmT3J/sh5at1diP2VeUx8iQ4Tpm7OST617QFTElaC+3/BZp165todqAxnTTQZASjVEJUgGJhsdpK1fQcFHxJZmSJdfzOd10SB1qYWWZkHCK1N4jTAxxSUubnFCLSWghFnsMu9BBTr1zJx+aEl+CpFHLIbHmFWkYUia6TBlyElqgqrLrjjvaKLv0RMjFuR06drROa0jDZ4E27aGCgyyRdBd6NWiEALALfEMd/GUWU2itF4l3OY+4oNbsllj15eM1RSyJy7irqejCPpxnAY3hBgdFaDhMK/7BZyui/Qg+kC8IicmUPfsQenhckjorshAraQVmkvFUKVAbFkUY3VGJfYWC9tK7guBmSAwRYg0aNMj+v4/QWVARYhG4ZNtdXdqLKZLe1b9//0KyGeeUf+sG32qrn9gXxRx88kl0tDoUEE4caxEaNWtE2wcJHfhGg66IeYOMSUCTRGk1AAnQ4LgEUWY1Cmh9CU4jVH2Iv8u3oyx5YYUCyxUhlg96nxqcd0wSa4a6jT5lyuQSf6gSgMikRzZv2rRwL6Z+JdW1x4H3YKYMH4M5ettsE7+7hSsyKoMUcTOQqgnMqexNiGasVOjFRVnEonGI5RCUpDfyITE7NDwflpEdZMIp79u3T1EjEyBMqjGvBJiXyFQofW9d1cmwnQ8NaVynVoB51XvvyJQr/BGXPK7IiFBKiuhE/BufhoqGtFqnEoBMMoWNIkdmV+GaUKVBx3H3c8yCzMRCHUeteUUph0w01bVECAHKhsrjCTAfei6j+HtMy2LLNXm2Tp06mWnTphW0CWaJxUVkGpeIrFnPdXURoR4h6r8TIpHqTt79/zbYoPAbk3ijNk8CkMAXQqkEokpxEHKHvtBEKDIRS09t0qIbk3UwIRc9knWvWF6IjxtlAvB/SOBWqxEBDQWpcIx1esUVTAR+jjtdjarWJUuKG5ueTWhAp1BEKDJEk7sBT9rFXdgEgtGuosEIv1D0SD0+uT80fNSs8CygA+n7++YgUECYNUuQmljLly8rFLjtsEMXM3DgANOs2dZFDynqn5EGRMIsxhGGuBMvwTnEWSTSXi3osuaoOBSaSiLSTFBNmke4dOnHNm9IEJSPRq17lGkFEJL0jt5nqFu3blZDodVYCMV9pq222ipxMi9mG1ONFowys2Qe5Jp8o2OPXb0xqYh8Q3asiPt2UUhNLNZpkJt37tzJ9OlzkHeLNvlgSetu0pv1yjUIxM3yMqEglOE+rys0NsTiQ8eN0soF70mYgQwDhIRw7JPIM/iyC2xsEJXOQct16dKlcE7UzHRqteSY0aNHmYsvvrDk/RHRYpJET4PUxJL5cu4LR0nS7GicR/ccpJqOfcgCvQRnq0luF5AFzR6SD42azyiTW+WbMLlWzykAEFcHpJs0aWI2brRRyT20xBUXRCEVsVCtMlQNlZGXjnQvUwSc2u7du9tjpUFYNK2SMScX3HOvveruGSWVWJM9C0JWTIxalETq1URIpbl5WQjsK/NhNUT3/0Rw5KPMahRSEQu4Bf9JoiPuUcAU6HPSrHqc9oUFVFdyryiNW86iY+Xg3QgNLsLMbdlcyQXaX5YAQHwmTE+mDRVZrz8NUhOLNAI3S4o4i48VVwekgXpnpBal5isNem5UuITUS9TotSEgq+L4fCxGinHAZ6UNo8gHJHid9A3l96gatzikJhYOovsArgipGCpnnZ3bEMDcUh/foUMH+7w40MSoqpW4DgXPNcBJeyGkwtxV+bKAUSH1WfpbxUnameIgNbGALMntezDdC2TzgFoHdeLEiNx4038TJNcx11R2snAvsbJKPp+ee+B+Q/3vuBqyOGQiFhFnd+FUV2Tp5xzlgQFEVj8yDlxT3JoouWXq1Mz1a5mIJSBoyIorrHTXokULuwov/gER9BzfDjDC5BtSNMh6rMQQqQQpN0hdFrEEy5Ytt9HsamXKc1QfDGbw7SrlX1aEWDlyuMiJlaMqyImVoyrIiZWjKsiJlaMqyImVoyrIiZWjKsiJlaMqyImVoyrIiZWjKsiJlaMqyImVoyrIiZWjKsiJlaMqyImVoyrIiZWjKsiJlaMqyImVoyrIiZWjKsiJlaMqyImVoyrIiZWjKsiJlaMq+H9DOgPCKmR/jAAAAABJRU5ErkJggg==;" vertex="1" parent="1">
          <mxGeometry x="155" y="407" width="150" height="150" as="geometry" />
        </mxCell>
      </root>
    </mxGraphModel>
  </diagram>
</mxfile>
